<svg id="svg" xmlns="http://www.w3.org/2000/svg" xmlns:xlink="http://www.w3.org/1999/xlink" width="400" height="167.66220391349123" viewBox="0, 0, 400,167.66220391349123"><g id="svgg"><path id="path0" d="M88.470 32.443 C 81.536 33.835,77.602 39.483,79.394 45.473 C 80.501 49.171,82.850 50.433,93.082 52.826 C 101.099 54.702,103.857 57.211,103.122 61.963 C 101.982 69.339,88.106 70.346,80.233 63.624 C 79.154 62.703,79.121 62.706,78.393 63.803 C 77.617 64.972,77.711 65.123,80.354 66.928 C 88.466 72.466,101.853 71.354,105.131 64.869 C 108.181 58.837,104.898 53.045,97.358 51.151 C 97.082 51.082,96.289 50.875,95.597 50.692 C 94.906 50.509,93.434 50.151,92.327 49.897 C 86.948 48.662,84.794 47.850,83.465 46.558 C 81.150 44.304,81.357 39.717,83.890 37.184 C 87.641 33.433,98.171 33.890,101.958 37.969 C 102.550 38.607,102.903 38.524,103.477 37.610 C 104.131 36.569,104.126 36.545,103.131 35.674 C 99.860 32.813,93.552 31.423,88.470 32.443 M34.856 32.662 C 34.720 32.824,34.206 33.937,33.714 35.136 C 33.221 36.335,32.537 37.958,32.193 38.742 C 31.849 39.526,30.608 42.432,29.436 45.199 C 26.911 51.159,22.139 62.386,20.277 66.744 C 18.783 70.243,18.774 70.137,20.552 70.070 L 21.868 70.021 22.761 67.925 C 23.252 66.771,24.381 64.092,25.270 61.971 C 26.159 59.849,27.002 58.019,27.144 57.904 C 27.444 57.660,44.534 57.596,44.914 57.837 C 45.034 57.913,45.912 59.818,46.865 62.070 C 47.819 64.321,48.968 67.031,49.419 68.092 L 50.238 70.021 51.618 70.070 C 53.285 70.129,53.255 70.239,52.227 67.814 C 51.803 66.814,50.445 63.599,49.209 60.670 C 47.973 57.741,45.943 52.930,44.697 49.979 C 43.451 47.027,41.405 42.178,40.150 39.203 C 38.895 36.229,37.754 33.530,37.615 33.208 C 37.224 32.299,35.459 31.950,34.856 32.662 M136.530 32.686 C 136.315 33.088,136.281 69.566,136.495 69.903 C 136.593 70.057,136.995 70.106,137.876 70.071 L 139.119 70.021 139.203 61.132 L 139.287 52.243 150.925 52.200 C 159.337 52.169,162.625 52.209,162.789 52.345 C 162.973 52.498,163.024 54.175,163.059 61.277 L 163.103 70.021 164.361 70.021 L 165.618 70.021 165.661 51.423 C 165.709 30.764,165.812 32.369,164.438 32.369 C 162.876 32.369,163.019 31.518,163.019 40.845 C 163.019 48.141,162.988 49.148,162.755 49.380 C 162.387 49.748,139.698 49.785,139.393 49.419 C 139.263 49.262,139.193 46.664,139.163 40.823 L 139.119 32.453 137.913 32.404 C 136.855 32.361,136.685 32.395,136.530 32.686 M199.189 32.481 C 199.128 32.542,199.078 41.033,199.078 51.350 L 199.078 70.107 211.614 70.064 L 224.151 70.021 224.202 69.032 C 224.277 67.569,225.172 67.683,212.864 67.589 L 201.845 67.505 201.802 50.072 C 201.769 36.381,201.715 32.611,201.551 32.507 C 201.297 32.346,199.346 32.324,199.189 32.481 M252.081 32.693 C 251.893 33.045,251.823 69.354,252.010 69.840 C 252.161 70.234,276.739 70.246,277.066 69.852 C 277.283 69.591,277.226 68.030,276.992 67.795 C 276.924 67.728,271.913 67.635,265.856 67.589 L 254.843 67.505 254.799 59.938 C 254.763 53.744,254.797 52.337,254.982 52.183 C 255.143 52.050,257.937 51.982,264.502 51.951 L 273.795 51.908 273.795 50.818 L 273.795 49.727 264.319 49.644 L 254.843 49.560 254.799 42.359 C 254.765 36.710,254.801 35.129,254.967 35.024 C 255.083 34.950,259.949 34.889,265.780 34.887 C 277.782 34.884,276.730 35.017,276.730 33.504 C 276.730 32.292,277.568 32.369,264.291 32.369 C 252.563 32.369,252.251 32.377,252.081 32.693 M302.627 32.599 C 302.578 32.725,304.443 35.838,306.771 39.517 C 313.124 49.558,314.278 51.380,315.733 53.666 L 317.065 55.760 317.149 62.891 L 317.233 70.021 318.491 70.021 L 319.748 70.021 319.832 62.893 L 319.916 55.765 322.699 51.405 C 330.541 39.114,334.442 32.826,334.358 32.608 C 334.213 32.230,331.874 32.275,331.537 32.662 C 331.307 32.928,327.920 38.242,321.367 48.620 C 318.729 52.795,318.705 52.830,318.402 52.830 C 318.283 52.830,315.376 48.358,311.942 42.893 C 308.508 37.428,305.549 32.824,305.367 32.662 C 304.942 32.285,302.766 32.235,302.627 32.599 M40.206 45.703 C 43.173 52.835,44.058 55.121,43.917 55.291 C 43.724 55.524,28.865 55.639,28.274 55.412 C 27.874 55.259,27.944 54.885,28.692 53.154 C 29.600 51.055,32.247 44.821,33.957 40.755 C 35.713 36.579,35.896 36.200,36.123 36.275 C 36.226 36.309,38.064 40.552,40.206 45.703 M251.127 97.608 C 244.663 98.523,240.788 102.684,241.053 108.428 C 241.292 113.619,243.704 115.455,253.166 117.645 C 254.642 117.986,256.183 118.373,256.592 118.504 C 257.000 118.635,257.437 118.742,257.563 118.742 C 258.105 118.742,261.139 120.017,262.150 120.669 C 264.251 122.024,265.157 123.669,265.154 126.122 C 265.150 130.819,261.635 133.225,254.759 133.238 C 249.229 133.248,246.276 132.162,241.561 128.386 L 241.142 128.050 240.681 128.600 C 239.512 129.993,239.541 130.123,241.344 131.519 C 246.063 135.170,253.329 136.650,259.596 135.236 C 265.457 133.914,268.706 129.787,268.024 124.528 C 267.387 119.617,264.255 117.389,255.178 115.387 C 245.846 113.330,243.857 111.962,243.857 107.600 C 243.857 102.501,247.139 100.058,254.004 100.047 C 258.594 100.040,260.932 100.738,263.532 102.893 C 264.823 103.963,264.842 103.961,265.561 102.640 L 266.022 101.794 265.465 101.274 C 262.288 98.306,256.553 96.840,251.127 97.608 M311.111 97.543 C 299.782 99.633,293.058 111.628,296.858 122.969 C 302.535 139.914,324.472 139.848,330.148 122.870 C 333.596 112.555,327.809 100.860,317.820 97.954 C 316.589 97.596,312.260 97.331,311.111 97.543 M19.161 97.721 C 18.805 97.865,18.860 135.275,19.217 135.412 C 19.363 135.468,19.848 135.514,20.295 135.514 C 21.757 135.514,21.635 136.983,21.635 119.317 C 21.635 109.746,21.696 103.648,21.792 103.648 C 22.046 103.648,22.305 104.077,29.096 115.723 C 37.065 129.392,36.294 128.205,37.253 128.268 C 38.264 128.334,36.770 130.672,47.926 111.572 C 50.472 107.214,52.654 103.648,52.776 103.648 C 52.958 103.648,52.998 106.453,52.998 119.379 C 52.998 131.392,53.045 135.159,53.199 135.312 C 53.408 135.521,54.951 135.590,55.416 135.412 C 55.656 135.320,55.681 133.502,55.681 116.547 L 55.681 97.784 55.254 97.677 C 54.829 97.570,53.055 97.658,52.936 97.792 C 52.902 97.830,51.974 99.409,50.874 101.300 C 39.850 120.253,37.473 124.277,37.300 124.277 C 37.189 124.277,36.537 123.314,35.850 122.138 C 35.163 120.962,31.751 115.094,28.267 109.099 C 24.783 103.103,21.781 98.065,21.597 97.904 C 21.273 97.620,19.704 97.502,19.161 97.721 M99.420 97.820 C 99.273 97.935,98.194 100.294,97.023 103.061 C 95.851 105.828,94.455 109.111,93.921 110.356 C 93.387 111.602,92.103 114.621,91.069 117.065 C 90.034 119.509,88.638 122.792,87.966 124.361 C 82.710 136.628,83.014 135.514,84.929 135.514 C 86.330 135.514,85.962 136.172,90.177 126.122 C 90.777 124.692,91.386 123.390,91.530 123.229 C 91.814 122.910,108.823 122.765,109.314 123.077 C 109.522 123.209,110.131 124.586,113.145 131.740 C 114.713 135.461,114.753 135.514,115.993 135.514 C 117.897 135.514,118.507 137.490,111.411 120.671 C 110.166 117.719,108.447 113.644,107.592 111.614 C 102.836 100.328,101.767 97.859,101.585 97.743 C 101.260 97.537,99.710 97.591,99.420 97.820 M145.451 97.714 C 145.151 97.845,145.142 135.013,145.442 135.312 C 145.703 135.574,157.612 135.593,159.965 135.336 C 169.094 134.339,174.890 128.116,175.577 118.574 C 176.359 107.708,171.219 99.985,161.880 97.997 C 160.595 97.724,146.004 97.473,145.451 97.714 M206.826 97.811 C 206.426 98.211,206.547 135.125,206.949 135.340 C 207.303 135.529,208.619 135.575,209.043 135.412 C 209.449 135.256,209.449 97.868,209.043 97.712 C 208.578 97.533,207.035 97.603,206.826 97.811 M359.958 97.721 C 359.550 97.886,359.663 135.121,360.073 135.340 C 360.427 135.529,361.742 135.575,362.167 135.412 C 362.406 135.320,362.432 133.762,362.434 119.521 C 362.436 110.837,362.494 103.641,362.565 103.531 C 362.767 103.212,362.766 103.211,368.661 110.608 C 385.710 132.000,388.260 135.166,388.569 135.332 C 388.936 135.528,390.246 135.578,390.678 135.412 C 391.085 135.256,391.085 97.868,390.678 97.712 C 390.213 97.533,388.670 97.603,388.461 97.811 C 388.307 97.965,388.260 101.804,388.260 114.070 C 388.260 123.655,388.198 130.165,388.106 130.222 C 387.915 130.340,387.638 130.067,386.518 128.655 C 385.621 127.525,381.137 121.892,373.487 112.285 C 371.136 109.333,367.606 104.899,365.642 102.431 C 363.677 99.963,361.930 97.868,361.759 97.777 C 361.439 97.605,360.330 97.571,359.958 97.721 M315.687 100.129 C 323.491 101.258,329.575 110.508,328.144 119.069 C 326.107 131.251,314.325 137.073,305.241 130.387 C 299.280 126.000,297.001 117.554,299.782 110.163 C 302.432 103.123,308.764 99.128,315.687 100.129 M161.521 100.515 C 168.691 102.231,172.914 108.148,172.914 116.478 C 172.914 125.564,168.001 131.787,160.015 132.816 C 158.005 133.075,148.389 133.059,148.126 132.797 C 147.827 132.497,147.835 100.620,148.134 100.315 C 148.460 99.983,160.019 100.156,161.521 100.515 M101.257 102.851 C 101.533 103.520,103.282 107.719,105.144 112.182 C 107.007 116.645,108.491 120.399,108.442 120.525 C 108.275 120.961,92.411 120.854,92.411 120.418 C 92.411 120.232,92.968 118.779,93.649 117.189 C 96.018 111.653,98.251 106.401,99.119 104.319 C 100.483 101.049,100.507 101.032,101.257 102.851 M365.316 147.061 C 365.165 147.158,365.113 147.529,365.149 148.275 L 365.199 149.350 375.346 149.350 L 385.493 149.350 385.493 148.176 L 385.493 147.002 375.514 146.962 C 370.025 146.940,365.436 146.985,365.316 147.061 " stroke="none" fill="#cc1010" fill-rule="evenodd"></path></g></svg>