<svg xmlns="http://www.w3.org/2000/svg" xmlns:xlink="http://www.w3.org/1999/xlink" width="720" height="325" viewBox="0 0 720 325">
  <defs>
    <polygon id="fling-a" points=".085 .676 78.681 .676 78.681 129.476 .085 129.476"/>
    <polygon id="fling-c" points=".085 .676 78.681 .676 78.681 129.476 .085 129.476"/>
    <polygon id="fling-e" points=".606 .533 143.855 .533 143.855 214 .606 214"/>
    <polygon id="fling-g" points=".896 .903 73.405 .903 73.405 54.188 .896 54.188"/>
  </defs>
  <g fill="none" fill-rule="evenodd" transform="translate(0 -1)">
    <g transform="translate(181 .324)">
      <mask id="fling-b" fill="#fff">
        <use xlink:href="#fling-a"/>
      </mask>
      <path fill="#F90" d="M65.9829,110.1846 C64.5649,126.2646 47.6419,131.3976 49.0269,114.6706 C45.5589,130.8026 16.3479,120.3926 16.2799,110.3706 C14.7919,104.6196 19.1059,96.9166 23.3749,92.2556 C29.0899,85.8036 38.2979,81.5356 42.2729,74.8276 C49.0799,63.7916 53.3469,49.1926 49.9779,42.6786 C55.5929,52.3366 44.8119,67.6106 53.8699,84.5036 C58.7149,93.7096 66.9529,98.5546 65.9829,110.1846 M76.1579,71.9056 C69.8599,76.7496 67.4369,70.4516 67.4369,65.1216 C67.9199,56.8846 69.8599,50.5836 67.9199,41.3776 C63.0759,17.1506 46.6019,11.3356 26.7339,0.6756 C40.3019,10.3676 46.1169,24.4186 37.3939,38.9556 C32.5489,47.1926 23.8269,53.4916 18.9819,61.7296 C16.0749,68.0286 17.0439,74.8116 16.5589,81.5956 C12.6829,74.3266 8.3049,67.7056 0.0849,67.5436 C12.1979,80.1426 -3.3071,94.1946 2.9919,106.3076 C6.5319,119.2876 27.2929,137.6866 38.8489,123.3476 L38.8639,122.8636 C42.3409,134.9916 66.9529,128.5956 74.7049,118.4206 C86.3349,103.3996 67.9199,85.9556 76.1579,71.9056" mask="url(#fling-b)"/>
    </g>
    <g transform="translate(190 .324)">
      <mask id="fling-d" fill="#fff">
        <use xlink:href="#fling-c"/>
      </mask>
      <path fill="#BA0000" d="M65.9829,105.1846 C64.5649,121.2646 38.4129,125.8826 39.7979,109.1566 C36.3299,125.2886 16.3479,115.3926 16.2799,105.3706 C14.7919,99.6196 19.1059,91.9166 23.3749,87.2556 C29.0899,80.8036 38.2979,76.5356 42.2729,69.8276 C49.0799,58.7916 53.3469,44.1926 49.9779,37.6786 C55.5929,47.3366 44.8119,62.6106 53.8699,79.5036 C58.7149,88.7096 66.9529,93.5546 65.9829,105.1846 M76.1579,71.9056 C69.8599,76.7496 67.4369,70.4516 67.4369,65.1216 C67.9199,56.8846 69.8599,50.5836 67.9199,41.3776 C63.0759,17.1506 46.6019,11.3356 26.7339,0.6756 C40.3019,10.3676 46.1169,24.4186 37.3939,38.9556 C32.5489,47.1926 23.8269,53.4916 18.9819,61.7296 C16.0749,68.0286 17.0439,74.8116 16.5589,81.5956 C12.6829,74.3266 8.3049,67.7056 0.0849,67.5436 C12.1979,80.1426 -3.3071,94.1946 2.9919,106.3076 C6.5319,119.2876 27.2929,137.6866 38.8489,123.3476 L38.8639,122.8636 C42.3409,134.9916 66.9529,128.5956 74.7049,118.4206 C86.3349,103.3996 67.9199,85.9556 76.1579,71.9056" mask="url(#fling-d)"/>
    </g>
    <path fill="#231F20" d="M555.5152 102.6604L558.0162 102.6604C560.1302 102.6604 562.0682 102.5554 562.0682 100.1244 562.0682 98.0804 560.3062 97.7644 558.6862 97.7644L555.5152 97.7644 555.5152 102.6604zM553.1192 95.8264L559.0732 95.8264C562.7372 95.8264 564.4632 97.2704 564.4632 100.2294 564.4632 103.0134 562.7022 104.1754 560.4122 104.4224L564.8162 111.2214 562.2442 111.2214 558.0512 104.5984 555.5152 104.5984 555.5152 111.2214 553.1192 111.2214 553.1192 95.8264zM558.2632 114.7804C564.3582 114.7804 569.0782 109.9184 569.0782 103.4714 569.0782 97.1644 564.3582 92.3034 558.2632 92.3034 552.0982 92.3034 547.3762 97.1644 547.3762 103.4714 547.3762 109.9184 552.0982 114.7804 558.2632 114.7804L558.2632 114.7804zM558.2632 90.3654C565.4502 90.3654 571.4742 96.0374 571.4742 103.4714 571.4742 111.0454 565.4502 116.7174 558.2632 116.7174 551.0402 116.7174 544.9812 111.0454 544.9812 103.4714 544.9812 96.0374 551.0402 90.3654 558.2632 90.3654L558.2632 90.3654zM126.7432 104.6883L116.8432 109.3533C110.4912 112.3653 103.7222 108.9613 104.0042 105.8773 104.7712 97.4793 117.0372 91.1083 89.6062 91.6433 64.3202 92.1373 44.8572 88.3213 44.4662 103.2673 44.3712 106.8973 43.3262 147.0633 43.3262 147.0633 43.3262 147.0633 70.6912 148.2933 74.3622 147.5403 83.9792 145.5633 86.4532 140.9843 86.1742 133.9243L96.4592 131.0663 106.1752 177.2513 96.2712 180.9633C87.9802 164.6453 80.3472 167.3153 76.4642 167.2513 76.1452 167.2463 74.5812 166.9093 74.5812 166.9093L74.3182 153.6673 71.1572 164.3983 38.3692 164.9623 47.9022 218.7673C49.4262 226.2583 51.5312 241.3493 65.9912 238.5783L66.3822 250.8583 12.3882 256.5793 12.4892 244.2923C28.6492 244.2313 20.0462 197.6703 18.8222 190.8013L31.8182 188.1673 13.7542 185.2703C13.7542 185.2703 18.4342 104.2123 18.5692 101.3623 19.0932 90.2293 8.0262 93.0873.0002 91.8353L.0002 79.8353 124.2722 72.2153 126.7432 104.6883zM162.2847 125.1844L148.8177 133.1664 164.9527 128.0394 156.7607 196.0344 145.8177 206.1664 159.4287 197.3634 158.8577 227.0734C158.6047 235.2434 162.6637 240.0144 185.1867 239.4494L187.0937 252.0224 109.9147 260.9774 107.9137 248.9794C136.2367 244.0064 134.6737 228.5924 134.6737 225.7364L147.3177 220.6664 132.3837 223.2644 134.6717 199.8384 139.0517 144.0384 139.8137 114.2334 132.2727 115.2234 131.4877 112.0834 136.1477 106.0674C136.1477 106.0674 134.1057 80.2704 134.7137 78.5244L166.4757 77.7624 162.2847 125.1844zM267.0298 256.7635L196.4608 249.7765 195.9128 237.5545 196.2668 235.1415C204.0038 236.0125 220.9778 235.0565 221.7928 225.0495L223.1288 206.1035 235.3178 211.1665 220.2688 199.0555C222.5698 175.3925 222.7478 164.5855 221.9858 162.3005 221.2238 160.0145 217.0338 158.7435 209.4158 162.2995L207.8918 155.2505 217.2218 150.3015 204.2708 152.5865 201.7948 145.5395C210.8668 141.5575 216.8928 138.1125 225.0188 138.1125L250.1698 141.1595 247.1228 180.7735 228.8178 177.1665 243.8828 184.3905C244.5168 215.4965 243.4038 224.2515 244.3568 225.9035 245.3078 227.5525 238.7768 239.1565 268.7438 241.8115L267.0298 256.7635zM405.1919 249.1648L345.0039 249.2568 345.3889 236.4988C364.2549 235.4358 362.1579 225.3238 363.2929 218.1208L377.8179 216.1668 365.6299 213.7078 367.2929 168.7958C365.7689 156.4798 366.0799 150.6138 358.7219 147.0378 353.3599 144.4308 331.6289 140.9838 321.4889 154.9878 319.1639 158.1988 319.4909 163.2738 317.9669 171.6528L304.3179 178.1668 315.1089 176.4148 324.9179 223.7398C324.9179 226.7238 328.7639 237.9148 341.5869 236.4088L342.0619 249.1648 275.2419 248.4568 275.5889 236.4028C304.7229 236.0068 295.9409 212.7278 294.9259 200.6958 294.4289 194.8108 288.8289 163.0828 287.3049 153.7508 285.7819 144.4188 283.7329 140.2218 273.5929 142.7028L270.5459 126.1358 304.0639 120.4218C304.0639 120.4218 306.1599 134.5168 306.3489 136.8008 307.3939 149.3798 313.2059 140.7048 313.2059 140.7048 329.9099 124.5748 355.9619 123.8508 360.3409 123.8508 370.6259 123.8508 392.4949 129.3468 391.2899 156.2198L391.2899 197.6508 391.2899 224.0258C391.2899 227.0088 391.6379 229.3898 392.3379 231.1668 393.0349 232.9448 394.3369 234.3418 396.2409 235.3568 397.3839 236.0558 398.6539 236.6438 400.0499 237.1188 401.4459 237.5958 403.1609 237.9918 405.1919 238.3098L405.1919 249.1648z"/>
    <g transform="translate(398 111.324)">
      <mask id="fling-f" fill="#fff">
        <use xlink:href="#fling-e"/>
      </mask>
      <path fill="#231F20" d="M60.3286,37.8604 C56.5936,38.3034 47.4106,37.7924 37.3916,43.4874 C35.1496,44.7624 9.8746,63.7784 40.8536,73.7824 C47.6456,75.9744 54.7046,76.3794 61.6276,76.3794 C75.4766,74.6474 79.6786,71.2364 81.9696,69.0204 C100.8276,50.7854 76.3426,35.9644 60.3286,37.8604 L60.3286,37.8604 Z M21.8116,160.8784 C11.6776,183.3524 68.5236,175.1294 84.3456,169.2614 C94.3306,165.5594 103.1836,163.6184 105.8176,161.8424 C107.4396,160.7514 90.5276,161.4624 91.6966,160.1884 C93.8836,157.8094 106.6036,151.1214 102.5286,142.4244 C97.6746,132.0684 80.6786,135.2584 68.5536,137.9954 C56.7126,140.6674 26.9126,149.5674 21.8116,160.8784 L21.8116,160.8784 Z M130.9236,7.2174 L120.2546,13.7404 L139.3196,8.6884 L143.8546,19.9014 L101.2266,35.0484 C104.0406,38.5824 106.1496,42.2974 107.5556,46.1924 C108.9636,50.0874 109.6656,54.1284 109.6656,58.3104 C109.6656,63.7924 108.3326,68.9314 105.6626,73.7284 C102.9936,78.5244 99.4956,82.4014 95.1686,85.3584 C90.7676,88.4604 85.6106,90.8944 79.6956,92.6624 C73.7806,94.4284 67.3616,95.3124 60.4376,95.3124 L44.3176,95.8524 C40.3496,98.5214 38.3656,101.6594 38.3656,103.1014 C38.3656,106.6364 39.6286,109.0714 42.1536,110.4044 C44.6766,111.7404 49.2586,112.4784 55.8926,112.6244 C62.4576,112.7674 69.0936,113.0564 75.8006,113.4884 C82.5086,113.9234 87.3056,114.1734 90.1896,114.2464 C94.3736,114.5344 98.5216,115.4904 102.6326,117.1134 C106.7446,118.7364 110.3146,120.8454 113.3456,123.4424 C116.6616,126.2564 119.4026,129.8094 121.5676,134.0984 C123.7306,138.3914 124.8136,143.3504 124.8136,148.9754 C124.8136,155.0344 123.4966,160.7144 120.8636,166.0164 C118.2296,171.3184 114.2096,175.9164 108.8006,179.8114 C103.1006,183.8504 96.2666,186.9894 88.2976,189.2244 C80.3276,191.4604 65.9556,193.9844 45.1826,196.7974 L22.6786,214.0004 L18.3206,206.5544 L22.2626,198.6634 L11.3966,206.2654 L5.7976,200.8014 L21.8116,192.0374 C13.9056,186.8564 10.0026,183.8204 6.8826,179.4874 C4.2966,175.8954 0.6056,172.2374 0.6056,162.0674 C0.6056,155.7934 3.2756,150.6354 8.6116,146.5954 C13.9506,142.5554 22.2466,140.3564 33.4986,139.9974 L33.4986,136.4234 C30.5636,136.2374 27.9086,135.5854 26.6666,135.4444 C22.9996,135.0284 18.6516,131.3424 18.6516,131.3424 C18.6516,131.3424 14.9846,127.3424 12.7666,122.0574 C11.4696,118.9654 11.5996,118.2574 11.5996,114.7814 C11.5996,111.3914 13.1406,108.3494 14.6176,106.0784 C16.0976,103.8054 17.9896,101.8044 20.2996,100.0724 C22.3176,98.5574 28.2146,95.3664 24.1956,90.6634 C19.7596,85.4684 13.9056,84.9604 8.2686,75.4224 C5.6906,71.0614 4.3916,65.1264 4.3916,56.9034 C4.3916,45.2184 11.4426,35.8964 21.2186,28.9364 C30.9896,21.9754 43.3786,18.4944 58.3826,18.4944 C63.2866,18.4944 68.0296,18.9454 72.6086,19.8474 C74.8906,20.2974 76.8986,20.7224 78.6346,21.1284 C80.3846,21.5344 89.4346,25.1684 90.6296,25.5304 L84.8476,20.0194 L128.7076,0.5334 L130.9236,7.2174 Z" mask="url(#fling-f)"/>
    </g>
    <path fill="#231F20" d="M533.7271 214.6277C533.7271 216.6397 533.3321 218.2527 532.5421 219.4637 531.7521 220.6747 526.9861 222.1587 526.1961 222.0827 524.7431 221.9537 523.3541 221.3817 522.0281 220.3617 520.7031 219.3427 519.3271 218.0167 517.8991 216.3857 517.8991 214.1437 518.8801 211.7977 520.8431 209.3507L526.5981 211.1107 522.4871 207.8207 526.1961 207.0947C528.2351 207.0947 529.9991 207.8467 531.4911 209.3507 532.9821 210.8547 533.7271 212.6137 533.7271 214.6277M555.9791 220.1062C552.7421 217.9052 550.6821 215.3722 549.3711 212.9612L554.5271 208.2372 550.1111 210.1672C548.5831 205.0262 549.0341 200.3482 549.3931 197.5942 549.7331 194.9932 550.8101 189.4512 554.4381 182.8432 555.7521 180.4512 561.1131 172.0212 567.4481 170.0722 573.3411 168.2572 581.2441 167.3852 587.1561 176.9522 591.2151 183.5212 587.6351 191.5232 586.6161 192.1442 581.7461 195.1092 573.9541 186.0412 578.6031 181.7922 579.9561 180.5562 585.3911 181.8902 581.8911 178.4162 572.7431 169.3352 564.1431 182.4932 562.8211 185.2422 561.4871 188.0152 560.5381 190.8802 559.4891 195.7442 559.2921 196.8862 559.1561 198.9832 559.0781 200.0322L553.0051 199.5862 557.0411 201.4072C557.4581 205.2582 558.1881 208.5042 559.8821 210.6612 562.5931 214.1122 566.7591 216.1202 569.7501 216.6332 572.6101 217.1262 576.9341 216.6332 582.7631 210.4072L583.4681 211.8032 580.0091 217.5102 585.0061 211.9912 586.6871 213.7742C584.9991 216.0362 581.9631 218.8012 578.2511 220.9442 576.4161 222.0042 573.6241 222.6842 571.8301 223.0772 564.6001 224.6572 558.9721 222.1412 555.9791 220.1062M629.4068 206.6883C629.4068 206.6883 630.1178 205.9883 629.8578 205.0583L634.8298 204.9283 632.0998 202.9853C632.9168 200.4363 632.5568 197.3543 632.4378 195.5593 632.1108 190.6253 630.9168 185.6723 628.2648 180.4213L631.5638 179.0353 625.6538 179.0843C624.2258 175.6423 622.1378 171.7773 617.0898 171.9343 612.0818 172.0893 606.9318 178.6753 605.4668 181.7983 604.2778 184.3323 603.8188 187.1773 604.4178 189.4533L596.1318 188.6273 602.7148 191.0953C602.7148 191.0953 602.6728 193.9983 602.9808 197.2363 603.6988 204.7803 608.1118 209.1923 609.7488 210.5303 619.3908 218.4173 629.5658 210.5263 629.4068 206.6883M640.3358 185.9273C642.1288 190.3793 642.0278 194.2193 642.4348 197.9913 642.4348 197.9913 642.2538 202.8893 638.6648 208.6103 633.0268 217.5983 621.8848 221.2743 617.7018 221.1783 607.6508 220.9443 602.6358 215.9993 600.9558 213.9463 594.9818 206.6433 594.5048 196.9063 594.1518 192.6083 593.6108 186.0173 595.3408 181.6783 595.9858 180.4723 596.6318 179.2663 600.3468 171.2493 606.0788 168.1493 608.8688 166.6403 615.4018 164.5143 621.9828 166.7343 630.4018 169.5753 631.8698 172.2143 634.7138 175.9213 636.5168 178.2733 638.1858 180.5913 640.3358 185.9273M714.0953 222.1785L694.6843 219.2665 694.9463 214.7155C699.0603 214.9305 700.5333 210.7665 700.5333 209.5925L704.8603 187.3415C705.2683 182.8305 705.5643 180.9865 702.9953 178.9685 701.5003 177.7925 697.4913 176.3995 691.1663 182.0855 690.5203 182.6655 687.3993 187.4075 687.5823 195.4815L678.1123 195.7185 685.1983 196.9495C683.3633 205.9715 683.0253 208.9445 683.0253 208.9445 682.6283 210.8935 680.7933 216.4795 688.7023 216.7155L688.1203 221.1785 665.2973 219.6495 666.6763 214.4915C672.9043 215.2975 673.4593 210.8545 673.4593 209.5925L676.6383 186.5775C677.1243 184.6565 677.6463 181.2475 672.7203 178.7845 668.3173 176.5825 658.0423 179.8855 658.5923 187.8515L661.0393 209.0965C661.5283 213.0945 668.3683 211.5885 668.3173 211.4615L668.1333 213.4615 665.7483 214.0125 664.6533 217.4755 644.4643 220.2505 643.7643 215.7155C644.4273 215.6645 650.8863 214.5635 649.7223 208.7525L649.0723 205.2485C649.0723 205.2485 648.6873 192.2355 646.5903 181.3315 646.5903 181.3315 648.2823 180.2885 647.8493 179.3315 647.4153 178.3765 646.8933 177.6305 646.2823 177.0955 645.8233 176.7135 645.2423 176.4015 644.5413 176.1585 643.8413 175.9165 643.0703 175.7445 642.2293 175.6425L642.2293 172.2015 660.4663 170.9785 661.0393 175.3195 659.1933 178.3195C659.7433 177.7085 661.7113 176.3995 663.3633 174.9315 664.4483 173.9665 674.3713 167.5915 682.2783 172.6225 684.3823 173.9605 685.6113 176.2295 686.4263 178.7785L686.7703 178.7785C687.5093 177.9375 688.4713 176.9925 689.4853 175.7955 699.6933 163.7395 710.2943 170.9325 711.2723 171.9345 714.5553 175.2985 714.3713 180.8025 714.5663 185.8515L714.7383 196.3985 707.6873 193.4705 712.5033 197.3105 710.1893 210.1725C710.1893 211.3445 708.4993 216.7645 714.7333 217.7155L714.0953 222.1785z"/>
    <path fill="#BA0000" d="M131.4102 99.0213L121.5102 103.6863C115.1582 106.6983 108.3892 103.2943 108.6712 100.2103 109.4382 91.8123 121.7042 85.4413 94.2732 85.9763 68.9872 86.4703 49.5242 82.6543 49.1332 97.6003 49.0382 101.2303 47.9932 141.3963 47.9932 141.3963 47.9932 141.3963 75.3582 142.6263 79.0292 141.8733 88.6462 139.8963 91.1202 135.3173 90.8412 128.2573L101.1262 125.3993 110.8422 171.5843 100.9382 175.2963C92.6472 158.9783 85.0152 161.6483 81.1312 161.5843 80.8122 161.5793 79.2482 161.2423 79.2482 161.2423L78.9852 148.0003 75.8242 158.7313 43.0362 159.2953 52.5692 213.1003C54.0932 220.5913 56.1982 235.6823 70.6582 232.9113L71.0492 245.1913 17.0562 250.9123 17.1562 238.6253C33.3162 238.5643 24.7132 192.0033 23.4892 185.1343L36.4852 182.5003 18.4212 179.6033C18.4212 179.6033 23.1012 98.5453 23.2362 95.6953 23.7602 84.5623 12.6932 87.4203 4.6672 86.1683L4.6672 74.1683 128.9392 66.5483 131.4102 99.0213zM166.9517 119.5174L153.4847 127.4994 169.6187 122.3724 161.4277 190.3674 150.4847 200.4994 164.0957 191.6964 163.5247 221.4064C163.2717 229.5764 167.3307 234.3474 189.8547 233.7824L191.7607 246.3554 114.5817 255.3104 112.5807 243.3124C140.9037 238.3394 139.3407 222.9254 139.3407 220.0694L151.9847 214.9994 137.0507 217.5974 139.3387 194.1714 143.7187 138.3714 144.4807 108.5664 136.9397 109.5564 136.1547 106.4164 140.8147 100.4004C140.8147 100.4004 138.7727 74.6034 139.3807 72.8574L171.1427 72.0954 166.9517 119.5174zM271.6968 251.0965L201.1278 244.1095 200.5798 231.8875 200.9348 229.4745C208.6708 230.3455 225.6448 229.3895 226.4598 219.3825L227.7948 200.4365 239.9848 205.4995 224.9358 193.3885C227.2368 169.7255 227.4138 158.9185 226.6528 156.6335 225.8908 154.3475 221.7008 153.0765 214.0828 156.6325L212.5588 149.5835 221.8888 144.6345 208.9388 146.9195 206.4618 139.8725C215.5328 135.8905 221.5598 132.4455 229.6858 132.4455L254.8368 135.4925 251.7898 175.1065 233.4848 171.4995 248.5488 178.7235C249.1838 209.8295 248.0708 218.5845 249.0238 220.2365 249.9758 221.8855 243.4438 233.4895 273.4108 236.1445L271.6968 251.0965zM409.8589 243.4978L349.6709 243.5898 350.0559 230.8318C368.9219 229.7688 366.8249 219.6568 367.9599 212.4538L382.4849 210.4998 370.2969 208.0408 371.9599 163.1288C370.4359 150.8128 370.7469 144.9468 363.3889 141.3708 358.0269 138.7638 336.2959 135.3168 326.1559 149.3208 323.8309 152.5318 324.1579 157.6068 322.6339 165.9858L308.9849 172.4998 319.7759 170.7478 329.5849 218.0728C329.5849 221.0568 333.4309 232.2478 346.2539 230.7418L346.7289 243.4978 279.9089 242.7898 280.2559 230.7358C309.3899 230.3398 300.6079 207.0608 299.5929 195.0288 299.0959 189.1438 293.4959 157.4158 291.9719 148.0838 290.4489 138.7518 288.3999 134.5548 278.2599 137.0358L275.2129 120.4688 308.7309 114.7548C308.7309 114.7548 310.8269 128.8498 311.0159 131.1338 312.0609 143.7128 317.8729 135.0378 317.8729 135.0378 334.5769 118.9078 360.6289 118.1838 365.0079 118.1838 375.2929 118.1838 397.1619 123.6798 395.9569 150.5528L395.9569 191.9838 395.9569 218.3588C395.9569 221.3418 396.3049 223.7228 397.0049 225.4998 397.7019 227.2778 399.0039 228.6748 400.9079 229.6898 402.0509 230.3888 403.3209 230.9768 404.7169 231.4518 406.1129 231.9288 407.8279 232.3248 409.8589 232.6428L409.8589 243.4978z"/>
    <path fill="#BA0000" d="M462.9956,143.5174 C459.2606,143.9604 450.0776,143.4494 440.0586,149.1444 C437.8166,150.4194 412.5416,169.4354 443.5206,179.4394 C450.3126,181.6314 457.3716,182.0364 464.2946,182.0364 C478.1436,180.3044 482.3456,176.8934 484.6366,174.6774 C503.4946,156.4424 479.0096,141.6214 462.9956,143.5174 L462.9956,143.5174 Z M424.4786,266.5354 C414.3446,289.0094 471.1906,280.7864 487.0126,274.9184 C496.9976,271.2164 505.8506,269.2754 508.4846,267.4994 C510.1066,266.4084 493.1946,267.1194 494.3636,265.8454 C496.5506,263.4664 509.2706,256.7784 505.1956,248.0814 C500.3416,237.7254 483.3456,240.9154 471.2206,243.6524 C459.3796,246.3244 429.5796,255.2244 424.4786,266.5354 L424.4786,266.5354 Z M533.5906,112.8744 L522.9216,119.3974 L541.9866,114.3454 L546.5216,125.5584 L503.8936,140.7054 C506.7076,144.2394 508.8166,147.9544 510.2226,151.8494 C511.6306,155.7444 512.3326,159.7854 512.3326,163.9674 C512.3326,169.4494 510.9996,174.5884 508.3296,179.3854 C505.6606,184.1814 502.1626,188.0584 497.8356,191.0154 C493.4346,194.1174 488.2776,196.5514 482.3626,198.3194 C476.4476,200.0854 470.0286,200.9694 463.1046,200.9694 L446.9846,201.5094 C443.0166,204.1784 441.0326,207.3164 441.0326,208.7584 C441.0326,212.2934 442.2956,214.7284 444.8206,216.0614 C447.3436,217.3974 451.9256,218.1354 458.5596,218.2814 C465.1246,218.4244 471.7606,218.7134 478.4676,219.1454 C485.1756,219.5804 489.9726,219.8304 492.8566,219.9034 C497.0406,220.1914 501.1886,221.1474 505.2996,222.7704 C509.4116,224.3934 512.9816,226.5024 516.0126,229.0994 C519.3286,231.9134 522.0696,235.4664 524.2346,239.7554 C526.3976,244.0484 527.4806,249.0074 527.4806,254.6324 C527.4806,260.6914 526.1636,266.3714 523.5306,271.6734 C520.8966,276.9754 516.8766,281.5734 511.4676,285.4684 C505.7676,289.5074 498.9336,292.6464 490.9646,294.8814 C482.9946,297.1174 468.6226,299.6414 447.8496,302.4544 L425.3456,319.6574 L420.9876,312.2114 L424.9296,304.3204 L414.0636,311.9224 L408.4646,306.4584 L424.4786,297.6944 C416.5726,292.5134 412.6696,289.4774 409.5496,285.1444 C406.9636,281.5524 403.2726,277.8944 403.2726,267.7244 C403.2726,261.4504 405.9426,256.2924 411.2786,252.2524 C416.6176,248.2124 424.9136,246.0134 436.1656,245.6544 L436.1656,242.0804 C433.2306,241.8944 430.5756,241.2424 429.3336,241.1014 C425.6666,240.6854 421.3186,236.9994 421.3186,236.9994 C421.3186,236.9994 417.6516,232.9994 415.4336,227.7144 C414.1366,224.6224 414.2666,223.9144 414.2666,220.4384 C414.2666,217.0484 415.8076,214.0064 417.2846,211.7354 C418.7646,209.4624 420.6566,207.4614 422.9666,205.7294 C424.9846,204.2144 430.8816,201.0234 426.8626,196.3204 C422.4266,191.1254 416.5726,190.6174 410.9356,181.0794 C408.3576,176.7184 407.0586,170.7834 407.0586,162.5604 C407.0586,150.8754 414.1096,141.5534 423.8856,134.5934 C433.6566,127.6324 446.0456,124.1514 461.0496,124.1514 C465.9536,124.1514 470.6966,124.6024 475.2756,125.5044 C477.5576,125.9544 479.5656,126.3794 481.3016,126.7854 C483.0516,127.1914 492.1016,130.8254 493.2966,131.1874 L487.5146,125.6764 L531.3746,106.1904 L533.5906,112.8744 Z"/>
    <path fill="#BA0000" d="M538.3941 208.9607C538.3941 210.9727 537.9991 212.5857 537.2091 213.7967 536.4191 215.0077 531.6531 216.4917 530.8631 216.4157 529.4101 216.2867 528.0211 215.7147 526.6951 214.6947 525.3701 213.6757 523.9941 212.3497 522.5661 210.7187 522.5661 208.4767 523.5471 206.1307 525.5101 203.6837L531.2651 205.4437 527.1541 202.1537 530.8631 201.4277C532.9021 201.4277 534.6661 202.1797 536.1581 203.6837 537.6491 205.1877 538.3941 206.9467 538.3941 208.9607M560.6461 214.4392C557.4091 212.2382 555.3491 209.7052 554.0381 207.2942L559.1941 202.5702 554.7781 204.5002C553.2501 199.3592 553.7011 194.6812 554.0601 191.9272 554.4001 189.3262 555.4771 183.7842 559.1051 177.1762 560.4191 174.7842 565.7801 166.3542 572.1151 164.4052 578.0081 162.5902 585.9111 161.7182 591.8231 171.2852 595.8821 177.8542 592.3021 185.8562 591.2831 186.4772 586.4131 189.4422 578.6211 180.3742 583.2701 176.1252 584.6231 174.8892 590.0581 176.2232 586.5581 172.7492 577.4101 163.6682 568.8101 176.8262 567.4881 179.5752 566.1541 182.3482 565.2051 185.2132 564.1561 190.0772 563.9591 191.2192 563.8231 193.3162 563.7451 194.3652L557.6721 193.9192 561.7081 195.7402C562.1251 199.5912 562.8551 202.8372 564.5491 204.9942 567.2601 208.4452 571.4261 210.4532 574.4171 210.9662 577.2771 211.4592 581.6011 210.9662 587.4301 204.7402L588.1351 206.1362 584.6761 211.8432 589.6731 206.3242 591.3541 208.1072C589.6661 210.3692 586.6301 213.1342 582.9181 215.2772 581.0831 216.3372 578.2911 217.0172 576.4971 217.4102 569.2671 218.9902 563.6391 216.4742 560.6461 214.4392M634.0738 201.0213C634.0738 201.0213 634.7848 200.3213 634.5248 199.3913L639.4968 199.2613 636.7668 197.3183C637.5838 194.7693 637.2238 191.6873 637.1048 189.8923 636.7778 184.9583 635.5838 180.0053 632.9318 174.7543L636.2308 173.3683 630.3208 173.4173C628.8928 169.9753 626.8048 166.1103 621.7568 166.2673 616.7488 166.4223 611.5988 173.0083 610.1338 176.1313 608.9448 178.6653 608.4858 181.5103 609.0848 183.7863L600.7988 182.9603 607.3818 185.4283C607.3818 185.4283 607.3398 188.3313 607.6478 191.5693 608.3658 199.1133 612.7788 203.5253 614.4158 204.8633 624.0578 212.7503 634.2328 204.8593 634.0738 201.0213M645.0028 180.2603C646.7958 184.7123 646.6948 188.5523 647.1018 192.3243 647.1018 192.3243 646.9208 197.2223 643.3318 202.9433 637.6938 211.9313 626.5518 215.6073 622.3688 215.5113 612.3178 215.2773 607.3028 210.3323 605.6228 208.2793 599.6488 200.9763 599.1718 191.2393 598.8188 186.9413 598.2778 180.3503 600.0078 176.0113 600.6528 174.8053 601.2988 173.5993 605.0138 165.5823 610.7458 162.4823 613.5358 160.9733 620.0688 158.8473 626.6498 161.0673 635.0688 163.9083 636.5368 166.5473 639.3808 170.2543 641.1838 172.6063 642.8528 174.9243 645.0028 180.2603"/>
    <g transform="translate(646 162.324)">
      <mask id="fling-h" fill="#fff">
        <use xlink:href="#fling-g"/>
      </mask>
      <path fill="#BA0000" d="M72.7623,54.1875 L53.3513,51.2755 L53.6133,46.7245 C57.7273,46.9395 59.2003,42.7755 59.2003,41.6015 L63.5273,19.3505 C63.9353,14.8395 64.2313,12.9955 61.6623,10.9775 C60.1673,9.8015 56.1583,8.4085 49.8333,14.0945 C49.1873,14.6745 46.0663,19.4165 46.2493,27.4905 L36.7793,27.7275 L43.8653,28.9585 C42.0303,37.9805 41.6923,40.9535 41.6923,40.9535 C41.2953,42.9025 39.4603,48.4885 47.3693,48.7245 L46.7873,53.1875 L23.9643,51.6585 L25.3433,46.5005 C31.5713,47.3065 32.1263,42.8635 32.1263,41.6015 L35.3053,18.5865 C35.7913,16.6655 36.3133,13.2565 31.3873,10.7935 C26.9843,8.5915 16.7093,11.8945 17.2593,19.8605 L19.7063,41.1055 C20.1953,45.1035 27.0353,43.5975 26.9843,43.4705 L26.8003,45.4705 L24.4153,46.0215 L23.3203,49.4845 L3.1313,52.2595 L2.4313,47.7245 C3.0943,47.6735 9.5533,46.5725 8.3893,40.7615 L7.7393,37.2575 C7.7393,37.2575 7.3543,24.2445 5.2573,13.3405 C5.2573,13.3405 6.9493,12.2975 6.5163,11.3405 C6.0823,10.3855 5.5603,9.6395 4.9493,9.1045 C4.4903,8.7225 3.9093,8.4105 3.2083,8.1675 C2.5083,7.9255 1.7373,7.7535 0.8963,7.6515 L0.8963,4.2105 L19.1333,2.9875 L19.7063,7.3285 L17.8603,10.3285 C18.4103,9.7175 20.3783,8.4085 22.0303,6.9405 C23.1153,5.9755 33.0383,-0.3995 40.9453,4.6315 C43.0493,5.9695 44.2783,8.2385 45.0933,10.7875 L45.4373,10.7875 C46.1763,9.9465 47.1383,9.0015 48.1523,7.8045 C58.3603,-4.2515 68.9613,2.9415 69.9393,3.9435 C73.2223,7.3075 73.0383,12.8115 73.2333,17.8605 L73.4053,28.4075 L66.3543,25.4795 L71.1703,29.3195 L68.8563,42.1815 C68.8563,43.3535 67.1663,48.7735 73.4003,49.7245 L72.7623,54.1875 Z" mask="url(#fling-h)"/>
    </g>
  </g>
</svg>
