<svg id="svg" version="1.1" width="400" height="183.33333333333334" viewBox="0 0 400 183.33333333333334" xmlns="http://www.w3.org/2000/svg" xmlns:xlink="http://www.w3.org/1999/xlink" ><g id="svgg"><path id="path0" d="M86.749 1.663 C 75.355 4.636,69.772 10.035,68.146 19.649 C 67.978 20.645,67.321 21.189,65.977 21.448 C 56.086 23.354,48.180 27.558,40.973 34.745 C 19.892 55.765,24.767 85.657,54.141 115.474 C 57.995 119.386,58.275 119.742,58.024 120.396 C 57.252 122.407,46.015 122.997,36.039 121.550 C 24.237 119.838,15.006 122.220,8.205 128.733 C 4.486 132.295,3.002 134.839,0.437 142.045 C -0.109 143.577,-0.153 151.310,0.374 153.049 C 3.057 161.905,5.443 165.752,10.465 169.318 C 15.162 172.653,19.956 174.236,23.669 173.678 C 27.455 173.109,27.479 173.121,28.415 176.055 C 29.435 179.253,29.728 178.986,30.908 173.781 C 32.219 168.003,32.504 168.452,26.598 166.993 C 20.935 165.593,20.510 165.688,22.810 167.838 C 25.334 170.197,24.695 171.137,20.562 171.145 C 9.926 171.167,1.588 157.068,5.057 144.928 C 9.276 130.168,22.334 125.700,43.164 131.891 C 54.907 135.381,63.997 136.834,72.444 136.573 C 76.891 136.435,76.111 136.119,79.897 139.596 C 88.988 147.946,94.193 154.825,99.825 165.931 C 101.341 168.920,101.282 168.908,103.233 166.634 C 105.025 164.547,111.074 158.642,112.975 157.125 C 118.494 152.720,121.888 150.675,135.718 143.418 C 146.306 137.861,146.083 138.002,145.303 137.371 C 145.077 137.187,144.146 136.903,143.206 136.731 C 139.926 136.128,138.368 135.187,137.925 133.541 C 137.689 132.664,137.754 132.216,138.412 130.215 C 138.876 128.806,138.884 128.528,138.541 125.711 C 138.448 124.942,138.522 124.548,138.973 123.418 C 139.591 121.868,139.887 120.373,140.663 114.876 C 140.963 112.743,141.455 109.566,141.756 107.815 C 142.056 106.064,142.435 103.599,142.598 102.338 C 143.015 99.107,143.285 97.811,144.139 94.918 C 144.683 93.074,144.888 92.050,144.888 91.170 C 144.888 90.504,145.018 89.340,145.177 88.583 C 145.397 87.536,145.437 86.683,145.346 85.007 C 145.226 82.808,145.226 82.805,145.882 81.009 C 146.243 80.021,146.825 78.082,147.176 76.699 C 147.527 75.317,148.020 73.691,148.272 73.086 C 148.626 72.237,148.733 71.650,148.741 70.518 C 148.769 66.409,149.958 61.788,151.195 60.977 C 153.011 59.787,159.469 59.742,162.174 60.900 C 163.713 61.560,165.581 61.811,169.555 61.893 C 171.652 61.937,172.325 62.020,173.223 62.349 C 175.279 63.102,177.206 63.641,177.841 63.641 C 178.691 63.641,181.434 64.258,183.642 64.945 C 184.819 65.312,186.088 65.556,187.311 65.650 C 188.566 65.747,189.456 65.921,190.021 66.181 C 190.484 66.393,191.296 66.659,191.824 66.772 C 194.748 67.399,196.187 71.279,194.793 74.779 C 194.401 75.764,193.690 77.685,193.214 79.046 C 191.565 83.767,190.013 86.059,188.921 85.384 C 188.839 85.333,187.749 85.165,186.499 85.010 C 182.962 84.571,181.259 84.268,179.295 83.728 C 173.873 82.238,171.820 84.355,173.489 89.712 C 174.132 91.776,174.628 92.071,179.000 92.988 C 187.057 94.677,189.267 97.196,186.377 101.393 C 185.706 102.367,185.698 102.399,185.668 104.330 C 185.637 106.346,185.068 108.558,184.195 110.054 C 183.209 111.742,179.637 112.056,174.966 110.864 C 174.411 110.723,173.420 110.571,172.765 110.526 C 171.935 110.470,171.205 110.271,170.360 109.872 C 168.368 108.928,168.182 109.102,166.923 113.096 C 165.751 116.812,166.136 118.906,168.065 119.313 C 168.380 119.380,169.257 119.667,170.014 119.952 C 170.770 120.236,171.990 120.695,172.725 120.972 C 174.422 121.611,174.341 121.648,178.114 118.499 C 193.800 105.405,201.625 91.405,201.599 76.479 C 201.576 63.531,194.793 50.016,184.124 41.657 C 180.208 38.589,180.339 38.786,180.789 36.624 C 182.739 27.242,177.562 18.127,167.175 12.657 C 164.782 11.397,164.358 11.810,165.791 14.006 C 170.126 20.645,169.834 25.944,164.851 31.067 L 163.800 32.149 161.726 31.985 C 148.987 30.975,134.432 35.165,121.247 43.636 C 118.334 45.507,118.469 45.548,114.682 41.634 C 106.198 32.864,97.169 26.563,88.502 23.364 C 85.860 22.389,85.652 22.209,84.612 19.991 C 81.498 13.349,82.192 9.482,87.433 4.276 C 90.598 1.132,90.482 0.689,86.749 1.663 M97.954 47.417 C 101.414 48.873,104.056 49.344,106.104 48.869 C 107.512 48.542,108.124 48.664,110.943 49.831 C 112.493 50.472,112.524 50.477,113.744 50.259 C 114.806 50.069,115.125 50.081,116.040 50.349 C 116.624 50.520,117.536 50.773,118.066 50.912 C 118.597 51.051,119.504 51.404,120.084 51.696 C 120.663 51.988,121.711 52.405,122.413 52.621 C 123.114 52.837,124.373 53.388,125.211 53.844 C 126.048 54.301,127.166 54.803,127.695 54.960 C 128.223 55.117,129.193 55.515,129.848 55.845 C 130.504 56.175,131.577 56.671,132.233 56.946 C 136.166 58.599,140.477 63.186,140.764 66.025 C 140.943 67.802,141.368 70.274,141.875 72.491 C 142.379 74.693,142.312 75.871,141.564 77.927 C 141.358 78.492,141.027 79.419,140.829 79.986 C 139.431 83.980,133.751 89.384,129.757 90.518 C 126.117 91.552,126.052 91.962,129.046 95.021 C 130.093 96.090,130.959 97.122,130.971 97.313 C 130.983 97.505,130.979 98.116,130.962 98.670 C 130.907 100.428,131.552 102.411,132.741 104.145 L 133.792 105.676 133.792 107.387 L 133.792 109.097 132.650 111.361 C 130.522 115.577,130.135 115.930,127.239 116.293 C 124.878 116.589,124.290 117.106,124.261 118.908 C 124.245 119.915,124.167 120.163,123.670 120.790 C 123.114 121.492,122.996 121.778,123.041 122.311 C 123.103 123.039,127.808 122.015,129.564 120.892 C 130.919 120.025,132.041 120.306,132.322 121.584 C 132.556 122.647,131.890 123.345,127.573 126.567 C 126.574 127.313,125.556 128.079,125.312 128.270 C 124.515 128.892,122.273 129.686,120.851 129.849 C 120.065 129.939,118.834 130.259,118.008 130.587 C 114.558 131.960,111.153 132.250,109.230 131.336 C 108.179 130.835,107.937 130.798,104.965 130.687 C 101.862 130.571,99.476 130.267,98.395 129.849 C 98.093 129.732,97.182 129.567,96.372 129.483 C 95.562 129.398,94.369 129.151,93.722 128.933 C 92.711 128.592,92.309 128.553,90.885 128.657 C 89.304 128.773,89.162 128.752,87.906 128.213 C 86.842 127.758,86.331 127.648,85.277 127.648 C 84.215 127.648,83.724 127.541,82.678 127.082 C 81.323 126.487,80.085 126.436,76.690 126.836 C 73.813 127.176,72.215 125.735,71.884 122.501 L 71.693 120.642 72.246 119.459 C 72.905 118.051,73.361 115.821,73.361 114.002 C 73.361 113.278,73.557 111.657,73.798 110.400 C 74.038 109.144,74.296 107.662,74.371 107.107 C 74.447 106.552,74.704 105.444,74.943 104.644 C 75.474 102.871,75.487 102.074,75.011 100.413 C 74.512 98.667,74.519 98.620,75.575 96.461 C 76.541 94.484,77.030 92.274,78.043 85.302 C 78.360 83.113,78.941 80.726,79.881 77.741 C 80.245 76.588,80.616 74.927,80.710 74.030 C 80.804 73.138,80.942 72.313,81.016 72.196 C 81.090 72.080,81.204 70.665,81.270 69.051 C 81.396 65.939,83.012 57.482,84.353 52.912 C 84.650 51.903,85.024 50.600,85.186 50.015 C 85.933 47.317,87.976 46.471,92.051 47.169 C 93.128 47.354,93.504 47.342,94.484 47.093 C 95.826 46.751,96.529 46.817,97.954 47.417 M110.408 70.632 C 109.223 71.103,108.575 72.305,108.296 74.553 C 108.233 75.057,108.056 76.065,107.903 76.792 C 107.249 79.890,109.410 81.123,112.687 79.520 C 117.679 77.077,115.506 68.605,110.408 70.632 M104.047 98.111 C 103.404 98.503,103.173 98.855,102.800 100.010 C 102.664 100.433,102.344 101.275,102.091 101.880 C 101.077 104.298,100.831 108.525,101.616 110.063 C 103.215 113.198,108.455 112.563,110.038 109.042 C 110.313 108.432,110.764 107.602,111.041 107.199 C 111.701 106.237,111.625 105.486,110.511 101.973 C 109.521 98.852,109.457 98.773,107.454 98.201 C 105.578 97.666,104.809 97.646,104.047 98.111 M120.581 105.617 C 120.175 105.801,119.391 106.319,118.839 106.767 C 118.287 107.215,117.444 107.850,116.965 108.178 C 115.916 108.896,115.912 108.949,116.777 110.205 C 118.235 112.322,117.159 114.257,114.524 114.259 C 113.026 114.260,112.704 114.510,112.845 115.561 C 113.160 117.912,115.836 117.966,117.804 115.662 C 118.315 115.064,119.132 114.395,119.818 114.011 C 121.793 112.906,121.962 112.651,121.962 110.773 C 121.962 108.964,122.237 107.989,123.062 106.867 C 123.675 106.034,123.759 105.552,123.323 105.384 C 122.751 105.165,121.307 105.287,120.581 105.617 M84.487 109.613 C 84.187 109.913,84.391 110.599,84.869 110.896 C 86.202 111.723,86.218 111.762,86.086 113.798 C 85.904 116.618,86.460 117.399,88.128 116.661 C 88.589 116.457,89.272 116.237,89.646 116.171 C 90.789 115.971,91.212 115.604,91.078 114.929 C 90.399 111.509,90.528 111.692,88.537 111.315 C 87.714 111.159,87.273 110.937,86.531 110.303 C 85.642 109.545,84.830 109.271,84.487 109.613 M240.169 121.915 C 238.018 122.304,237.693 122.730,237.216 125.776 C 236.818 128.312,236.670 135.281,236.937 138.889 C 237.058 140.524,237.173 144.750,237.193 148.281 L 237.231 154.700 236.772 155.509 C 235.455 157.833,232.707 157.518,231.365 154.888 L 230.812 153.804 230.903 147.558 C 231.153 130.535,230.797 124.291,229.503 122.996 C 228.227 121.720,218.243 122.070,217.522 123.416 C 216.985 124.420,217.436 150.814,218.063 155.010 C 219.645 165.606,224.599 169.741,234.738 168.928 C 248.886 167.794,252.451 160.045,250.225 135.259 C 250.062 133.443,249.911 129.915,249.889 127.418 C 249.845 122.352,249.852 122.381,248.534 121.935 C 247.638 121.632,241.808 121.618,240.169 121.915 M272.627 121.945 C 271.496 122.081,268.403 122.582,266.733 122.900 C 264.975 123.236,260.909 126.208,259.361 128.289 C 258.287 129.733,256.283 133.918,255.234 136.910 C 253.833 140.902,253.807 141.063,254.030 144.227 C 254.137 145.750,254.175 147.409,254.114 147.914 C 253.713 151.219,256.578 161.277,258.754 164.207 C 261.057 167.307,265.197 170.371,267.859 170.945 C 271.535 171.737,277.285 171.061,279.455 169.581 C 279.936 169.253,280.963 168.551,281.737 168.022 C 283.373 166.902,284.378 165.686,285.247 163.770 C 286.527 160.951,286.609 160.438,286.184 157.891 C 286.096 157.365,286.187 157.027,286.629 156.240 C 287.889 153.995,288.189 152.641,288.190 149.198 C 288.192 143.210,287.267 141.915,283.412 142.510 C 282.450 142.659,281.361 142.695,280.386 142.611 C 272.755 141.952,271.619 142.515,271.347 147.088 C 271.155 150.338,271.884 152.150,273.641 152.791 C 275.612 153.509,275.915 154.544,274.805 156.764 C 273.847 158.679,272.536 159.068,270.520 158.036 C 268.574 157.040,267.809 154.844,267.759 150.115 C 267.651 139.781,267.674 139.526,268.950 136.863 C 270.638 133.341,273.472 132.402,275.255 134.774 C 277.083 137.207,277.211 137.226,281.216 135.655 C 282.847 135.015,284.569 134.350,285.042 134.176 C 287.570 133.251,287.763 131.910,285.760 129.207 C 285.387 128.702,284.680 127.681,284.190 126.938 C 283.699 126.194,283.002 125.385,282.640 125.139 C 278.812 122.543,275.764 121.571,272.627 121.945 M191.463 122.988 C 189.893 123.454,189.977 123.243,187.896 131.958 C 187.510 133.572,186.964 135.815,186.682 136.944 C 186.400 138.072,186.035 139.970,185.870 141.162 C 185.706 142.354,185.362 144.278,185.107 145.438 C 184.375 148.761,184.172 149.827,183.975 151.398 C 183.874 152.205,183.496 153.878,183.135 155.116 C 181.498 160.725,180.795 165.606,181.474 166.643 C 182.754 168.596,185.486 167.316,184.594 165.182 C 184.188 164.211,184.253 163.699,184.899 162.783 C 185.460 161.987,185.479 161.894,185.512 159.889 C 185.537 158.317,185.634 157.585,185.914 156.851 C 186.366 155.667,186.317 155.715,187.285 155.499 C 187.722 155.402,188.370 155.122,188.726 154.877 C 189.083 154.631,189.801 154.349,190.323 154.250 C 192.859 153.769,194.832 152.288,195.029 150.717 C 195.623 145.961,196.099 144.314,196.911 144.192 C 197.662 144.079,198.000 144.906,198.805 148.816 C 199.395 151.683,199.787 152.151,201.433 151.945 C 202.216 151.847,202.469 151.889,202.844 152.181 C 203.679 152.829,204.196 153.013,205.560 153.146 C 207.236 153.311,208.203 153.916,208.844 155.203 C 210.000 157.521,211.436 156.241,210.746 153.508 C 210.529 152.650,210.237 151.282,210.096 150.468 C 209.956 149.654,209.553 147.921,209.201 146.617 C 208.367 143.529,208.076 142.027,207.514 137.918 C 206.887 133.336,206.834 133.114,205.784 130.615 C 205.232 129.305,204.793 127.930,204.683 127.170 C 204.305 124.574,203.514 123.247,202.135 122.896 C 201.052 122.621,192.449 122.694,191.463 122.988 M334.250 123.596 C 333.847 123.670,332.961 123.692,332.282 123.645 C 331.165 123.568,330.973 123.609,330.282 124.066 C 329.603 124.516,329.423 124.556,328.674 124.424 C 326.262 124.001,325.428 124.327,324.582 126.023 C 323.717 127.758,323.484 131.991,324.179 133.357 C 324.522 134.030,324.810 134.096,326.817 133.958 C 331.056 133.666,332.713 135.234,332.436 139.276 C 331.905 147.042,331.806 156.810,332.235 159.268 C 332.486 160.707,332.484 160.976,332.218 162.089 C 331.468 165.228,331.959 167.873,333.479 168.880 C 335.323 170.100,344.245 169.171,344.804 167.700 C 345.019 167.135,345.019 156.231,344.805 147.181 C 344.592 138.163,344.844 136.109,346.366 134.451 L 346.971 133.792 349.452 133.792 C 352.668 133.792,352.568 133.880,352.655 130.960 C 352.724 128.632,352.439 125.287,352.120 124.691 C 351.778 124.052,351.074 123.965,344.807 123.794 C 341.422 123.702,337.827 123.589,336.818 123.544 C 335.809 123.500,334.654 123.523,334.250 123.596 M153.508 125.437 C 148.268 125.599,147.300 126.660,148.120 131.343 C 148.456 133.262,148.371 134.623,147.794 136.583 C 147.615 137.190,147.613 137.544,147.786 138.233 C 147.907 138.716,148.092 140.498,148.197 142.194 C 148.385 145.244,148.376 145.380,147.825 148.071 C 147.730 148.537,147.773 149.165,147.951 149.905 C 148.157 150.763,148.233 152.582,148.271 157.542 C 148.349 167.626,148.465 167.994,151.475 167.720 C 152.341 167.641,154.122 167.568,155.433 167.557 C 158.864 167.529,159.283 167.168,159.284 164.237 C 159.285 161.118,158.393 160.533,154.516 161.110 C 153.181 161.309,152.510 160.773,152.640 159.613 C 152.761 158.545,152.770 158.541,153.902 159.120 C 154.630 159.491,155.174 159.627,156.010 159.643 C 156.735 159.657,157.369 159.789,157.789 160.016 C 159.069 160.705,159.652 159.422,159.093 157.143 C 158.782 155.871,158.782 155.773,159.114 154.441 C 159.730 151.967,160.401 151.889,161.604 154.153 C 162.417 155.682,162.709 155.921,163.594 155.779 C 164.884 155.573,165.120 156.240,164.512 158.368 C 163.836 160.730,164.984 165.581,166.558 167.012 C 168.732 168.990,171.565 167.982,172.296 164.970 C 172.468 164.264,172.850 163.321,173.145 162.875 C 173.769 161.933,173.784 161.805,173.377 160.950 C 173.082 160.332,173.087 160.282,173.508 159.488 C 174.190 158.202,173.503 157.563,172.138 158.214 C 171.310 158.609,171.027 158.390,170.638 157.050 C 170.455 156.419,169.946 155.521,169.246 154.592 C 168.002 152.941,167.834 152.331,168.173 150.697 C 168.529 148.982,169.530 149.090,170.986 151.000 C 171.844 152.125,172.341 151.863,172.025 150.453 C 171.770 149.316,171.896 148.871,172.676 148.161 C 173.443 147.464,173.564 146.454,172.948 145.896 C 172.518 145.507,172.484 145.059,172.835 144.374 C 172.974 144.102,173.147 143.525,173.219 143.092 C 173.428 141.834,174.004 141.573,175.079 142.250 C 176.570 143.190,176.664 143.594,175.643 144.685 C 174.853 145.530,174.782 145.681,174.782 146.531 C 174.782 147.095,174.644 147.715,174.428 148.117 C 173.695 149.486,174.600 150.033,176.231 149.207 C 177.639 148.493,177.783 148.167,177.671 145.937 C 177.602 144.547,177.671 143.517,177.941 141.953 C 178.232 140.265,178.277 139.479,178.166 138.010 C 178.007 135.890,178.011 136.230,178.087 131.958 C 178.201 125.511,177.954 125.263,171.410 125.264 C 166.294 125.264,166.282 125.277,166.092 130.529 C 166.012 132.744,166.035 134.205,166.158 134.617 C 166.472 135.678,166.751 140.177,166.538 140.738 C 166.058 142.000,165.173 141.348,164.815 139.470 C 164.681 138.767,164.234 137.160,163.822 135.900 C 163.410 134.640,162.681 132.370,162.203 130.857 C 160.710 126.137,159.948 125.198,157.686 125.298 C 157.254 125.317,155.374 125.380,153.508 125.437 M294.635 125.685 C 291.054 126.002,290.201 127.835,291.116 133.242 C 291.311 134.391,291.348 135.171,291.238 135.809 C 291.003 137.182,291.033 138.643,291.315 139.573 C 291.642 140.650,291.758 152.703,291.463 154.883 C 291.224 156.645,291.533 166.258,291.860 167.253 C 292.275 168.514,292.641 168.588,297.605 168.406 C 302.354 168.232,302.669 168.160,303.163 167.123 C 303.468 166.483,303.747 160.602,303.519 159.625 C 302.767 156.404,303.235 152.338,304.687 149.474 C 305.122 148.615,306.017 148.747,307.153 149.838 C 308.857 151.475,309.330 153.244,309.036 156.873 C 308.779 160.048,309.154 166.074,309.672 167.074 C 310.292 168.274,311.982 168.474,317.649 168.014 C 320.840 167.755,321.496 166.650,320.959 162.438 C 320.834 161.455,320.839 160.565,320.974 159.596 C 321.227 157.793,321.037 154.775,320.551 152.866 C 320.154 151.302,320.170 148.362,320.593 145.621 C 320.839 144.028,320.611 127.762,320.331 126.908 C 319.943 125.726,319.326 125.548,315.360 125.475 C 311.081 125.396,309.890 125.572,309.144 126.394 L 308.613 126.979 308.709 133.228 C 308.826 140.951,308.764 141.139,306.146 140.992 C 303.519 140.844,303.294 140.261,303.114 133.150 C 302.949 126.624,302.921 126.430,302.092 125.873 C 301.422 125.423,298.445 125.348,294.635 125.685 M343.099 129.221 C 344.035 129.601,343.833 130.612,342.409 132.693 C 342.132 133.097,341.721 133.819,341.496 134.297 C 340.986 135.384,340.557 135.428,339.454 134.506 C 338.590 133.784,338.643 133.788,335.167 134.178 L 334.249 134.281 333.470 133.324 C 332.292 131.876,332.377 131.640,334.021 131.785 C 336.203 131.978,337.874 131.149,339.167 129.233 C 339.538 128.684,341.759 128.677,343.099 129.221 M376.616 129.286 C 375.120 129.648,374.776 130.288,373.765 134.605 C 372.801 138.716,372.572 139.364,371.999 139.581 C 370.928 139.988,370.403 139.175,369.922 136.362 C 368.793 129.756,368.493 129.485,362.306 129.483 C 357.657 129.481,357.696 129.409,359.735 134.338 C 360.487 136.156,361.689 139.170,362.405 141.036 C 363.121 142.902,364.040 145.048,364.448 145.805 C 364.855 146.561,365.524 148.047,365.933 149.106 L 366.677 151.032 366.714 158.738 C 366.762 168.817,366.249 167.907,371.816 167.778 C 375.608 167.690,376.229 167.553,376.654 166.713 C 377.098 165.835,376.980 153.764,376.514 152.419 C 376.091 151.197,376.203 150.737,377.135 149.867 C 377.389 149.630,378.056 148.392,378.617 147.116 C 380.557 142.704,381.892 139.472,382.341 138.102 C 382.589 137.345,383.042 136.149,383.349 135.442 C 384.979 131.689,385.179 129.961,384.006 129.770 C 380.401 129.180,377.766 129.008,376.616 129.286 M240.224 133.385 C 240.488 133.704,240.203 134.119,239.776 134.037 C 239.290 133.944,239.196 133.150,239.671 133.150 C 239.868 133.150,240.116 133.256,240.224 133.385 M244.927 135.599 C 245.587 136.081,245.075 137.918,244.281 137.918 C 243.417 137.918,243.114 136.511,243.825 135.801 C 244.344 135.282,244.464 135.260,244.927 135.599 M343.025 136.268 C 342.966 137.989,342.618 140.290,342.323 140.913 C 341.873 141.861,340.395 142.295,339.766 141.665 C 339.371 141.270,339.386 141.211,340.147 140.104 C 340.703 139.295,340.838 138.910,340.944 137.832 C 341.127 135.964,341.578 135.299,342.595 135.398 C 343.015 135.439,343.051 135.513,343.025 136.268 M334.950 136.079 C 335.369 136.289,335.619 136.297,336.274 136.122 C 337.236 135.864,337.797 136.030,338.353 136.737 C 339.125 137.719,338.489 138.469,336.884 138.469 C 335.757 138.469,335.442 138.706,335.442 139.557 C 335.442 139.876,335.557 139.936,336.163 139.936 C 337.394 139.936,337.862 140.860,337.061 141.712 C 336.290 142.533,335.143 142.164,334.963 141.036 C 334.889 140.573,334.730 140.276,334.521 140.210 C 333.418 139.860,332.974 138.574,333.419 137.021 C 333.598 136.398,334.132 135.660,334.329 135.765 C 334.386 135.796,334.666 135.937,334.950 136.079 M240.348 139.818 C 240.919 141.254,240.816 141.852,239.962 142.066 C 238.171 142.516,237.797 140.534,239.357 138.859 C 239.821 138.361,239.737 138.280,240.348 139.818 M248.143 139.477 C 248.330 139.968,248.105 140.853,247.794 140.853 C 247.533 140.853,246.859 139.932,246.859 139.575 C 246.859 138.850,247.875 138.772,248.143 139.477 M294.544 151.582 C 294.544 151.733,294.466 151.857,294.371 151.857 C 294.140 151.857,293.974 151.571,294.121 151.424 C 294.327 151.217,294.544 151.298,294.544 151.582 M176.052 153.677 C 175.416 154.313,175.389 154.580,175.896 155.225 C 176.603 156.124,177.717 155.610,177.717 154.384 C 177.717 153.260,176.841 152.888,176.052 153.677 M203.699 156.887 C 203.559 157.252,204.077 157.665,204.342 157.400 C 204.595 157.147,204.406 156.625,204.060 156.625 C 203.917 156.625,203.754 156.743,203.699 156.887 M210.912 159.560 C 210.466 160.007,210.443 160.842,210.832 162.494 C 211.180 163.969,211.086 164.373,210.285 164.846 C 208.497 165.901,209.016 167.852,210.933 167.278 C 213.283 166.574,213.846 165.102,212.993 161.893 C 212.325 159.384,211.742 158.730,210.912 159.560 M175.745 162.697 C 172.841 164.134,173.292 167.394,176.271 166.501 C 177.324 166.185,177.568 165.808,177.674 164.329 C 177.814 162.376,177.290 161.932,175.745 162.697 " stroke="none" fill="#48181c" fill-rule="evenodd"></path><path id="path1" d="M87.024 1.090 C 75.692 3.991,69.712 9.391,67.865 18.393 C 67.518 20.080,67.254 20.266,64.282 20.919 C 47.549 24.598,33.315 37.431,28.881 52.838 C 23.310 72.192,31.802 94.012,53.507 116.113 C 57.231 119.905,57.468 120.268,56.534 120.741 C 53.813 122.118,45.298 122.277,36.314 121.118 C 23.036 119.407,14.568 121.688,7.333 128.927 C 3.781 132.481,-0.036 139.621,0.007 142.631 L 0.015 143.145 0.261 142.687 C 0.396 142.435,0.568 141.939,0.643 141.586 C 0.719 141.233,1.258 139.761,1.843 138.313 C 7.164 125.139,19.406 119.137,36.039 121.550 C 46.015 122.997,57.252 122.407,58.024 120.396 C 58.275 119.742,57.995 119.386,54.141 115.474 C 32.881 93.893,24.480 72.806,29.546 53.740 C 33.757 37.894,48.514 24.813,65.977 21.448 C 67.321 21.189,67.978 20.645,68.146 19.649 C 69.764 10.076,75.310 4.675,86.540 1.733 C 90.529 0.688,90.663 1.068,87.433 4.276 C 82.192 9.482,81.498 13.349,84.612 19.991 C 85.652 22.209,85.860 22.389,88.502 23.364 C 97.169 26.563,106.198 32.864,114.682 41.634 C 118.469 45.548,118.334 45.507,121.247 43.636 C 134.432 35.165,148.987 30.975,161.726 31.985 L 163.800 32.149 164.851 31.067 C 169.834 25.944,170.126 20.645,165.791 14.006 C 164.358 11.810,164.782 11.397,167.175 12.657 C 177.562 18.127,182.739 27.242,180.789 36.624 C 180.339 38.786,180.208 38.589,184.124 41.657 C 194.793 50.016,201.576 63.531,201.599 76.479 C 201.625 91.405,193.800 105.405,178.114 118.499 C 174.341 121.648,174.422 121.611,172.725 120.972 C 171.990 120.695,170.770 120.236,170.014 119.952 C 169.257 119.667,168.380 119.380,168.065 119.313 C 166.136 118.906,165.751 116.812,166.923 113.096 C 168.182 109.102,168.368 108.928,170.360 109.872 C 171.205 110.271,171.935 110.470,172.765 110.526 C 173.420 110.571,174.411 110.723,174.966 110.864 C 179.637 112.056,183.209 111.742,184.195 110.054 C 185.068 108.558,185.637 106.346,185.668 104.330 C 185.698 102.399,185.706 102.367,186.377 101.393 C 189.267 97.196,187.057 94.677,179.000 92.988 C 174.628 92.071,174.132 91.776,173.489 89.712 C 171.820 84.355,173.873 82.238,179.295 83.728 C 181.259 84.268,182.962 84.571,186.499 85.010 C 187.749 85.165,188.839 85.333,188.921 85.384 C 190.013 86.059,191.565 83.767,193.214 79.046 C 193.690 77.685,194.401 75.764,194.793 74.779 C 195.626 72.687,195.657 72.215,195.071 70.494 C 194.224 68.004,193.455 67.122,191.824 66.772 C 191.296 66.659,190.484 66.393,190.021 66.181 C 189.456 65.921,188.566 65.747,187.311 65.650 C 186.088 65.556,184.819 65.312,183.642 64.945 C 181.434 64.258,178.691 63.641,177.841 63.641 C 177.206 63.641,175.279 63.102,173.223 62.349 C 172.325 62.020,171.652 61.937,169.555 61.893 C 165.581 61.811,163.713 61.560,162.174 60.900 C 159.469 59.742,153.011 59.787,151.195 60.977 C 149.958 61.788,148.769 66.409,148.741 70.518 C 148.733 71.650,148.626 72.237,148.272 73.086 C 148.020 73.691,147.527 75.317,147.176 76.699 C 146.825 78.082,146.243 80.021,145.882 81.009 C 145.226 82.805,145.226 82.808,145.346 85.007 C 145.437 86.683,145.397 87.536,145.177 88.583 C 145.018 89.340,144.888 90.504,144.888 91.170 C 144.888 92.050,144.683 93.074,144.139 94.918 C 143.285 97.811,143.015 99.107,142.598 102.338 C 142.435 103.599,142.056 106.064,141.756 107.815 C 141.455 109.566,140.963 112.743,140.663 114.876 C 139.887 120.373,139.591 121.868,138.973 123.418 C 138.522 124.548,138.448 124.942,138.541 125.711 C 138.884 128.528,138.876 128.806,138.412 130.215 C 137.754 132.216,137.689 132.664,137.925 133.541 C 138.368 135.187,139.926 136.128,143.206 136.731 C 144.146 136.903,145.077 137.187,145.303 137.371 C 146.083 138.002,146.306 137.861,135.718 143.418 C 121.888 150.675,118.494 152.720,112.975 157.125 C 111.074 158.642,105.025 164.547,103.233 166.634 C 101.282 168.908,101.341 168.920,99.825 165.931 C 94.193 154.825,88.988 147.946,79.897 139.596 C 76.111 136.119,76.891 136.435,72.444 136.573 C 63.997 136.834,54.907 135.381,43.164 131.891 C 30.422 128.104,21.318 128.157,14.376 132.059 C 9.671 134.703,5.225 141.858,4.385 148.137 C 2.876 159.414,11.138 171.165,20.562 171.145 C 24.695 171.137,25.334 170.197,22.810 167.838 C 20.510 165.688,20.935 165.593,26.598 166.993 C 32.504 168.452,32.219 168.003,30.908 173.781 C 29.728 178.986,29.435 179.253,28.415 176.055 C 27.479 173.121,27.455 173.109,23.669 173.678 C 18.126 174.511,9.777 170.270,5.318 164.356 C 3.639 162.129,1.585 157.525,0.641 153.874 C 0.253 152.371,-0.048 151.842,0.067 152.866 C 0.718 158.624,4.770 165.664,9.471 169.202 C 15.143 173.471,19.268 174.668,25.792 173.938 C 27.213 173.779,27.555 174.313,28.325 177.900 C 29.173 181.847,29.800 181.036,31.367 173.968 C 32.798 167.513,33.223 168.128,26.111 166.351 C 19.659 164.739,18.180 164.877,20.765 166.850 C 24.640 169.807,24.568 170.666,20.449 170.644 C 8.756 170.584,0.955 153.937,6.863 141.652 C 12.817 129.269,23.666 126.621,43.925 132.606 C 54.507 135.732,62.171 137.013,70.808 137.097 C 76.280 137.150,75.887 137.038,78.251 139.232 C 88.613 148.850,93.495 155.258,99.290 166.846 C 100.951 170.168,101.296 170.244,103.408 167.759 C 110.524 159.386,118.164 153.616,131.133 146.817 C 133.604 145.521,137.730 143.343,140.303 141.977 C 146.647 138.606,146.614 138.622,146.962 138.756 C 147.655 139.022,148.085 144.969,147.555 146.960 C 147.221 148.215,147.196 149.143,147.474 150.024 C 147.601 150.427,147.692 153.048,147.720 157.084 C 147.794 167.670,148.102 168.605,151.398 168.248 C 152.105 168.171,153.838 168.099,155.250 168.088 C 159.430 168.054,160.251 167.074,159.724 162.752 C 159.551 161.341,159.548 160.653,159.707 159.859 C 159.879 159.003,159.862 158.536,159.612 157.250 C 158.951 153.854,160.166 152.355,161.475 154.953 C 162.183 156.359,162.668 156.809,163.478 156.809 L 164.013 156.809 163.889 157.863 C 163.520 161.005,163.498 160.766,164.408 163.503 C 165.404 166.501,165.841 167.242,167.021 167.934 C 168.628 168.876,171.140 168.349,172.302 166.826 C 172.929 166.004,173.083 166.001,173.840 166.804 C 174.546 167.553,174.854 167.584,176.406 167.060 C 177.848 166.573,178.089 166.214,178.216 164.371 C 178.387 161.872,177.786 161.333,175.664 162.082 C 174.313 162.558,173.644 161.355,174.290 159.612 C 174.799 158.237,174.252 157.507,172.601 157.359 C 171.578 157.267,171.576 157.266,171.145 156.350 C 170.908 155.846,170.322 154.979,169.843 154.425 C 168.483 152.849,168.297 152.261,168.748 150.967 C 169.093 149.978,169.660 150.260,170.996 152.086 C 172.109 153.607,173.250 152.256,172.702 150.069 C 172.485 149.203,172.970 149.077,173.664 149.820 C 174.355 150.560,174.815 150.545,176.424 149.727 C 178.157 148.847,178.266 148.613,178.271 145.768 C 178.278 142.142,178.488 141.685,180.402 141.128 C 182.197 140.607,182.974 139.209,183.208 136.084 C 183.307 134.765,183.446 134.142,183.783 133.517 C 184.193 132.756,184.224 132.520,184.179 130.491 C 184.153 129.280,184.222 127.616,184.333 126.793 C 184.666 124.336,184.080 123.641,181.110 122.970 C 175.872 121.788,175.787 121.566,179.418 118.545 C 203.475 98.535,209.131 73.225,194.393 51.536 C 191.068 46.641,188.165 43.623,182.895 39.576 C 181.148 38.235,181.110 38.141,181.387 35.805 C 182.535 26.125,178.470 18.849,168.602 12.920 C 163.994 10.152,162.746 10.399,164.959 13.641 C 169.236 19.904,169.444 24.736,165.640 29.457 C 164.194 31.252,164.172 31.258,160.056 31.012 C 148.519 30.325,134.978 34.252,122.421 41.924 C 118.200 44.503,118.631 44.550,115.448 41.173 C 107.546 32.793,97.867 25.992,89.070 22.640 C 86.148 21.526,85.918 21.349,84.941 19.461 C 81.824 13.439,83.073 8.388,88.875 3.559 C 92.515 0.528,91.984 -0.180,87.024 1.090 M94.484 47.093 C 93.504 47.342,93.128 47.354,92.051 47.169 C 87.976 46.471,85.933 47.317,85.186 50.015 C 85.024 50.600,84.650 51.903,84.353 52.912 C 83.012 57.482,81.396 65.939,81.270 69.051 C 81.204 70.665,81.090 72.080,81.016 72.196 C 80.942 72.313,80.804 73.138,80.710 74.030 C 80.616 74.927,80.245 76.588,79.881 77.741 C 78.941 80.726,78.360 83.113,78.043 85.302 C 77.030 92.274,76.541 94.484,75.575 96.461 C 74.519 98.620,74.512 98.667,75.011 100.413 C 75.487 102.074,75.474 102.871,74.943 104.644 C 74.704 105.444,74.447 106.552,74.371 107.107 C 74.296 107.662,74.038 109.144,73.798 110.400 C 73.557 111.657,73.361 113.278,73.361 114.002 C 73.361 115.821,72.905 118.051,72.246 119.459 L 71.693 120.642 71.884 122.501 C 72.215 125.735,73.813 127.176,76.690 126.836 C 80.085 126.436,81.323 126.487,82.678 127.082 C 83.724 127.541,84.215 127.648,85.277 127.648 C 86.331 127.648,86.842 127.758,87.906 128.213 C 89.162 128.752,89.304 128.773,90.885 128.657 C 92.309 128.553,92.711 128.592,93.722 128.933 C 94.369 129.151,95.562 129.398,96.372 129.483 C 97.182 129.567,98.093 129.732,98.395 129.849 C 99.476 130.267,101.862 130.571,104.965 130.687 C 107.937 130.798,108.179 130.835,109.230 131.336 C 111.153 132.250,114.558 131.960,118.008 130.587 C 118.834 130.259,120.065 129.939,120.851 129.849 C 122.273 129.686,124.515 128.892,125.312 128.270 C 125.556 128.079,126.574 127.313,127.573 126.567 C 131.890 123.345,132.556 122.647,132.322 121.584 C 132.041 120.306,130.919 120.025,129.564 120.892 C 127.808 122.015,123.103 123.039,123.041 122.311 C 122.996 121.778,123.114 121.492,123.670 120.790 C 124.167 120.163,124.245 119.915,124.261 118.908 C 124.290 117.106,124.878 116.589,127.239 116.293 C 130.135 115.930,130.522 115.577,132.650 111.361 L 133.792 109.097 133.792 107.387 L 133.792 105.676 132.741 104.145 C 131.552 102.411,130.907 100.428,130.962 98.670 C 130.979 98.116,130.983 97.505,130.971 97.313 C 130.959 97.122,130.093 96.090,129.046 95.021 C 126.052 91.962,126.117 91.552,129.757 90.518 C 133.751 89.384,139.431 83.980,140.829 79.986 C 141.027 79.419,141.358 78.492,141.564 77.927 C 142.312 75.871,142.379 74.693,141.875 72.491 C 141.368 70.274,140.943 67.802,140.764 66.025 C 140.477 63.186,136.166 58.599,132.233 56.946 C 131.577 56.671,130.504 56.175,129.848 55.845 C 129.193 55.515,128.223 55.117,127.695 54.960 C 127.166 54.803,126.048 54.301,125.211 53.844 C 124.373 53.388,123.114 52.837,122.413 52.621 C 121.711 52.405,120.663 51.988,120.084 51.696 C 119.504 51.404,118.597 51.051,118.066 50.912 C 117.536 50.773,116.624 50.520,116.040 50.349 C 115.125 50.081,114.806 50.069,113.744 50.259 C 112.524 50.477,112.493 50.472,110.943 49.831 C 108.124 48.664,107.512 48.542,106.104 48.869 C 104.056 49.344,101.414 48.873,97.954 47.417 C 96.529 46.817,95.826 46.751,94.484 47.093 M113.468 70.783 C 114.895 71.431,116.048 74.309,115.551 75.982 C 114.041 81.062,106.841 81.825,107.903 76.792 C 108.056 76.065,108.233 75.057,108.296 74.553 C 108.739 70.991,110.730 69.540,113.468 70.783 M107.454 98.201 C 109.457 98.773,109.521 98.852,110.511 101.973 C 111.625 105.486,111.701 106.237,111.041 107.199 C 110.764 107.602,110.313 108.432,110.038 109.042 C 108.455 112.563,103.215 113.198,101.616 110.063 C 100.831 108.525,101.077 104.298,102.091 101.880 C 102.344 101.275,102.664 100.433,102.800 100.010 C 103.531 97.745,104.514 97.363,107.454 98.201 M123.323 105.384 C 123.759 105.552,123.675 106.034,123.062 106.867 C 122.237 107.989,121.962 108.964,121.962 110.773 C 121.962 112.651,121.793 112.906,119.818 114.011 C 119.132 114.395,118.315 115.064,117.804 115.662 C 115.836 117.966,113.160 117.912,112.845 115.561 C 112.704 114.510,113.026 114.260,114.524 114.259 C 117.159 114.257,118.235 112.322,116.777 110.205 C 115.912 108.949,115.916 108.896,116.965 108.178 C 117.444 107.850,118.287 107.215,118.839 106.767 C 120.444 105.463,122.155 104.936,123.323 105.384 M86.531 110.303 C 87.273 110.937,87.714 111.159,88.537 111.315 C 90.269 111.643,90.457 111.802,90.727 113.161 C 90.857 113.816,91.015 114.611,91.078 114.929 C 91.212 115.604,90.789 115.971,89.646 116.171 C 89.272 116.237,88.589 116.457,88.128 116.661 C 86.460 117.399,85.904 116.618,86.086 113.798 C 86.218 111.762,86.202 111.723,84.869 110.896 C 84.391 110.599,84.187 109.913,84.487 109.613 C 84.830 109.271,85.642 109.545,86.531 110.303 M390.177 115.070 C 389.750 115.382,389.529 119.777,389.905 120.481 C 390.214 121.058,390.555 120.941,390.920 120.132 C 391.625 118.568,392.711 118.563,393.961 120.117 C 394.854 121.229,395.119 121.124,394.969 119.716 C 394.879 118.874,394.925 118.350,395.141 117.744 C 395.681 116.227,395.012 114.993,393.648 114.993 C 392.909 114.993,392.896 115.055,393.489 115.760 C 394.076 116.457,394.069 116.889,393.464 117.364 C 392.030 118.492,390.524 117.104,391.685 115.724 C 392.382 114.896,391.148 114.361,390.177 115.070 M399.755 116.949 C 399.561 117.144,399.614 119.361,399.817 119.486 C 399.933 119.558,400.000 119.091,400.000 118.213 C 400.000 116.822,399.981 116.724,399.755 116.949 M243.191 121.238 C 237.137 121.491,236.965 121.691,236.390 129.128 C 236.163 132.067,236.187 133.425,236.675 145.473 C 237.007 153.661,236.895 155.027,235.809 156.037 C 234.427 157.322,232.076 156.123,231.425 153.801 C 231.268 153.239,231.263 150.821,231.404 144.246 C 231.655 132.593,231.244 124.963,230.264 123.069 C 229.728 122.031,228.018 121.585,225.401 121.801 C 224.645 121.863,222.988 121.925,221.721 121.938 C 216.502 121.993,216.445 122.123,216.814 133.242 C 216.904 135.965,217.050 141.660,217.137 145.896 C 217.468 161.902,220.127 167.406,228.350 169.102 C 238.868 171.272,247.691 166.746,250.235 157.877 C 251.672 152.863,251.761 148.148,250.676 134.525 C 250.463 131.859,250.314 128.544,250.337 127.006 C 250.408 122.266,250.452 122.680,249.822 122.118 C 248.807 121.211,247.614 121.053,243.191 121.238 M271.435 121.617 C 270.981 121.708,269.558 121.944,268.272 122.143 C 265.737 122.535,265.239 122.733,263.222 124.156 C 259.146 127.031,257.271 129.853,254.626 137.093 L 253.553 140.028 253.609 144.888 C 253.758 158.048,257.320 166.078,264.836 170.197 C 268.847 172.396,276.377 172.318,279.647 170.045 C 280.035 169.776,280.966 169.133,281.716 168.617 C 285.172 166.242,287.511 161.618,286.845 158.479 C 286.628 157.458,286.639 157.384,287.164 156.336 C 288.576 153.512,289.193 147.196,288.335 144.342 C 287.817 142.619,285.732 141.508,283.820 141.936 C 283.168 142.082,281.554 142.110,278.578 142.028 C 272.035 141.848,271.408 142.193,270.963 146.215 C 270.514 150.260,271.720 153.324,273.761 153.324 C 275.291 153.324,275.135 156.442,273.542 157.694 C 272.154 158.787,269.644 157.501,268.861 155.296 C 267.899 152.589,267.941 140.959,268.922 138.138 C 270.460 133.715,273.012 132.752,275.369 135.706 C 277.148 137.936,276.553 138.002,285.283 134.602 C 287.094 133.896,287.911 132.712,287.533 131.342 C 287.307 130.522,284.168 125.940,283.233 125.065 C 280.421 122.431,275.119 120.882,271.435 121.617 M248.534 121.935 C 249.852 122.381,249.845 122.352,249.889 127.418 C 249.911 129.915,250.062 133.443,250.225 135.259 C 252.451 160.045,248.886 167.794,234.738 168.928 C 224.599 169.741,219.645 165.606,218.063 155.010 C 217.436 150.814,216.985 124.420,217.522 123.416 C 217.926 122.662,218.802 122.494,223.182 122.329 C 230.061 122.070,229.949 121.987,230.647 127.831 C 230.995 130.742,231.068 136.344,230.903 147.558 L 230.812 153.804 231.365 154.888 C 232.707 157.518,235.455 157.833,236.772 155.509 L 237.231 154.700 237.193 148.281 C 237.173 144.750,237.058 140.524,236.937 138.889 C 236.377 131.312,237.122 123.316,238.470 122.433 C 239.543 121.730,246.858 121.368,248.534 121.935 M277.340 122.418 C 278.787 122.840,280.690 123.817,282.640 125.139 C 283.002 125.385,283.699 126.194,284.190 126.938 C 284.680 127.681,285.387 128.702,285.760 129.207 C 287.763 131.910,287.570 133.251,285.042 134.176 C 284.569 134.350,282.847 135.015,281.216 135.655 C 277.211 137.226,277.083 137.207,275.255 134.774 C 273.472 132.402,270.638 133.341,268.950 136.863 C 267.674 139.526,267.651 139.781,267.759 150.115 C 267.809 154.844,268.574 157.040,270.520 158.036 C 272.536 159.068,273.847 158.679,274.805 156.764 C 275.915 154.544,275.612 153.509,273.641 152.791 C 271.884 152.150,271.155 150.338,271.347 147.088 C 271.619 142.515,272.755 141.952,280.386 142.611 C 281.361 142.695,282.450 142.659,283.412 142.510 C 287.267 141.915,288.192 143.210,288.190 149.198 C 288.189 152.641,287.889 153.995,286.629 156.240 C 286.187 157.027,286.096 157.365,286.184 157.891 C 286.609 160.438,286.527 160.951,285.247 163.770 C 284.378 165.686,283.373 166.902,281.737 168.022 C 280.963 168.551,279.936 169.253,279.455 169.581 C 277.285 171.061,271.535 171.737,267.859 170.945 C 265.197 170.371,261.057 167.307,258.754 164.207 C 256.578 161.277,253.713 151.219,254.114 147.914 C 254.175 147.409,254.137 145.750,254.030 144.227 C 253.807 141.063,253.833 140.902,255.234 136.910 C 256.283 133.918,258.287 129.733,259.361 128.289 C 260.909 126.208,264.975 123.236,266.733 122.900 C 273.052 121.695,274.617 121.623,277.340 122.418 M192.059 122.367 C 190.499 122.600,189.402 123.383,189.182 124.422 C 189.019 125.190,187.786 130.354,187.359 132.050 C 186.051 137.254,185.496 139.897,185.231 142.169 C 185.122 143.109,184.744 145.033,184.392 146.444 C 184.040 147.854,183.678 149.752,183.589 150.662 C 183.500 151.571,183.098 153.471,182.696 154.883 C 180.888 161.238,180.265 165.586,180.992 166.763 C 182.520 169.234,186.245 167.816,185.144 165.182 C 184.755 164.249,184.796 163.906,185.420 162.923 C 185.940 162.102,185.970 161.952,185.974 160.120 C 185.977 158.481,186.033 158.114,186.337 157.726 C 186.534 157.474,186.697 157.179,186.699 157.070 C 186.710 156.535,189.415 154.917,190.646 154.709 C 191.639 154.541,194.577 152.979,195.005 152.391 C 195.211 152.108,195.417 151.370,195.517 150.557 C 195.609 149.809,195.763 148.826,195.860 148.372 C 195.957 147.918,196.086 147.159,196.148 146.684 C 196.535 143.709,197.676 145.090,198.446 149.463 C 198.857 151.800,199.724 152.723,201.288 152.489 C 202.024 152.378,202.209 152.437,203.314 153.135 C 204.442 153.848,204.595 153.895,205.415 153.782 C 206.944 153.572,208.161 154.496,208.161 155.868 C 208.161 156.528,208.505 156.762,209.716 156.928 C 211.407 157.160,211.869 156.009,211.201 153.232 C 210.958 152.224,210.590 150.573,210.383 149.564 C 210.176 148.556,209.678 146.469,209.277 144.928 C 208.875 143.386,208.462 141.364,208.358 140.434 C 207.781 135.263,207.279 132.843,206.333 130.670 C 205.796 129.436,205.338 128.055,205.225 127.328 C 204.785 124.501,204.057 123.144,202.662 122.551 C 201.934 122.241,193.846 122.101,192.059 122.367 M202.135 122.896 C 203.514 123.247,204.305 124.574,204.683 127.170 C 204.793 127.930,205.232 129.305,205.784 130.615 C 206.834 133.114,206.887 133.336,207.514 137.918 C 208.076 142.027,208.367 143.529,209.201 146.617 C 209.553 147.921,209.956 149.654,210.096 150.468 C 210.237 151.282,210.529 152.650,210.746 153.508 C 211.436 156.241,210.000 157.521,208.844 155.203 C 208.203 153.916,207.236 153.311,205.560 153.146 C 204.196 153.013,203.679 152.829,202.844 152.181 C 202.469 151.889,202.216 151.847,201.433 151.945 C 199.787 152.151,199.395 151.683,198.805 148.816 C 198.000 144.906,197.662 144.079,196.911 144.192 C 196.099 144.314,195.623 145.961,195.029 150.717 C 194.832 152.288,192.859 153.769,190.323 154.250 C 189.801 154.349,189.083 154.631,188.726 154.877 C 188.370 155.122,187.722 155.402,187.285 155.499 C 186.317 155.715,186.366 155.667,185.914 156.851 C 185.634 157.585,185.537 158.317,185.512 159.889 C 185.479 161.894,185.460 161.987,184.899 162.783 C 184.253 163.699,184.188 164.211,184.594 165.182 C 185.486 167.316,182.754 168.596,181.474 166.643 C 180.795 165.606,181.498 160.725,183.135 155.116 C 183.496 153.878,183.874 152.205,183.975 151.398 C 184.172 149.827,184.375 148.761,185.107 145.438 C 185.362 144.278,185.706 142.354,185.870 141.162 C 186.035 139.970,186.400 138.072,186.682 136.944 C 186.964 135.815,187.510 133.572,187.896 131.958 C 189.977 123.243,189.893 123.454,191.463 122.988 C 192.449 122.694,201.052 122.621,202.135 122.896 M334.801 123.083 C 334.296 123.157,333.182 123.175,332.325 123.123 C 330.860 123.035,330.728 123.058,330.136 123.503 C 329.531 123.958,329.436 123.973,327.752 123.867 C 324.545 123.666,323.338 125.491,323.338 130.540 C 323.338 134.292,323.557 134.525,327.071 134.525 C 329.926 134.525,330.488 134.692,331.297 135.777 C 331.741 136.373,331.756 137.092,331.591 150.665 C 331.520 156.469,331.555 158.486,331.744 159.506 C 331.956 160.651,331.950 161.013,331.698 162.230 C 330.314 168.920,332.424 170.637,340.728 169.578 C 346.026 168.902,345.577 170.156,345.396 156.534 C 345.144 137.567,345.146 137.504,346.220 135.493 C 346.885 134.248,347.758 133.932,349.677 134.242 C 352.925 134.766,353.106 134.494,353.021 129.207 C 352.922 123.048,353.594 123.482,343.792 123.239 C 339.956 123.144,336.570 123.040,336.268 123.007 C 335.965 122.975,335.305 123.008,334.801 123.083 M344.807 123.794 C 351.074 123.965,351.778 124.052,352.120 124.691 C 352.439 125.287,352.724 128.632,352.655 130.960 C 352.568 133.880,352.668 133.792,349.452 133.792 L 346.971 133.792 346.366 134.451 C 344.844 136.109,344.592 138.163,344.805 147.181 C 345.019 156.231,345.019 167.135,344.804 167.700 C 344.245 169.171,335.323 170.100,333.479 168.880 C 331.959 167.873,331.468 165.228,332.218 162.089 C 332.484 160.976,332.486 160.707,332.235 159.268 C 331.806 156.810,331.905 147.042,332.436 139.276 C 332.713 135.234,331.056 133.666,326.817 133.958 C 324.810 134.096,324.522 134.030,324.179 133.357 C 323.484 131.991,323.717 127.758,324.582 126.023 C 325.428 124.327,326.262 124.001,328.674 124.424 C 329.423 124.556,329.603 124.516,330.282 124.066 C 330.973 123.609,331.165 123.568,332.282 123.645 C 332.961 123.692,333.847 123.670,334.250 123.596 C 334.654 123.523,335.809 123.500,336.818 123.544 C 337.827 123.589,341.422 123.702,344.807 123.794 M296.653 125.079 C 290.876 125.362,290.510 125.668,290.511 130.215 C 290.511 131.779,290.603 133.388,290.716 133.792 C 290.871 134.346,290.863 134.967,290.683 136.332 C 290.465 137.985,290.475 138.258,290.798 139.542 C 291.188 141.091,291.283 150.115,290.975 156.351 C 290.808 159.722,291.135 167.086,291.482 167.793 C 292.089 169.027,292.556 169.099,298.534 168.885 C 303.838 168.694,303.863 168.667,303.915 163.044 C 303.934 160.977,303.889 158.001,303.813 156.433 C 303.667 153.380,303.696 153.174,304.585 151.043 C 305.474 148.912,306.606 149.153,307.932 151.758 L 308.574 153.018 308.518 156.977 C 308.362 168.036,308.646 168.661,313.801 168.606 C 321.307 168.526,321.653 168.279,321.448 163.143 C 321.387 161.626,321.408 159.830,321.494 159.151 C 321.685 157.645,321.429 154.160,321.025 152.774 C 320.654 151.499,320.666 149.305,321.066 145.813 C 321.301 143.750,321.344 142.335,321.253 139.569 C 321.188 137.602,321.094 133.945,321.044 131.443 C 320.913 124.939,321.085 125.121,314.992 125.040 C 307.806 124.944,307.996 124.702,308.172 133.759 L 308.285 139.600 307.821 140.064 C 307.402 140.483,307.246 140.520,306.188 140.453 C 303.815 140.302,303.698 139.949,303.554 132.515 C 303.396 124.435,303.674 124.735,296.653 125.079 M159.146 125.546 C 160.532 126.125,160.920 126.799,162.203 130.857 C 162.681 132.370,163.410 134.640,163.822 135.900 C 164.234 137.160,164.681 138.767,164.815 139.470 C 165.173 141.348,166.058 142.000,166.538 140.738 C 166.751 140.177,166.472 135.678,166.158 134.617 C 166.035 134.205,166.012 132.744,166.092 130.529 C 166.282 125.277,166.294 125.264,171.410 125.264 C 177.954 125.263,178.201 125.511,178.087 131.958 C 178.011 136.230,178.007 135.890,178.166 138.010 C 178.277 139.479,178.232 140.265,177.941 141.953 C 177.671 143.517,177.602 144.547,177.671 145.937 C 177.783 148.167,177.639 148.493,176.231 149.207 C 174.600 150.033,173.695 149.486,174.428 148.117 C 174.644 147.715,174.782 147.095,174.782 146.531 C 174.782 145.681,174.853 145.530,175.643 144.685 C 176.664 143.594,176.570 143.190,175.079 142.250 C 174.004 141.573,173.428 141.834,173.219 143.092 C 173.147 143.525,172.974 144.102,172.835 144.374 C 172.484 145.059,172.518 145.507,172.948 145.896 C 173.564 146.454,173.443 147.464,172.676 148.161 C 171.896 148.871,171.770 149.316,172.025 150.453 C 172.341 151.863,171.844 152.125,170.986 151.000 C 169.530 149.090,168.529 148.982,168.173 150.697 C 167.834 152.331,168.002 152.941,169.246 154.592 C 169.946 155.521,170.455 156.419,170.638 157.050 C 171.027 158.390,171.310 158.609,172.138 158.214 C 173.503 157.563,174.190 158.202,173.508 159.488 C 173.087 160.282,173.082 160.332,173.377 160.950 C 173.784 161.805,173.769 161.933,173.145 162.875 C 172.850 163.321,172.468 164.264,172.296 164.970 C 171.565 167.982,168.732 168.990,166.558 167.012 C 164.984 165.581,163.836 160.730,164.512 158.368 C 165.120 156.240,164.884 155.573,163.594 155.779 C 162.709 155.921,162.417 155.682,161.604 154.153 C 160.401 151.889,159.730 151.967,159.114 154.441 C 158.782 155.773,158.782 155.871,159.093 157.143 C 159.652 159.422,159.069 160.705,157.789 160.016 C 157.369 159.789,156.735 159.657,156.010 159.643 C 155.174 159.627,154.630 159.491,153.902 159.120 C 152.770 158.541,152.761 158.545,152.640 159.613 C 152.510 160.773,153.181 161.309,154.516 161.110 C 158.393 160.533,159.285 161.118,159.284 164.237 C 159.283 167.168,158.864 167.529,155.433 167.557 C 154.122 167.568,152.341 167.641,151.475 167.720 C 148.465 167.994,148.349 167.626,148.271 157.542 C 148.233 152.582,148.157 150.763,147.951 149.905 C 147.773 149.165,147.730 148.537,147.825 148.071 C 148.376 145.380,148.385 145.244,148.197 142.194 C 148.092 140.498,147.907 138.716,147.786 138.233 C 147.613 137.544,147.615 137.190,147.794 136.583 C 148.371 134.623,148.456 133.262,148.120 131.343 C 147.300 126.660,148.268 125.599,153.508 125.437 C 155.374 125.380,157.254 125.317,157.686 125.298 C 158.118 125.279,158.775 125.391,159.146 125.546 M302.092 125.873 C 302.921 126.430,302.949 126.624,303.114 133.150 C 303.294 140.261,303.519 140.844,306.146 140.992 C 308.764 141.139,308.826 140.951,308.709 133.228 L 308.613 126.979 309.144 126.394 C 309.890 125.572,311.081 125.396,315.360 125.475 C 319.326 125.548,319.943 125.726,320.331 126.908 C 320.611 127.762,320.839 144.028,320.593 145.621 C 320.170 148.362,320.154 151.302,320.551 152.866 C 321.037 154.775,321.227 157.793,320.974 159.596 C 320.839 160.565,320.834 161.455,320.959 162.438 C 321.496 166.650,320.840 167.755,317.649 168.014 C 311.982 168.474,310.292 168.274,309.672 167.074 C 309.154 166.074,308.779 160.048,309.036 156.873 C 309.407 152.298,307.591 148.502,305.248 148.953 C 303.757 149.240,302.667 155.972,303.519 159.625 C 303.747 160.602,303.468 166.483,303.163 167.123 C 302.669 168.160,302.354 168.232,297.605 168.406 C 292.641 168.588,292.275 168.514,291.860 167.253 C 291.533 166.258,291.224 156.645,291.463 154.883 C 291.758 152.703,291.642 140.650,291.315 139.573 C 291.033 138.643,291.003 137.182,291.238 135.809 C 291.348 135.171,291.311 134.391,291.116 133.242 C 290.471 129.434,290.922 126.854,292.355 126.143 C 293.794 125.430,301.130 125.226,302.092 125.873 M339.167 129.233 C 337.874 131.149,336.203 131.978,334.021 131.785 C 332.377 131.640,332.292 131.876,333.470 133.324 L 334.249 134.281 335.167 134.178 C 338.643 133.788,338.590 133.784,339.454 134.506 C 340.557 135.428,340.986 135.384,341.496 134.297 C 341.721 133.819,342.132 133.097,342.409 132.693 C 344.398 129.787,344.150 129.110,341.001 128.861 C 339.520 128.743,339.495 128.748,339.167 129.233 M375.974 128.942 C 374.635 129.508,374.253 130.352,373.034 135.435 C 372.255 138.679,372.115 139.019,371.555 139.019 C 371.035 139.019,370.710 138.181,370.304 135.791 C 369.243 129.550,368.844 129.162,363.304 128.987 C 357.124 128.792,356.946 129.007,359.110 134.069 C 359.821 135.732,360.638 137.753,360.925 138.560 C 361.948 141.435,363.349 144.816,364.042 146.080 C 365.994 149.641,366.676 152.959,366.227 156.717 C 365.982 158.769,366.257 166.772,366.594 167.398 C 367.093 168.326,367.672 168.429,371.705 168.303 C 377.345 168.128,377.323 168.146,377.404 163.603 C 377.460 160.425,377.182 152.732,376.975 151.736 C 376.873 151.247,376.969 151.004,377.588 150.177 C 378.295 149.233,378.965 147.795,380.530 143.864 C 380.934 142.846,381.609 141.253,382.028 140.322 C 382.447 139.391,382.950 138.050,383.146 137.343 C 383.343 136.635,383.738 135.587,384.025 135.015 C 385.292 132.490,385.715 129.885,384.926 129.463 C 384.055 128.997,376.839 128.577,375.974 128.942 M381.300 129.393 C 384.636 129.834,384.593 129.823,384.780 130.314 C 384.974 130.824,384.290 133.275,383.349 135.442 C 383.042 136.149,382.589 137.345,382.341 138.102 C 381.892 139.472,380.557 142.704,378.617 147.116 C 378.056 148.392,377.389 149.630,377.135 149.867 C 376.203 150.737,376.091 151.197,376.514 152.419 C 376.980 153.764,377.098 165.835,376.654 166.713 C 376.229 167.553,375.608 167.690,371.816 167.778 C 366.249 167.907,366.762 168.817,366.714 158.738 L 366.677 151.032 365.933 149.106 C 365.524 148.047,364.855 146.561,364.448 145.805 C 364.040 145.048,363.121 142.902,362.405 141.036 C 361.689 139.170,360.487 136.156,359.735 134.338 C 357.696 129.409,357.657 129.481,362.306 129.483 C 368.493 129.485,368.793 129.756,369.922 136.362 C 370.403 139.175,370.928 139.988,371.999 139.581 C 372.572 139.364,372.801 138.716,373.765 134.605 C 375.093 128.937,375.536 128.631,381.300 129.393 M341.739 129.774 C 342.900 129.974,342.832 130.876,341.501 132.935 C 340.679 134.207,340.348 134.321,339.414 133.654 C 338.891 133.281,338.623 133.242,336.635 133.242 C 333.840 133.242,333.616 132.921,335.993 132.321 C 337.949 131.827,338.694 131.442,339.081 130.724 C 339.595 129.770,339.998 129.448,340.544 129.555 C 340.815 129.609,341.352 129.707,341.739 129.774 M239.373 133.561 C 239.439 134.026,240.044 134.229,240.270 133.862 C 240.464 133.549,240.128 133.150,239.671 133.150 C 239.406 133.150,239.329 133.256,239.373 133.561 M243.825 135.801 C 243.114 136.511,243.417 137.918,244.281 137.918 C 245.075 137.918,245.587 136.081,244.927 135.599 C 244.464 135.260,244.344 135.282,243.825 135.801 M341.818 135.543 C 341.308 135.848,341.080 136.444,340.944 137.832 C 340.838 138.910,340.703 139.295,340.147 140.104 C 339.082 141.652,339.659 142.382,341.453 141.757 C 342.390 141.430,342.911 139.611,343.025 136.268 C 343.056 135.377,342.577 135.090,341.818 135.543 M333.910 136.055 C 332.777 137.307,333.139 139.771,334.521 140.210 C 334.730 140.276,334.889 140.573,334.963 141.036 C 335.143 142.164,336.290 142.533,337.061 141.712 C 337.862 140.860,337.394 139.936,336.163 139.936 C 335.557 139.936,335.442 139.876,335.442 139.557 C 335.442 138.706,335.757 138.469,336.884 138.469 C 338.489 138.469,339.125 137.719,338.353 136.737 C 337.797 136.030,337.236 135.864,336.274 136.122 C 335.482 136.333,335.344 136.308,334.329 135.765 C 334.271 135.734,334.083 135.864,333.910 136.055 M337.423 137.038 C 337.744 137.359,337.693 137.552,337.287 137.552 C 336.884 137.552,336.649 137.275,336.818 137.001 C 336.968 136.759,337.155 136.770,337.423 137.038 M239.357 138.859 C 237.797 140.534,238.171 142.516,239.962 142.066 C 240.816 141.852,240.919 141.254,240.348 139.818 C 239.737 138.280,239.821 138.361,239.357 138.859 M246.982 139.141 C 246.650 139.473,247.305 140.853,247.794 140.853 C 248.105 140.853,248.330 139.968,248.143 139.477 C 247.975 139.035,247.287 138.836,246.982 139.141 M175.044 142.975 C 175.470 143.400,175.396 143.929,174.840 144.445 C 174.136 145.097,173.770 144.958,173.787 144.044 C 173.811 142.717,174.338 142.269,175.044 142.975 M294.121 151.424 C 293.974 151.571,294.140 151.857,294.371 151.857 C 294.466 151.857,294.544 151.733,294.544 151.582 C 294.544 151.298,294.327 151.217,294.121 151.424 M176.044 152.866 C 175.089 153.385,174.716 154.791,175.326 155.567 C 176.624 157.218,178.462 156.286,178.216 154.102 C 178.062 152.733,177.196 152.240,176.044 152.866 M177.350 153.508 C 178.052 154.210,177.617 155.708,176.711 155.708 C 175.663 155.708,175.261 154.468,176.052 153.677 C 176.686 153.043,176.862 153.020,177.350 153.508 M203.374 155.944 C 202.560 156.492,202.484 157.064,203.137 157.746 C 204.492 159.160,205.989 157.626,204.901 155.938 C 204.563 155.414,204.160 155.416,203.374 155.944 M204.432 156.913 C 204.492 157.071,204.452 157.290,204.342 157.400 C 204.077 157.665,203.559 157.252,203.699 156.887 C 203.833 156.537,204.294 156.554,204.432 156.913 M176.247 158.058 C 175.475 158.683,175.933 160.110,176.907 160.110 C 177.847 160.110,178.251 158.810,177.533 158.093 C 177.079 157.639,176.774 157.631,176.247 158.058 M210.957 158.767 C 209.922 159.269,209.864 159.649,210.290 163.154 C 210.402 164.077,210.395 164.095,209.737 164.502 C 207.400 165.946,208.884 168.785,211.383 167.650 C 214.020 166.452,214.483 165.033,213.410 161.434 C 212.602 158.723,212.123 158.203,210.957 158.767 M212.159 159.646 C 212.355 159.895,212.730 160.906,212.993 161.893 C 213.762 164.786,213.735 165.067,212.575 166.185 C 211.451 167.269,210.413 167.642,209.743 167.202 C 208.794 166.581,209.022 165.591,210.285 164.846 C 211.086 164.373,211.180 163.969,210.832 162.494 C 210.226 159.922,211.026 158.205,212.159 159.646 M192.214 159.825 C 192.093 159.971,192.021 160.280,192.054 160.513 C 192.136 161.095,193.013 161.207,193.300 160.671 C 193.715 159.896,192.767 159.158,192.214 159.825 M191.042 162.463 C 190.647 162.899,190.659 163.099,191.102 163.500 C 191.746 164.083,192.423 162.969,191.802 162.348 C 191.507 162.052,191.398 162.069,191.042 162.463 M177.438 162.674 C 177.864 163.144,177.753 165.432,177.279 165.955 C 176.521 166.794,174.612 166.947,174.126 166.208 C 173.017 164.523,176.117 161.214,177.438 162.674 M203.897 165.627 C 203.058 166.116,204.056 167.505,205.179 167.411 C 205.742 167.364,205.894 167.262,206.045 166.831 C 206.375 165.888,204.884 165.052,203.897 165.627 " stroke="none" fill="#eb9333" fill-rule="evenodd"></path></g></svg>