<svg id="svg" xmlns="http://www.w3.org/2000/svg" xmlns:xlink="http://www.w3.org/1999/xlink" width="400" height="195.09803921568627" viewBox="0, 0, 400,195.09803921568627"><g id="svgg"><path id="path0" d="M69.000 102.583 L 69.000 143.333 158.458 143.333 C 207.660 143.333,266.648 143.283,289.542 143.222 L 331.167 143.111 331.167 102.472 L 331.167 61.833 200.083 61.833 L 69.000 61.833 69.000 102.583 M103.594 78.075 C 109.877 78.909,113.950 82.280,115.344 87.800 C 115.849 89.799,115.753 89.913,113.439 90.063 C 111.673 90.177,109.192 90.055,108.839 89.837 C 108.734 89.772,108.534 89.280,108.394 88.744 C 107.497 85.307,105.197 83.668,101.229 83.636 C 96.337 83.596,93.356 86.421,94.410 90.098 C 95.005 92.176,96.609 93.202,102.750 95.434 C 112.625 99.021,115.488 101.820,115.498 107.893 C 115.507 114.462,110.044 118.846,101.833 118.857 C 93.246 118.869,86.603 114.213,85.900 107.691 C 85.751 106.299,85.647 106.339,89.452 106.336 L 92.654 106.333 92.836 107.042 C 93.953 111.378,95.583 112.705,100.250 113.080 C 105.491 113.500,108.327 111.793,108.332 108.215 C 108.336 104.674,107.070 103.594,100.065 101.161 C 92.317 98.471,88.613 95.804,87.457 92.083 C 84.911 83.893,93.202 76.696,103.594 78.075 M231.829 78.282 C 237.057 79.215,240.732 82.307,242.250 87.050 C 243.170 89.922,243.005 90.083,239.142 90.083 C 235.885 90.083,235.873 90.078,235.423 88.418 C 234.485 84.951,231.270 83.139,226.984 83.660 C 223.242 84.115,221.417 85.815,221.431 88.833 C 221.445 91.901,222.830 92.916,231.000 95.845 C 239.803 99.001,242.880 102.306,242.623 108.329 C 242.005 122.809,214.195 122.155,213.045 107.634 L 212.956 106.517 213.437 106.384 C 213.701 106.310,215.259 106.250,216.900 106.250 L 219.883 106.250 220.150 107.583 C 220.889 111.267,223.667 113.161,228.333 113.161 C 232.991 113.161,235.566 111.356,235.579 108.083 C 235.590 105.188,233.696 103.365,229.167 101.912 C 218.426 98.466,214.195 94.803,214.146 88.908 C 214.085 81.611,222.418 76.603,231.829 78.282 M314.632 81.642 C 314.786 81.740,314.890 82.688,315.000 84.999 C 315.181 88.822,314.929 88.471,317.644 88.665 C 320.388 88.861,320.167 88.649,320.167 91.081 C 320.167 93.719,320.297 93.593,317.416 93.747 L 315.148 93.868 315.204 102.559 C 315.277 113.667,315.125 113.167,318.426 113.167 L 320.333 113.167 320.333 115.671 L 320.333 118.175 319.883 118.346 C 319.181 118.613,316.079 118.783,314.392 118.647 C 312.584 118.501,311.993 118.237,310.551 116.927 C 308.462 115.030,308.399 114.633,308.198 102.213 C 308.125 97.701,308.008 93.952,307.937 93.882 C 307.867 93.811,306.858 93.715,305.696 93.669 L 303.583 93.583 303.476 92.583 C 303.071 88.791,303.091 88.757,305.905 88.604 C 306.999 88.544,307.929 88.460,307.971 88.418 C 308.110 88.279,308.312 85.627,308.323 83.805 C 308.338 81.279,308.036 81.500,311.476 81.503 C 313.093 81.504,314.514 81.567,314.632 81.642 M138.132 88.265 C 141.587 88.977,143.888 90.954,144.945 94.117 C 145.272 95.095,145.657 114.304,145.400 116.797 L 145.250 118.250 143.917 118.304 C 143.183 118.334,141.754 118.309,140.740 118.248 L 138.896 118.138 138.704 107.944 C 138.492 96.774,138.429 96.057,137.569 95.141 C 135.879 93.340,132.361 93.302,129.798 95.057 C 127.646 96.530,127.673 96.359,127.670 108.545 L 127.667 118.174 124.375 118.129 L 121.083 118.083 121.083 103.500 L 121.083 88.917 124.000 88.833 C 127.600 88.730,127.333 88.645,127.333 89.903 C 127.333 91.579,127.527 91.670,128.917 90.646 C 131.859 88.479,135.103 87.640,138.132 88.265 M168.083 88.577 C 172.408 89.732,175.304 92.967,175.582 96.954 C 175.631 97.667,175.749 101.678,175.843 105.869 C 176.023 113.921,176.149 115.748,176.617 117.048 C 177.012 118.148,176.975 118.161,173.412 118.164 C 170.003 118.167,169.798 118.105,169.496 116.985 C 169.250 116.072,168.988 116.032,167.919 116.741 C 159.149 122.562,147.982 114.975,152.188 106.052 C 154.204 101.774,157.099 100.610,167.063 100.071 L 169.043 99.964 168.930 98.567 C 168.622 94.780,167.399 93.583,163.833 93.583 C 161.144 93.583,159.846 94.299,158.978 96.261 C 158.584 97.151,158.622 97.141,155.583 97.176 C 151.741 97.220,152.000 97.260,152.000 96.614 C 152.000 91.252,161.090 86.710,168.083 88.577 M199.874 88.489 C 206.943 90.297,210.482 99.507,207.977 109.583 C 205.963 117.689,197.531 121.383,190.949 117.043 C 190.326 116.632,189.763 116.348,189.700 116.411 C 189.637 116.474,189.540 119.374,189.485 122.854 C 189.412 127.442,189.329 129.237,189.184 129.383 C 188.928 129.639,183.201 129.755,182.833 129.511 C 182.591 129.351,182.532 89.352,182.774 88.962 C 182.936 88.699,188.833 88.809,188.833 89.075 C 188.833 89.682,189.214 91.000,189.389 91.000 C 189.497 91.000,189.959 90.731,190.417 90.403 C 193.250 88.370,196.688 87.674,199.874 88.489 M262.750 88.348 C 268.012 88.983,271.505 92.491,272.688 98.329 C 273.118 100.451,273.316 105.221,272.982 105.429 C 272.854 105.509,268.700 105.618,263.750 105.672 C 253.598 105.784,253.893 105.747,254.069 106.891 C 255.028 113.110,262.018 115.326,267.583 111.176 C 269.302 109.894,269.381 109.909,271.304 111.896 C 272.715 113.353,272.720 113.411,271.565 114.774 C 268.291 118.635,260.076 120.026,254.941 117.590 C 249.626 115.067,247.093 110.576,247.091 103.667 C 247.087 93.437,253.437 87.226,262.750 88.348 M285.410 92.042 C 288.243 97.076,288.724 97.846,289.000 97.795 C 289.240 97.751,291.957 93.341,293.622 90.296 L 294.417 88.841 297.964 88.837 C 302.336 88.832,302.169 88.586,300.077 91.960 C 293.279 102.919,293.333 102.828,293.333 103.355 C 293.333 103.631,294.147 105.087,295.523 107.272 C 300.802 115.658,302.000 117.638,302.000 117.979 C 302.000 118.112,300.973 118.167,298.443 118.167 L 294.886 118.167 292.061 113.470 C 290.508 110.887,289.155 108.746,289.054 108.712 C 288.954 108.679,287.917 110.286,286.750 112.284 C 284.079 116.859,283.382 117.946,283.035 118.079 C 282.611 118.242,276.308 118.208,276.142 118.042 C 276.058 117.958,277.003 116.262,278.352 114.073 C 279.648 111.970,280.911 109.912,281.160 109.500 C 281.409 109.087,282.337 107.566,283.223 106.120 C 284.109 104.673,284.833 103.393,284.833 103.274 C 284.833 103.059,283.491 100.767,281.479 97.550 C 277.061 90.480,276.301 89.187,276.435 88.970 C 276.482 88.895,278.114 88.833,280.062 88.833 L 283.604 88.833 285.410 92.042 M259.397 93.658 C 257.071 94.213,255.152 96.258,254.392 98.991 C 253.964 100.532,253.622 100.443,260.483 100.576 L 266.383 100.690 266.274 99.510 C 265.911 95.608,262.694 92.871,259.397 93.658 M193.225 93.996 C 191.970 94.443,190.583 95.389,189.996 96.198 L 189.483 96.907 189.533 103.720 L 189.583 110.534 190.595 111.484 C 196.464 117.000,203.192 110.581,201.689 100.900 C 200.861 95.573,197.196 92.584,193.225 93.996 M164.083 104.579 C 159.844 105.149,158.147 106.583,158.374 109.404 C 158.731 113.859,164.382 114.877,168.035 111.144 L 169.035 110.122 168.975 107.648 C 168.890 104.173,168.575 103.975,164.083 104.579 " stroke="none" fill="#040404" fill-rule="evenodd"></path><path id="path1" d="M248.388 4.659 L 241.360 4.750 240.946 5.139 C 240.436 5.618,239.594 5.824,238.125 5.829 C 237.036 5.833,236.333 6.151,236.333 6.641 C 236.333 6.718,235.488 6.853,234.454 6.941 C 232.960 7.068,232.473 7.175,232.079 7.462 C 231.744 7.705,231.160 7.873,230.280 7.980 C 229.312 8.097,228.811 8.252,228.333 8.584 C 227.800 8.953,227.449 9.045,226.303 9.117 C 225.287 9.181,224.739 9.306,224.250 9.583 C 223.782 9.848,223.161 9.997,222.167 10.083 C 220.716 10.208,220.223 10.365,219.898 10.806 C 219.771 10.978,219.117 11.125,217.831 11.272 C 216.185 11.459,215.892 11.541,215.493 11.923 C 215.140 12.262,214.780 12.392,213.890 12.504 C 212.411 12.690,212.166 12.792,212.169 13.226 C 212.175 14.076,212.659 14.296,215.357 14.670 C 216.679 14.853,218.545 15.234,219.505 15.517 C 221.260 16.033,226.207 17.336,232.083 18.828 C 233.825 19.271,235.462 19.716,235.722 19.817 C 236.220 20.012,240.169 21.042,242.000 21.455 C 242.766 21.627,243.561 21.669,244.714 21.598 L 246.344 21.498 247.221 22.160 C 248.229 22.920,249.186 23.374,250.594 23.758 C 254.022 24.693,257.566 25.612,259.592 26.092 C 262.591 26.802,263.635 27.199,264.599 27.996 C 265.512 28.751,265.763 28.711,266.018 27.775 C 266.255 26.900,265.989 25.297,265.421 24.191 C 265.182 23.725,264.977 22.952,264.906 22.250 C 264.766 20.852,264.610 20.392,264.147 20.018 C 263.860 19.785,263.765 19.417,263.602 17.910 C 263.485 16.821,263.297 15.915,263.137 15.667 C 262.989 15.438,262.817 14.800,262.754 14.250 C 262.691 13.700,262.450 12.800,262.220 12.250 C 261.990 11.700,261.703 10.583,261.582 9.768 C 261.389 8.471,261.303 8.238,260.889 7.909 C 260.449 7.558,260.411 7.432,260.333 6.058 L 260.250 4.583 257.833 4.576 C 256.504 4.572,252.254 4.610,248.388 4.659 M143.116 5.113 C 142.867 5.606,142.591 6.745,142.422 7.983 C 142.366 8.390,142.146 8.925,141.927 9.185 C 141.598 9.576,141.512 9.919,141.413 11.246 C 141.307 12.654,141.238 12.908,140.813 13.442 C 140.549 13.774,140.331 14.092,140.328 14.148 C 140.279 15.133,139.928 16.862,139.654 17.469 C 139.411 18.010,139.250 18.865,139.134 20.250 C 139.041 21.350,138.908 22.271,138.839 22.298 C 138.253 22.520,138.150 22.804,138.008 24.582 C 137.873 26.261,137.827 26.437,137.430 26.753 C 137.066 27.043,136.973 27.303,136.831 28.443 C 136.738 29.183,136.467 30.343,136.229 31.020 C 135.827 32.162,135.803 32.383,135.903 34.100 C 135.973 35.309,135.947 36.118,135.826 36.434 C 135.724 36.699,134.977 39.392,134.166 42.417 C 133.355 45.442,132.381 48.998,132.001 50.319 C 131.622 51.641,131.092 53.641,130.824 54.764 C 130.555 55.887,130.259 57.006,130.166 57.251 C 129.823 58.155,129.004 61.538,129.094 61.683 C 129.214 61.878,144.840 61.877,145.148 61.682 C 145.276 61.601,145.659 60.496,146.001 59.226 C 146.812 56.209,147.879 52.308,149.164 47.667 C 149.735 45.604,150.600 42.363,151.087 40.465 C 151.574 38.567,152.014 36.946,152.065 36.863 C 152.150 36.726,152.506 35.398,154.581 27.486 C 155.961 22.221,155.771 22.318,161.417 24.013 C 161.967 24.178,164.329 24.807,166.667 25.410 C 169.004 26.014,172.004 26.806,173.333 27.171 C 174.662 27.536,179.162 28.727,183.333 29.819 C 187.504 30.910,191.367 31.932,191.917 32.090 C 192.467 32.247,195.767 33.121,199.250 34.030 C 202.733 34.940,205.808 35.752,206.083 35.834 C 206.358 35.917,209.246 36.667,212.500 37.501 C 215.754 38.336,219.054 39.208,219.833 39.439 C 220.612 39.671,222.975 40.308,225.083 40.856 C 227.192 41.403,230.229 42.192,231.833 42.608 C 233.438 43.025,235.350 43.543,236.083 43.759 C 236.817 43.976,239.217 44.610,241.417 45.169 C 243.617 45.728,246.092 46.380,246.917 46.619 C 248.461 47.065,252.387 48.103,259.083 49.833 C 262.786 50.790,264.909 51.362,266.833 51.922 C 267.337 52.069,270.600 52.924,274.083 53.823 C 277.567 54.722,280.829 55.581,281.333 55.732 C 282.429 56.059,285.908 56.972,290.917 58.246 C 292.933 58.760,295.296 59.398,296.167 59.666 C 297.037 59.933,298.275 60.281,298.917 60.438 C 299.790 60.652,300.224 60.864,300.642 61.279 L 301.200 61.833 310.193 61.833 C 315.139 61.833,319.152 61.777,319.110 61.708 C 318.880 61.334,319.332 58.752,319.673 58.496 C 319.967 58.273,320.043 57.995,320.122 56.851 C 320.193 55.814,320.307 55.339,320.584 54.931 C 321.058 54.233,321.141 53.715,321.196 51.083 L 321.241 48.917 320.579 48.773 C 320.215 48.693,319.504 48.458,319.000 48.250 C 318.496 48.042,317.577 47.829,316.959 47.776 C 315.807 47.677,315.334 47.511,314.750 47.000 C 314.525 46.803,313.915 46.655,312.870 46.542 C 311.839 46.431,311.219 46.281,311.011 46.093 C 310.795 45.898,310.197 45.764,309.069 45.657 C 307.749 45.532,307.322 45.422,306.824 45.077 C 306.335 44.738,305.877 44.616,304.564 44.476 C 303.215 44.333,302.841 44.231,302.500 43.913 C 302.018 43.462,301.688 43.374,300.057 43.255 C 298.705 43.157,298.388 43.069,297.917 42.663 C 297.701 42.477,297.147 42.338,296.342 42.267 C 295.474 42.191,294.872 42.031,294.342 41.734 C 293.816 41.440,293.148 41.260,292.167 41.148 C 291.088 41.026,290.601 40.884,290.126 40.555 C 289.632 40.213,289.249 40.108,288.292 40.052 C 286.666 39.957,286.436 39.898,285.888 39.437 C 285.458 39.076,285.203 39.030,283.002 38.917 C 280.804 38.803,280.513 38.751,279.752 38.331 C 279.112 37.979,278.609 37.850,277.604 37.780 C 276.492 37.703,276.224 37.624,275.845 37.261 C 275.466 36.898,275.246 36.833,274.389 36.833 C 272.537 36.833,271.817 36.665,271.531 36.166 L 271.273 35.717 268.178 35.617 C 265.791 35.540,264.836 35.442,264.000 35.188 C 263.404 35.007,261.154 34.401,259.000 33.843 C 256.846 33.284,253.283 32.340,251.083 31.745 C 248.883 31.150,244.496 29.990,241.333 29.168 C 238.171 28.347,234.496 27.369,233.167 26.995 C 231.838 26.622,230.000 26.133,229.083 25.910 C 228.167 25.687,226.142 25.160,224.583 24.738 C 223.025 24.316,221.487 23.909,221.167 23.834 C 220.846 23.758,219.871 23.496,219.000 23.250 C 218.129 23.005,214.829 22.130,211.667 21.306 C 208.504 20.481,205.129 19.600,204.167 19.347 C 202.072 18.798,201.486 18.512,200.688 17.652 C 200.108 17.027,200.014 16.990,198.393 16.749 C 197.464 16.611,196.443 16.389,196.124 16.256 C 195.806 16.123,194.850 15.945,193.999 15.859 C 192.595 15.719,192.410 15.659,191.989 15.208 C 191.574 14.764,191.384 14.700,190.174 14.594 C 189.158 14.505,188.591 14.354,187.893 13.988 C 187.240 13.644,186.611 13.466,185.774 13.389 C 185.024 13.319,184.312 13.134,183.850 12.889 C 183.287 12.590,182.852 12.500,181.970 12.500 C 180.723 12.500,179.928 12.246,179.433 11.690 C 179.196 11.424,178.921 11.333,178.349 11.332 C 176.978 11.331,175.675 11.036,175.175 10.616 C 174.780 10.283,174.441 10.198,173.142 10.101 C 171.880 10.006,171.471 9.906,170.991 9.575 C 170.503 9.239,170.197 9.167,169.256 9.167 C 168.259 9.167,168.008 9.100,167.300 8.645 C 166.647 8.226,166.223 8.097,165.151 7.989 C 164.195 7.892,163.607 7.733,163.086 7.427 C 162.592 7.137,162.099 6.996,161.554 6.988 C 159.920 6.963,159.033 6.751,158.597 6.281 C 158.235 5.889,158.051 5.832,157.133 5.823 C 155.421 5.807,154.491 5.596,154.153 5.148 L 153.853 4.750 148.604 4.696 L 143.355 4.642 143.116 5.113 M124.689 35.831 C 124.381 35.905,123.910 36.127,123.644 36.323 C 123.270 36.600,122.782 36.714,121.484 36.827 C 120.308 36.929,119.714 37.056,119.498 37.252 C 119.312 37.421,118.579 37.622,117.650 37.761 C 116.394 37.949,116.026 38.072,115.649 38.433 C 115.235 38.830,115.016 38.887,113.515 38.991 C 112.396 39.069,111.744 39.191,111.546 39.362 C 111.094 39.750,110.714 39.845,109.034 39.987 C 107.664 40.103,107.430 40.171,107.006 40.578 C 106.577 40.989,106.361 41.049,104.941 41.157 C 103.604 41.258,103.268 41.344,102.795 41.704 C 102.354 42.040,101.954 42.158,100.922 42.255 C 100.134 42.329,99.271 42.533,98.763 42.766 C 98.297 42.979,97.466 43.198,96.916 43.253 C 95.583 43.386,95.316 43.476,94.883 43.940 C 94.681 44.156,94.344 44.339,94.133 44.345 C 91.846 44.416,90.766 44.628,90.375 45.082 C 90.000 45.519,89.874 45.553,88.362 45.629 C 87.061 45.694,86.617 45.787,86.063 46.109 C 85.560 46.400,85.008 46.536,84.008 46.613 C 82.348 46.741,82.057 46.944,81.837 48.127 C 81.583 49.498,81.553 52.712,81.795 52.793 C 82.539 53.041,82.693 53.400,82.839 55.233 C 82.938 56.462,83.066 57.130,83.242 57.324 C 83.389 57.487,83.577 58.211,83.681 59.013 C 83.781 59.785,84.012 60.735,84.196 61.125 L 84.530 61.833 93.369 61.833 L 102.209 61.833 102.125 60.958 C 101.960 59.253,101.532 59.470,108.750 57.601 C 113.252 56.436,114.836 56.019,116.083 55.672 C 116.358 55.595,117.746 55.224,119.167 54.847 C 121.885 54.125,122.347 53.900,122.964 52.994 C 123.601 52.058,126.275 42.935,127.156 38.693 C 127.410 37.472,127.520 37.234,128.068 36.732 C 128.412 36.417,128.662 36.068,128.624 35.955 C 128.544 35.712,125.572 35.618,124.689 35.831 M178.942 53.095 C 174.935 53.990,171.927 56.436,170.141 60.252 C 169.329 61.989,168.243 61.834,181.203 61.831 C 193.741 61.828,193.190 61.880,192.758 60.749 C 190.705 55.373,184.395 51.878,178.942 53.095 M331.249 102.417 C 331.249 124.783,331.268 133.909,331.292 122.695 C 331.315 111.481,331.315 93.181,331.292 82.028 C 331.268 70.875,331.249 80.050,331.249 102.417 M99.708 77.948 C 99.869 77.990,100.131 77.990,100.292 77.948 C 100.452 77.906,100.321 77.872,100.000 77.872 C 99.679 77.872,99.548 77.906,99.708 77.948 M101.542 77.948 C 101.702 77.990,101.965 77.990,102.125 77.948 C 102.285 77.906,102.154 77.872,101.833 77.872 C 101.513 77.872,101.381 77.906,101.542 77.948 M227.875 77.948 C 228.035 77.990,228.298 77.990,228.458 77.948 C 228.619 77.906,228.487 77.872,228.167 77.872 C 227.846 77.872,227.715 77.906,227.875 77.948 M216.824 82.292 L 216.250 82.917 216.875 82.342 C 217.219 82.026,217.500 81.745,217.500 81.717 C 217.500 81.590,217.359 81.710,216.824 82.292 M314.872 83.500 C 314.872 83.821,314.906 83.952,314.948 83.792 C 314.990 83.631,314.990 83.369,314.948 83.208 C 314.906 83.048,314.872 83.179,314.872 83.500 M135.795 88.121 C 136.094 88.158,136.544 88.157,136.795 88.119 C 137.045 88.081,136.800 88.051,136.250 88.052 C 135.700 88.053,135.495 88.084,135.795 88.121 M259.963 88.289 C 260.355 88.324,260.955 88.324,261.296 88.288 C 261.637 88.252,261.317 88.223,260.583 88.224 C 259.850 88.224,259.571 88.254,259.963 88.289 M121.068 89.064 C 121.019 89.191,121.004 89.623,121.035 90.023 C 121.089 90.727,121.093 90.719,121.170 89.791 C 121.251 88.819,121.227 88.648,121.068 89.064 M182.727 90.500 C 182.727 91.371,182.755 91.727,182.789 91.292 C 182.824 90.856,182.824 90.144,182.789 89.708 C 182.755 89.273,182.727 89.629,182.727 90.500 M111.208 90.121 C 111.552 90.157,112.115 90.157,112.458 90.121 C 112.802 90.085,112.521 90.056,111.833 90.056 C 111.146 90.056,110.865 90.085,111.208 90.121 M238.208 90.123 C 238.735 90.156,239.598 90.156,240.125 90.123 C 240.652 90.090,240.221 90.063,239.167 90.063 C 238.112 90.063,237.681 90.090,238.208 90.123 M172.833 91.250 C 173.144 91.571,173.436 91.833,173.482 91.833 C 173.528 91.833,173.311 91.571,173.000 91.250 C 172.689 90.929,172.397 90.667,172.351 90.667 C 172.305 90.667,172.522 90.929,172.833 91.250 M222.167 91.552 C 222.167 91.581,222.410 91.825,222.708 92.094 L 223.250 92.583 222.760 92.042 C 222.304 91.537,222.167 91.423,222.167 91.552 M315.076 100.833 C 315.076 104.638,315.098 106.194,315.125 104.292 C 315.152 102.390,315.152 99.277,315.125 97.375 C 315.098 95.473,315.076 97.029,315.076 100.833 M89.667 95.750 C 89.978 96.071,90.270 96.333,90.315 96.333 C 90.361 96.333,90.144 96.071,89.833 95.750 C 89.522 95.429,89.230 95.167,89.185 95.167 C 89.139 95.167,89.356 95.429,89.667 95.750 M145.209 96.250 C 145.211 96.617,145.245 96.747,145.285 96.540 C 145.324 96.332,145.323 96.032,145.281 95.873 C 145.239 95.714,145.207 95.883,145.209 96.250 M152.045 96.500 C 152.045 96.912,152.078 97.081,152.118 96.875 C 152.157 96.669,152.157 96.331,152.118 96.125 C 152.078 95.919,152.045 96.087,152.045 96.500 M138.539 100.000 C 138.539 100.321,138.573 100.452,138.615 100.292 C 138.657 100.131,138.657 99.869,138.615 99.708 C 138.573 99.548,138.539 99.679,138.539 100.000 M167.375 100.115 C 167.535 100.157,167.798 100.157,167.958 100.115 C 168.119 100.073,167.987 100.039,167.667 100.039 C 167.346 100.039,167.215 100.073,167.375 100.115 M257.383 100.624 C 258.190 100.655,259.465 100.655,260.217 100.624 C 260.968 100.593,260.308 100.568,258.750 100.568 C 257.192 100.568,256.577 100.594,257.383 100.624 M308.226 103.083 C 308.225 103.908,308.254 104.267,308.288 103.880 C 308.323 103.493,308.324 102.818,308.289 102.380 C 308.255 101.942,308.226 102.258,308.226 103.083 M127.570 105.750 C 127.570 107.583,127.594 108.356,127.624 107.467 C 127.654 106.578,127.654 105.078,127.624 104.134 C 127.595 103.189,127.570 103.917,127.570 105.750 M175.718 103.417 C 175.719 103.967,175.750 104.172,175.787 103.872 C 175.825 103.572,175.824 103.122,175.786 102.872 C 175.748 102.622,175.717 102.867,175.718 103.417 M201.888 103.583 C 201.889 104.225,201.919 104.467,201.955 104.121 C 201.991 103.775,201.990 103.250,201.954 102.955 C 201.917 102.659,201.887 102.942,201.888 103.583 M153.824 103.625 L 153.250 104.250 153.875 103.676 C 154.219 103.360,154.500 103.078,154.500 103.051 C 154.500 102.923,154.359 103.043,153.824 103.625 M269.455 105.620 C 269.750 105.657,270.275 105.658,270.621 105.622 C 270.967 105.586,270.725 105.555,270.083 105.555 C 269.442 105.554,269.159 105.583,269.455 105.620 M145.408 111.250 C 145.408 114.367,145.431 115.618,145.458 114.031 C 145.486 112.444,145.485 109.894,145.458 108.364 C 145.431 106.835,145.408 108.133,145.408 111.250 M255.960 105.785 C 256.168 105.824,256.468 105.823,256.627 105.781 C 256.786 105.739,256.617 105.707,256.250 105.709 C 255.883 105.711,255.753 105.745,255.960 105.785 M215.083 106.280 C 217.524 106.400,219.963 106.406,219.891 106.292 C 219.849 106.223,218.524 106.181,216.948 106.199 C 215.373 106.216,214.533 106.253,215.083 106.280 M108.372 108.167 C 108.372 108.487,108.406 108.619,108.448 108.458 C 108.490 108.298,108.490 108.035,108.448 107.875 C 108.406 107.715,108.372 107.846,108.372 108.167 M138.712 108.667 C 138.712 109.079,138.745 109.248,138.784 109.042 C 138.824 108.835,138.824 108.498,138.784 108.292 C 138.745 108.085,138.712 108.254,138.712 108.667 M175.881 110.750 C 175.882 111.208,175.915 111.376,175.953 111.123 C 175.991 110.869,175.990 110.494,175.951 110.289 C 175.911 110.084,175.880 110.292,175.881 110.750 M121.071 114.583 C 121.071 116.508,121.095 117.273,121.124 116.283 C 121.154 115.292,121.154 113.717,121.124 112.783 C 121.095 111.848,121.070 112.658,121.071 114.583 M112.658 114.958 L 112.083 115.583 112.708 115.009 C 113.290 114.474,113.410 114.333,113.283 114.333 C 113.255 114.333,112.974 114.615,112.658 114.958 M250.500 114.385 C 250.500 114.414,250.744 114.658,251.042 114.927 L 251.583 115.417 251.094 114.875 C 250.638 114.370,250.500 114.257,250.500 114.385 M270.991 115.292 L 270.417 115.917 271.042 115.342 C 271.623 114.808,271.743 114.667,271.616 114.667 C 271.588 114.667,271.307 114.948,270.991 115.292 M182.572 121.833 C 182.572 123.987,182.595 124.869,182.624 123.792 C 182.653 122.715,182.653 120.952,182.624 119.875 C 182.595 118.798,182.572 119.679,182.572 121.833 M141.375 118.289 C 141.810 118.324,142.523 118.324,142.958 118.289 C 143.394 118.255,143.037 118.227,142.167 118.227 C 141.296 118.227,140.940 118.255,141.375 118.289 M144.125 118.284 C 144.331 118.324,144.669 118.324,144.875 118.284 C 145.081 118.245,144.912 118.212,144.500 118.212 C 144.087 118.212,143.919 118.245,144.125 118.284 M261.875 118.782 C 262.035 118.823,262.298 118.823,262.458 118.782 C 262.619 118.740,262.487 118.705,262.167 118.705 C 261.846 118.705,261.715 118.740,261.875 118.782 M228.542 118.948 C 228.702 118.990,228.965 118.990,229.125 118.948 C 229.285 118.906,229.154 118.872,228.833 118.872 C 228.512 118.872,228.381 118.906,228.542 118.948 M189.389 126.000 C 189.389 126.688,189.419 126.969,189.455 126.625 C 189.491 126.281,189.491 125.719,189.455 125.375 C 189.419 125.031,189.389 125.313,189.389 126.000 M186.123 143.333 L 96.496 143.417 96.918 144.038 C 97.490 144.879,97.683 144.957,99.555 145.094 C 101.080 145.206,101.202 145.242,101.553 145.691 C 101.908 146.144,102.018 146.176,103.727 146.309 C 105.357 146.436,105.565 146.490,105.927 146.881 C 106.337 147.322,106.603 147.386,108.806 147.574 C 109.491 147.633,110.006 147.779,110.275 147.990 C 110.549 148.205,111.090 148.355,111.874 148.432 C 112.698 148.513,113.342 148.699,113.988 149.041 C 114.710 149.423,115.213 149.553,116.250 149.625 C 117.496 149.713,117.617 149.755,118.095 150.276 C 118.491 150.707,118.741 150.833,119.197 150.833 C 119.554 150.833,120.034 151.001,120.413 151.258 C 120.757 151.492,121.058 151.661,121.080 151.633 C 121.103 151.606,121.214 151.406,121.327 151.189 C 121.513 150.832,121.613 150.803,122.391 150.883 C 123.168 150.963,133.730 153.669,137.417 154.732 C 138.242 154.970,141.129 155.738,143.833 156.439 C 146.537 157.140,149.425 157.899,150.250 158.125 C 151.075 158.351,152.500 158.715,153.417 158.935 C 154.333 159.154,155.571 159.480,156.167 159.660 C 156.762 159.840,159.125 160.479,161.417 161.080 C 163.708 161.681,166.408 162.399,167.417 162.676 C 169.397 163.221,174.197 164.469,178.333 165.516 C 181.508 166.319,182.629 166.624,182.803 166.731 C 182.876 166.776,185.894 167.570,189.510 168.496 C 196.454 170.272,197.517 170.642,197.671 171.333 C 197.762 171.740,197.808 171.752,199.597 171.839 C 201.168 171.914,201.508 171.983,201.978 172.318 C 202.386 172.608,202.898 172.749,203.972 172.865 C 204.963 172.973,205.626 173.144,206.083 173.410 C 206.509 173.658,207.173 173.841,207.917 173.917 C 208.674 173.993,209.347 174.181,209.833 174.452 C 210.430 174.784,210.939 174.896,212.327 175.001 C 213.941 175.122,214.100 175.165,214.462 175.587 C 214.825 176.009,214.978 176.051,216.613 176.169 C 218.214 176.285,218.409 176.336,218.777 176.731 C 218.999 176.971,219.308 177.172,219.465 177.179 C 221.524 177.264,222.701 177.474,223.071 177.822 C 223.386 178.118,223.750 178.221,224.797 178.311 C 225.852 178.402,226.258 178.518,226.776 178.877 C 227.301 179.241,227.725 179.359,228.956 179.487 C 230.080 179.603,230.612 179.739,230.967 180.002 C 231.308 180.254,231.949 180.429,233.149 180.597 C 234.380 180.769,234.987 180.937,235.352 181.207 C 235.773 181.518,236.139 181.593,237.584 181.665 C 239.173 181.743,239.350 181.786,239.781 182.197 C 240.149 182.547,240.483 182.669,241.333 182.762 C 241.929 182.826,242.979 183.083,243.667 183.332 C 244.354 183.581,245.428 183.831,246.053 183.887 C 246.931 183.966,247.304 184.086,247.691 184.411 C 247.967 184.643,248.318 184.838,248.471 184.844 C 250.178 184.908,251.491 185.150,251.943 185.484 C 252.548 185.931,253.442 186.157,254.628 186.163 C 255.270 186.166,255.747 186.295,256.400 186.644 C 257.108 187.022,257.609 187.145,258.811 187.239 C 260.159 187.345,260.365 187.405,260.657 187.776 C 260.942 188.138,261.171 188.211,262.377 188.321 C 263.418 188.416,263.955 188.557,264.513 188.884 C 265.055 189.202,265.658 189.367,266.719 189.487 C 267.786 189.608,268.324 189.756,268.715 190.035 C 269.212 190.389,269.447 190.421,272.021 190.472 L 274.791 190.527 274.909 189.722 C 274.973 189.279,275.183 188.654,275.376 188.333 C 275.651 187.875,275.741 187.394,275.796 186.083 C 275.862 184.508,275.894 184.388,276.360 183.898 C 276.804 183.432,276.869 183.221,277.003 181.806 C 277.178 179.961,277.238 179.768,277.740 179.438 C 278.050 179.236,278.135 178.995,278.205 178.127 C 278.251 177.542,278.447 176.707,278.640 176.272 C 278.843 175.812,279.058 174.816,279.152 173.893 C 279.288 172.569,279.390 172.207,279.767 171.712 C 280.153 171.207,280.240 170.884,280.354 169.536 C 280.462 168.248,280.566 167.839,280.910 167.342 C 281.159 166.983,281.335 166.496,281.337 166.158 C 281.344 165.266,281.645 164.166,282.030 163.624 C 282.278 163.276,282.430 162.689,282.549 161.608 C 282.681 160.420,282.807 159.965,283.123 159.549 C 283.458 159.108,283.554 158.718,283.676 157.313 C 283.806 155.816,283.876 155.557,284.257 155.160 C 284.624 154.776,284.703 154.511,284.782 153.396 C 284.857 152.334,284.965 151.945,285.347 151.358 C 285.606 150.959,285.869 150.284,285.932 149.858 C 285.995 149.432,286.223 148.742,286.440 148.324 C 286.760 147.708,287.134 145.926,287.162 144.888 C 287.164 144.780,287.352 144.472,287.579 144.203 C 288.179 143.489,288.290 143.504,281.847 143.459 C 278.585 143.437,288.329 143.380,303.500 143.333 L 331.083 143.249 303.417 143.249 C 288.200 143.249,235.418 143.287,186.123 143.333 M120.419 157.997 C 120.106 158.503,120.550 161.489,120.997 161.888 C 121.418 162.263,121.454 162.405,121.549 164.083 C 121.635 165.596,121.706 165.937,122.003 166.253 C 122.280 166.548,122.387 166.960,122.500 168.164 C 122.617 169.411,122.727 169.819,123.088 170.339 C 123.440 170.848,123.555 171.259,123.647 172.331 C 123.752 173.548,123.810 173.719,124.237 174.059 C 124.761 174.477,124.972 175.323,124.990 177.073 C 124.998 177.854,125.077 178.144,125.368 178.453 C 125.666 178.771,125.754 179.116,125.837 180.297 C 125.917 181.438,126.033 181.911,126.374 182.500 C 126.651 182.978,126.871 183.706,126.981 184.505 C 127.076 185.196,127.300 186.096,127.480 186.505 C 127.660 186.915,127.855 187.550,127.913 187.917 C 128.151 189.414,128.001 189.290,129.730 189.419 C 131.003 189.515,131.384 189.488,131.772 189.274 C 133.038 188.577,133.680 188.365,134.829 188.265 C 135.869 188.175,136.152 188.084,136.539 187.712 C 136.957 187.312,137.170 187.256,138.627 187.161 C 139.912 187.077,140.410 186.968,141.018 186.637 C 141.576 186.333,142.166 186.187,143.181 186.102 C 144.323 186.007,144.716 185.896,145.344 185.493 C 145.767 185.222,146.339 185.000,146.617 185.000 C 147.479 185.000,148.879 184.676,149.566 184.318 C 149.962 184.112,150.693 183.940,151.403 183.886 C 152.281 183.819,152.741 183.689,153.200 183.381 C 153.686 183.054,154.190 182.924,155.566 182.770 C 157.017 182.608,157.387 182.508,157.736 182.180 C 158.082 181.855,158.456 181.752,159.870 181.592 C 160.877 181.478,161.755 181.285,162.000 181.125 C 162.229 180.975,163.072 180.771,163.873 180.671 C 165.494 180.471,165.734 180.403,166.333 179.975 C 166.573 179.804,167.289 179.613,168.022 179.524 C 168.893 179.419,169.535 179.229,170.058 178.923 C 170.644 178.579,171.123 178.454,172.119 178.383 C 173.159 178.310,173.558 178.199,174.131 177.828 C 174.731 177.437,175.097 177.345,176.431 177.245 C 177.303 177.179,178.109 177.034,178.220 176.923 C 178.635 176.507,179.133 176.355,180.625 176.189 C 182.856 175.940,183.408 175.548,182.208 175.064 C 181.865 174.925,181.096 174.562,180.500 174.256 C 179.286 173.633,178.682 173.453,172.083 171.746 C 169.517 171.081,167.004 170.415,166.500 170.265 C 165.578 169.991,162.441 169.170,156.583 167.669 C 154.842 167.223,152.817 166.691,152.083 166.488 C 151.350 166.284,149.850 165.867,148.750 165.562 C 147.650 165.256,145.100 164.589,143.083 164.080 C 141.067 163.570,138.929 163.010,138.333 162.834 C 136.919 162.417,131.431 160.968,128.202 160.158 C 125.310 159.432,123.988 158.892,123.578 158.266 C 123.279 157.809,120.672 157.587,120.419 157.997 " stroke="none" fill="#eb4c4c" fill-rule="evenodd"></path><path id="path2" d="M143.106 4.708 C 142.766 5.250,142.529 6.089,142.346 7.396 C 142.245 8.120,142.067 8.672,141.862 8.896 C 141.448 9.349,141.377 9.606,141.180 11.366 C 141.057 12.454,140.911 12.974,140.592 13.457 C 140.298 13.902,140.118 14.483,140.008 15.350 C 139.921 16.038,139.696 16.959,139.508 17.397 C 139.320 17.836,139.170 18.319,139.174 18.472 C 139.194 19.228,140.099 16.166,140.259 14.804 C 140.318 14.300,140.516 13.815,140.822 13.431 C 141.237 12.909,141.308 12.646,141.413 11.246 C 141.512 9.919,141.598 9.576,141.927 9.185 C 142.146 8.925,142.366 8.390,142.422 7.983 C 142.591 6.745,142.867 5.606,143.116 5.113 L 143.355 4.642 148.578 4.696 L 153.802 4.750 154.226 5.208 C 154.472 5.474,154.812 5.659,155.034 5.647 C 155.371 5.630,155.377 5.619,155.083 5.552 C 154.900 5.511,154.591 5.286,154.396 5.054 C 153.750 4.282,143.569 3.970,143.106 4.708 M244.080 4.492 C 241.411 4.583,241.409 4.584,240.593 5.125 C 240.144 5.423,239.896 5.667,240.042 5.667 C 240.188 5.667,240.553 5.460,240.852 5.208 L 241.397 4.750 250.657 4.630 C 255.750 4.564,260.010 4.543,260.125 4.583 C 260.269 4.634,260.333 5.077,260.333 6.011 C 260.333 7.312,260.354 7.386,260.851 7.850 C 261.304 8.273,261.395 8.514,261.585 9.792 C 261.780 11.112,262.653 13.670,262.663 12.952 C 262.665 12.788,262.504 12.338,262.305 11.952 C 262.104 11.562,261.850 10.583,261.733 9.752 C 261.551 8.447,261.463 8.201,261.054 7.849 C 260.610 7.468,260.580 7.356,260.526 5.889 L 260.468 4.333 253.609 4.367 C 249.837 4.385,245.548 4.442,244.080 4.492 M156.292 5.787 C 156.590 5.824,157.077 5.824,157.375 5.787 C 157.673 5.750,157.429 5.720,156.833 5.720 C 156.237 5.720,155.994 5.750,156.292 5.787 M237.788 5.787 C 238.084 5.824,238.609 5.824,238.955 5.788 C 239.300 5.752,239.058 5.722,238.417 5.721 C 237.775 5.721,237.492 5.750,237.788 5.787 M158.597 6.281 C 159.033 6.751,159.920 6.963,161.554 6.988 C 162.099 6.996,162.592 7.137,163.086 7.427 C 163.607 7.733,164.195 7.892,165.151 7.989 C 166.223 8.097,166.647 8.226,167.300 8.645 C 168.013 9.103,168.256 9.167,169.284 9.167 C 170.231 9.167,170.547 9.236,170.936 9.531 L 171.417 9.896 171.032 9.469 C 170.696 9.096,170.482 9.032,169.332 8.966 C 168.246 8.903,167.901 8.810,167.362 8.437 C 166.842 8.076,166.412 7.953,165.250 7.833 C 164.150 7.720,163.643 7.583,163.187 7.276 C 162.689 6.940,162.292 6.849,160.917 6.756 C 159.465 6.658,159.195 6.591,158.824 6.238 C 158.249 5.691,158.080 5.723,158.597 6.281 M236.340 6.231 C 236.199 6.604,236.079 6.637,234.470 6.746 C 233.062 6.841,232.638 6.935,232.131 7.263 C 231.698 7.543,231.157 7.696,230.326 7.773 C 229.462 7.854,228.972 7.997,228.528 8.300 C 228.192 8.529,227.729 8.773,227.500 8.844 C 227.173 8.944,227.153 8.974,227.408 8.986 C 227.586 8.994,228.012 8.806,228.355 8.569 C 228.810 8.253,229.327 8.095,230.280 7.980 C 231.160 7.873,231.744 7.705,232.079 7.462 C 232.473 7.175,232.960 7.068,234.454 6.941 C 235.488 6.853,236.333 6.718,236.333 6.641 C 236.333 6.563,236.483 6.350,236.667 6.167 C 236.931 5.903,236.947 5.833,236.746 5.833 C 236.606 5.833,236.424 6.012,236.340 6.231 M224.218 9.427 L 223.750 9.855 224.242 9.552 C 224.529 9.375,225.221 9.209,225.908 9.152 L 227.083 9.054 225.884 9.027 C 224.810 9.003,224.637 9.045,224.218 9.427 M172.667 9.988 C 172.804 10.083,173.305 10.163,173.779 10.164 C 174.453 10.166,174.749 10.258,175.136 10.583 C 175.409 10.813,175.686 11.000,175.753 11.000 C 175.969 11.000,175.454 10.485,175.012 10.258 C 174.474 9.983,172.298 9.732,172.667 9.988 M222.625 9.951 C 222.831 9.991,223.169 9.991,223.375 9.951 C 223.581 9.911,223.412 9.879,223.000 9.879 C 222.588 9.879,222.419 9.911,222.625 9.951 M219.956 10.488 C 219.600 10.801,219.164 11.000,218.742 11.043 L 218.083 11.111 218.783 11.139 C 219.325 11.160,219.585 11.072,219.937 10.746 C 220.405 10.312,220.668 10.216,221.667 10.113 C 222.088 10.070,222.008 10.046,221.381 10.027 C 220.637 10.004,220.432 10.070,219.956 10.488 M176.667 11.172 C 177.079 11.247,177.799 11.314,178.266 11.321 C 178.913 11.330,179.191 11.418,179.433 11.690 C 179.928 12.246,180.723 12.500,181.970 12.500 C 182.880 12.500,183.283 12.588,183.917 12.925 C 184.436 13.201,184.899 13.328,185.233 13.285 L 185.750 13.220 185.192 13.193 C 184.886 13.179,184.423 13.016,184.164 12.832 C 183.624 12.447,182.336 12.167,181.110 12.167 C 180.409 12.167,180.180 12.085,179.758 11.687 C 179.286 11.242,179.133 11.202,177.583 11.122 C 176.461 11.064,176.161 11.080,176.667 11.172 M216.103 11.339 C 215.839 11.418,215.461 11.635,215.264 11.820 C 215.021 12.049,214.503 12.213,213.661 12.330 C 211.903 12.574,211.496 13.133,212.368 14.104 L 212.686 14.459 211.690 14.531 C 210.935 14.585,210.522 14.721,209.986 15.093 C 209.360 15.527,209.095 15.594,207.671 15.680 C 206.362 15.759,205.968 15.847,205.556 16.152 C 205.113 16.479,203.634 16.804,202.482 16.828 C 202.334 16.831,201.941 17.018,201.608 17.244 L 201.003 17.655 200.592 17.244 C 200.367 17.018,200.010 16.842,199.799 16.853 C 199.462 16.870,199.456 16.881,199.750 16.949 C 199.933 16.991,200.355 17.313,200.688 17.665 C 201.492 18.514,202.084 18.801,204.167 19.347 C 205.129 19.600,208.504 20.481,211.667 21.306 C 214.829 22.130,218.129 23.005,219.000 23.250 C 219.871 23.496,220.846 23.758,221.167 23.834 C 221.487 23.909,223.025 24.316,224.583 24.738 C 226.142 25.160,228.167 25.687,229.083 25.910 C 230.000 26.133,231.838 26.622,233.167 26.995 C 234.496 27.369,238.171 28.347,241.333 29.168 C 244.496 29.990,248.883 31.150,251.083 31.745 C 253.283 32.340,256.846 33.284,259.000 33.843 C 261.154 34.401,263.404 35.007,264.000 35.188 C 264.836 35.442,265.791 35.540,268.178 35.617 L 271.273 35.717 271.545 36.192 C 271.726 36.507,271.947 36.662,272.201 36.654 C 272.568 36.641,272.566 36.634,272.149 36.481 C 271.910 36.393,271.631 36.137,271.528 35.911 C 271.343 35.505,271.315 35.500,269.170 35.500 L 267.000 35.500 267.000 34.636 C 267.000 34.019,266.909 33.673,266.684 33.427 C 266.506 33.234,266.251 32.512,266.102 31.783 C 265.936 30.967,265.681 30.278,265.419 29.934 C 264.945 29.313,264.845 28.618,265.252 28.774 C 265.517 28.876,266.000 28.571,266.000 28.301 C 266.000 28.214,265.880 28.263,265.732 28.411 C 265.441 28.702,265.445 28.704,264.389 27.813 C 263.682 27.217,262.403 26.758,259.592 26.092 C 257.566 25.612,254.022 24.693,250.594 23.758 C 249.186 23.374,248.229 22.920,247.221 22.160 L 246.344 21.498 244.714 21.598 C 243.561 21.669,242.766 21.627,242.000 21.455 C 240.169 21.042,236.220 20.012,235.722 19.817 C 235.462 19.716,233.825 19.271,232.083 18.828 C 226.207 17.336,221.260 16.033,219.505 15.517 C 218.545 15.234,216.679 14.853,215.357 14.670 C 212.659 14.296,212.175 14.076,212.169 13.226 C 212.166 12.792,212.411 12.690,213.890 12.504 C 214.781 12.392,215.139 12.262,215.494 11.923 C 215.839 11.592,216.211 11.451,217.017 11.347 C 217.946 11.227,217.986 11.208,217.333 11.202 C 216.921 11.198,216.367 11.260,216.103 11.339 M186.667 13.502 C 186.987 13.573,187.619 13.827,188.070 14.066 C 188.521 14.305,189.083 14.495,189.320 14.489 C 189.670 14.480,189.626 14.439,189.083 14.266 C 188.717 14.150,188.101 13.893,187.715 13.694 C 187.329 13.496,186.804 13.342,186.548 13.352 C 186.121 13.370,186.131 13.382,186.667 13.502 M262.776 14.250 C 262.827 14.800,262.989 15.438,263.137 15.667 C 263.297 15.915,263.485 16.821,263.602 17.910 C 263.765 19.417,263.860 19.785,264.147 20.018 C 264.609 20.392,264.766 20.852,264.907 22.250 C 264.972 22.897,265.179 23.714,265.372 24.083 C 265.564 24.450,265.821 25.125,265.943 25.583 L 266.166 26.417 266.079 25.693 C 266.031 25.295,265.829 24.658,265.632 24.276 C 265.420 23.868,265.188 22.935,265.065 22.003 C 264.883 20.610,264.805 20.379,264.407 20.062 C 263.992 19.731,263.940 19.551,263.755 17.810 C 263.639 16.722,263.436 15.704,263.277 15.417 C 263.126 15.142,262.994 14.729,262.984 14.500 C 262.975 14.271,262.903 13.896,262.825 13.667 C 262.732 13.394,262.715 13.597,262.776 14.250 M190.766 14.651 C 191.417 14.730,191.710 14.865,192.022 15.228 C 192.388 15.653,192.580 15.716,193.923 15.852 C 194.744 15.935,195.829 16.143,196.333 16.314 C 197.182 16.602,199.519 16.963,199.332 16.777 C 199.287 16.732,198.667 16.614,197.954 16.515 C 197.241 16.417,196.491 16.229,196.287 16.098 C 196.084 15.967,195.467 15.814,194.917 15.758 C 192.683 15.528,192.539 15.490,192.018 14.992 C 191.584 14.577,191.378 14.504,190.710 14.523 L 189.917 14.547 190.766 14.651 M138.945 19.817 C 138.883 20.403,138.833 21.173,138.833 21.528 C 138.833 22.054,138.757 22.209,138.419 22.362 C 137.954 22.574,137.892 22.829,137.771 24.996 C 137.728 25.772,137.623 26.431,137.537 26.460 C 136.985 26.644,136.824 26.988,136.661 28.333 C 136.567 29.113,136.305 30.294,136.078 30.960 C 135.793 31.799,135.667 32.532,135.667 33.353 C 135.667 34.366,135.629 34.521,135.401 34.434 C 134.307 34.014,133.391 34.147,132.602 34.839 C 131.874 35.478,130.671 35.645,127.554 35.539 C 124.813 35.445,124.198 35.528,123.614 36.070 C 123.379 36.287,123.088 36.505,122.968 36.553 C 122.817 36.613,122.812 36.644,122.951 36.654 C 123.061 36.661,123.421 36.484,123.749 36.261 C 124.437 35.794,125.534 35.621,127.320 35.697 C 128.799 35.760,128.930 35.942,128.068 36.732 C 127.520 37.234,127.410 37.472,127.156 38.693 C 126.275 42.935,123.601 52.058,122.964 52.994 C 122.347 53.900,121.885 54.125,119.167 54.847 C 117.746 55.224,116.358 55.595,116.083 55.672 C 114.836 56.019,113.252 56.436,108.750 57.601 C 101.532 59.470,101.960 59.253,102.125 60.958 L 102.209 61.833 115.698 61.833 C 123.658 61.833,129.148 61.772,129.094 61.683 C 129.004 61.538,129.823 58.155,130.166 57.251 C 130.259 57.006,130.555 55.887,130.824 54.764 C 131.092 53.641,131.622 51.641,132.001 50.319 C 132.381 48.998,133.355 45.442,134.166 42.417 C 134.977 39.392,135.724 36.699,135.826 36.434 C 135.947 36.118,135.973 35.309,135.903 34.100 C 135.803 32.383,135.827 32.162,136.229 31.020 C 136.467 30.343,136.738 29.183,136.831 28.443 C 136.973 27.303,137.066 27.043,137.430 26.753 C 137.827 26.437,137.873 26.261,138.008 24.582 C 138.149 22.818,138.330 22.333,138.850 22.333 C 138.988 22.333,139.241 19.305,139.130 18.974 C 139.089 18.851,139.006 19.231,138.945 19.817 M156.171 23.163 C 155.551 23.782,155.582 23.683,153.007 33.482 C 152.540 35.259,152.116 36.781,152.065 36.863 C 152.014 36.946,151.574 38.567,151.087 40.465 C 150.600 42.363,149.735 45.604,149.164 47.667 C 147.879 52.308,146.812 56.209,146.001 59.226 C 145.659 60.496,145.276 61.601,145.148 61.682 C 145.014 61.767,150.127 61.829,157.359 61.831 C 169.359 61.833,169.799 61.822,169.722 61.527 C 169.612 61.105,171.081 58.361,171.991 57.290 C 176.654 51.796,184.598 51.326,189.589 56.250 C 191.538 58.173,193.404 61.309,192.820 61.679 C 192.680 61.767,214.687 61.829,246.792 61.831 C 279.295 61.832,301.000 61.773,301.000 61.681 C 301.000 61.319,299.943 60.693,298.891 60.434 C 298.263 60.279,297.037 59.933,296.167 59.666 C 295.296 59.398,292.933 58.760,290.917 58.246 C 285.908 56.972,282.429 56.059,281.333 55.732 C 280.829 55.581,277.567 54.722,274.083 53.823 C 270.600 52.924,267.337 52.069,266.833 51.922 C 264.909 51.362,262.786 50.790,259.083 49.833 C 252.387 48.103,248.461 47.065,246.917 46.619 C 246.092 46.380,243.617 45.728,241.417 45.169 C 239.217 44.610,236.817 43.976,236.083 43.759 C 235.350 43.543,233.438 43.025,231.833 42.608 C 230.229 42.192,227.192 41.403,225.083 40.856 C 222.975 40.308,220.612 39.671,219.833 39.439 C 219.054 39.208,215.754 38.336,212.500 37.501 C 209.246 36.667,206.358 35.917,206.083 35.834 C 205.808 35.752,202.733 34.940,199.250 34.030 C 195.767 33.121,192.467 32.247,191.917 32.090 C 191.367 31.932,187.504 30.910,183.333 29.817 C 179.162 28.725,174.925 27.604,173.917 27.327 C 172.328 26.891,169.231 26.071,163.000 24.435 C 162.129 24.207,160.442 23.753,159.250 23.427 C 156.727 22.737,156.607 22.727,156.171 23.163 M119.917 36.787 C 119.733 36.831,119.460 36.977,119.310 37.110 C 119.159 37.243,118.335 37.458,117.479 37.587 C 116.147 37.787,115.877 37.882,115.614 38.244 C 115.444 38.476,115.181 38.673,115.028 38.680 C 114.834 38.689,114.817 38.720,114.972 38.782 C 115.094 38.830,115.400 38.672,115.652 38.431 C 116.026 38.073,116.397 37.948,117.650 37.761 C 118.605 37.619,119.310 37.422,119.508 37.243 C 119.725 37.047,120.265 36.917,121.205 36.835 L 122.583 36.715 121.417 36.710 C 120.775 36.707,120.100 36.742,119.917 36.787 M274.082 36.791 C 275.236 36.841,275.473 36.905,275.853 37.269 C 276.223 37.623,276.499 37.704,277.604 37.780 C 278.626 37.851,279.110 37.977,279.789 38.352 C 280.495 38.742,280.845 38.828,281.622 38.807 L 282.583 38.781 281.500 38.678 C 280.720 38.603,280.244 38.453,279.798 38.141 C 279.301 37.792,278.900 37.684,277.751 37.588 C 276.592 37.492,276.232 37.394,275.845 37.068 C 275.420 36.710,275.226 36.670,274.059 36.700 L 272.750 36.734 274.082 36.791 M111.314 39.259 C 110.814 39.615,110.464 39.701,109.182 39.784 C 107.827 39.872,107.580 39.939,107.052 40.359 C 106.645 40.682,106.262 40.834,105.852 40.834 C 104.708 40.836,103.253 41.163,102.757 41.530 C 102.484 41.732,101.995 41.950,101.671 42.013 L 101.083 42.128 101.636 42.148 C 102.000 42.160,102.388 42.015,102.772 41.722 C 103.272 41.341,103.585 41.259,104.941 41.157 C 106.361 41.049,106.577 40.989,107.006 40.578 C 107.430 40.171,107.664 40.103,109.034 39.987 C 110.722 39.844,111.093 39.751,111.555 39.353 C 111.757 39.180,112.353 39.055,113.305 38.988 L 114.750 38.886 113.331 38.860 C 112.054 38.836,111.853 38.876,111.314 39.259 M284.152 38.958 C 285.169 39.005,285.473 39.088,285.873 39.425 C 286.437 39.899,286.660 39.957,288.292 40.052 C 289.249 40.108,289.632 40.213,290.126 40.555 C 290.602 40.885,291.087 41.026,292.171 41.148 C 293.169 41.262,293.813 41.436,294.337 41.736 C 294.748 41.971,295.233 42.157,295.417 42.150 C 295.689 42.140,295.674 42.114,295.333 42.008 C 295.104 41.936,294.567 41.689,294.140 41.459 C 293.615 41.178,292.953 41.004,292.103 40.924 C 291.314 40.850,290.701 40.697,290.463 40.515 C 289.867 40.057,289.518 39.964,287.956 39.840 C 286.684 39.740,286.435 39.667,286.030 39.279 C 285.598 38.865,285.472 38.836,284.241 38.866 L 282.917 38.900 284.152 38.958 M98.854 42.530 C 98.453 42.714,97.441 42.967,96.606 43.092 C 95.771 43.218,95.061 43.400,95.029 43.497 C 94.876 43.957,94.420 44.145,93.211 44.248 C 91.661 44.380,91.306 44.472,92.333 44.477 C 93.617 44.482,94.694 44.237,94.982 43.874 C 95.297 43.476,95.576 43.386,96.905 43.254 C 97.449 43.200,98.236 42.996,98.655 42.801 C 99.074 42.607,99.792 42.395,100.250 42.330 L 101.083 42.214 100.333 42.204 C 99.916 42.199,99.259 42.343,98.854 42.530 M296.750 42.291 C 297.238 42.328,297.722 42.478,297.917 42.652 C 298.382 43.068,298.693 43.156,300.057 43.255 C 301.693 43.374,302.019 43.463,302.500 43.919 C 302.843 44.243,303.153 44.330,304.250 44.407 C 305.835 44.519,305.735 44.405,304.110 44.248 C 303.310 44.170,302.873 44.040,302.645 43.812 C 302.170 43.337,301.699 43.200,300.083 43.069 C 298.912 42.974,298.545 42.876,298.168 42.559 C 297.791 42.242,297.531 42.172,296.809 42.197 L 295.917 42.227 296.750 42.291 M90.240 44.943 C 90.015 45.186,89.870 45.426,89.919 45.474 C 89.968 45.523,90.126 45.394,90.272 45.186 C 90.417 44.979,90.696 44.745,90.893 44.665 C 91.190 44.545,91.199 44.519,90.950 44.511 C 90.786 44.505,90.466 44.699,90.240 44.943 M306.037 44.665 C 306.287 44.741,306.691 44.959,306.935 45.151 C 307.179 45.343,307.499 45.494,307.647 45.487 C 307.856 45.477,307.864 45.453,307.683 45.381 C 307.554 45.330,307.187 45.111,306.868 44.894 C 306.548 44.677,306.129 44.506,305.935 44.514 C 305.647 44.526,305.666 44.554,306.037 44.665 M86.174 45.852 C 85.848 46.051,85.088 46.269,84.424 46.354 C 82.146 46.645,82.161 46.640,81.904 47.255 C 81.773 47.567,81.675 48.031,81.685 48.286 C 81.698 48.618,81.744 48.537,81.848 48.000 C 82.050 46.955,82.388 46.738,84.008 46.613 C 85.233 46.518,86.833 45.931,86.833 45.576 C 86.833 45.459,86.790 45.477,86.174 45.852 M87.621 45.620 C 87.917 45.657,88.442 45.658,88.788 45.622 C 89.134 45.586,88.892 45.555,88.250 45.555 C 87.608 45.554,87.325 45.583,87.621 45.620 M308.542 45.619 C 308.794 45.658,309.206 45.658,309.458 45.619 C 309.710 45.581,309.504 45.550,309.000 45.550 C 308.496 45.550,308.290 45.581,308.542 45.619 M310.167 45.682 C 310.167 45.765,310.292 45.833,310.445 45.833 C 310.598 45.833,310.859 45.955,311.023 46.104 C 311.217 46.280,311.870 46.434,312.870 46.542 C 313.915 46.655,314.525 46.803,314.750 47.000 C 315.334 47.511,315.807 47.677,316.959 47.776 C 317.577 47.829,318.496 48.042,319.000 48.250 C 319.504 48.458,320.214 48.693,320.578 48.773 L 321.239 48.917 321.221 51.167 L 321.202 53.417 321.369 51.115 C 321.560 48.461,321.648 48.700,320.418 48.500 C 319.890 48.414,319.277 48.225,319.055 48.080 C 318.834 47.935,318.000 47.743,317.202 47.654 C 316.023 47.521,315.623 47.400,315.072 47.007 C 314.520 46.613,314.126 46.494,312.939 46.364 C 312.113 46.273,311.361 46.098,311.200 45.959 C 310.853 45.659,310.167 45.475,310.167 45.682 M81.464 50.125 C 81.399 52.458,81.436 52.671,81.988 53.148 C 82.461 53.557,82.500 53.684,82.637 55.250 C 82.762 56.679,83.497 58.892,83.499 57.846 C 83.500 57.716,83.384 57.481,83.242 57.325 C 83.066 57.130,82.938 56.463,82.839 55.233 C 82.693 53.400,82.539 53.041,81.795 52.793 C 81.651 52.745,81.606 52.179,81.635 50.780 C 81.658 49.709,81.637 48.833,81.588 48.833 C 81.540 48.833,81.484 49.415,81.464 50.125 M320.498 55.042 C 320.273 55.410,320.175 55.849,320.189 56.417 L 320.210 57.250 320.330 56.325 C 320.395 55.816,320.582 55.197,320.744 54.950 C 320.906 54.702,320.991 54.500,320.933 54.500 C 320.876 54.500,320.680 54.744,320.498 55.042 M320.023 57.855 C 320.010 58.096,319.845 58.396,319.655 58.522 C 319.378 58.706,319.296 58.967,319.245 59.834 L 319.180 60.917 319.338 59.930 C 319.434 59.329,319.632 58.798,319.845 58.571 C 320.065 58.336,320.167 58.055,320.120 57.808 C 320.049 57.437,320.044 57.439,320.023 57.855 M83.542 58.750 C 83.544 59.117,83.578 59.247,83.618 59.040 C 83.658 58.832,83.656 58.532,83.615 58.373 C 83.573 58.214,83.540 58.383,83.542 58.750 M83.833 60.678 C 83.833 60.814,83.943 61.083,84.077 61.274 C 84.212 61.466,84.274 61.670,84.216 61.728 C 84.158 61.786,84.199 61.833,84.306 61.833 C 84.555 61.833,84.558 61.851,84.167 61.083 C 83.983 60.724,83.833 60.541,83.833 60.678 M300.461 61.619 C 300.211 61.657,299.761 61.658,299.461 61.621 C 299.162 61.584,299.367 61.553,299.917 61.552 C 300.467 61.551,300.712 61.581,300.461 61.619 M68.916 102.583 L 68.917 143.417 82.671 143.459 L 96.425 143.502 96.750 144.105 C 97.232 145.001,97.620 145.175,99.361 145.281 C 100.791 145.367,100.959 145.414,101.435 145.864 C 101.841 146.247,102.148 146.370,102.852 146.429 C 105.452 146.649,105.548 146.670,105.936 147.088 C 106.146 147.315,106.490 147.494,106.700 147.486 C 107.045 147.473,107.038 147.458,106.621 147.332 C 106.366 147.256,106.023 147.026,105.858 146.823 C 105.597 146.500,105.322 146.434,103.742 146.310 C 102.017 146.176,101.908 146.145,101.553 145.691 C 101.201 145.242,101.082 145.206,99.548 145.096 C 97.753 144.966,97.383 144.806,96.839 143.925 L 96.473 143.333 82.737 143.333 L 69.001 143.333 68.958 102.542 L 68.916 61.750 68.916 102.583 M226.208 78.115 C 226.369 78.157,226.631 78.157,226.792 78.115 C 226.952 78.073,226.821 78.039,226.500 78.039 C 226.179 78.039,226.048 78.073,226.208 78.115 M229.625 78.118 C 229.831 78.157,230.169 78.157,230.375 78.118 C 230.581 78.078,230.412 78.045,230.000 78.045 C 229.588 78.045,229.419 78.078,229.625 78.118 M103.875 78.282 C 104.035 78.323,104.298 78.323,104.458 78.282 C 104.619 78.240,104.487 78.205,104.167 78.205 C 103.846 78.205,103.715 78.240,103.875 78.282 M106.487 78.845 C 106.983 79.021,107.419 79.137,107.454 79.102 C 107.532 79.024,106.014 78.495,105.762 78.512 C 105.664 78.519,105.990 78.669,106.487 78.845 M222.417 78.911 C 221.773 79.205,222.072 79.210,222.833 78.917 C 223.154 78.793,223.304 78.690,223.167 78.687 C 223.029 78.684,222.692 78.785,222.417 78.911 M235.333 79.500 C 235.654 79.676,235.992 79.819,236.083 79.819 C 236.175 79.819,235.987 79.676,235.667 79.500 C 235.346 79.324,235.008 79.181,234.917 79.181 C 234.825 79.181,235.012 79.324,235.333 79.500 M237.167 80.379 C 237.167 80.411,237.410 80.616,237.708 80.834 C 238.044 81.079,238.160 81.119,238.014 80.939 C 237.792 80.666,237.167 80.253,237.167 80.379 M110.333 80.546 C 110.333 80.578,110.577 80.782,110.875 81.001 C 111.210 81.246,111.327 81.286,111.180 81.106 C 110.958 80.833,110.333 80.420,110.333 80.546 M216.995 82.292 L 215.917 83.417 217.042 82.338 C 217.660 81.745,218.167 81.239,218.167 81.213 C 218.167 81.090,217.997 81.247,216.995 82.292 M239.243 82.167 C 240.560 83.616,240.609 83.662,240.207 83.083 C 240.016 82.808,239.500 82.246,239.060 81.833 C 238.348 81.167,238.369 81.204,239.243 82.167 M112.000 81.917 C 112.311 82.237,112.603 82.500,112.649 82.500 C 112.695 82.500,112.478 82.237,112.167 81.917 C 111.856 81.596,111.564 81.333,111.518 81.333 C 111.472 81.333,111.689 81.596,112.000 81.917 M308.609 81.625 C 308.566 81.694,309.405 81.730,310.474 81.706 C 313.940 81.629,314.310 81.564,311.468 81.532 C 309.938 81.514,308.651 81.556,308.609 81.625 M314.663 82.466 L 314.743 83.250 314.800 82.603 C 314.831 82.247,314.794 81.894,314.719 81.819 C 314.644 81.744,314.618 82.035,314.663 82.466 M308.392 83.417 C 308.392 84.242,308.420 84.600,308.455 84.213 C 308.490 83.827,308.490 83.152,308.456 82.713 C 308.422 82.275,308.393 82.592,308.392 83.417 M89.218 83.042 C 88.892 83.400,88.162 84.506,88.365 84.333 C 88.525 84.197,89.669 82.667,89.611 82.667 C 89.582 82.667,89.405 82.835,89.218 83.042 M100.794 83.451 C 101.001 83.491,101.301 83.490,101.460 83.448 C 101.620 83.406,101.450 83.374,101.083 83.375 C 100.717 83.377,100.586 83.411,100.794 83.451 M227.877 83.453 C 228.131 83.491,228.506 83.490,228.711 83.451 C 228.916 83.411,228.708 83.380,228.250 83.381 C 227.792 83.382,227.624 83.415,227.877 83.453 M113.871 84.444 C 114.171 85.009,114.441 85.448,114.470 85.419 C 114.543 85.346,113.919 84.157,113.593 83.750 C 113.446 83.567,113.571 83.879,113.871 84.444 M229.542 83.615 C 229.702 83.657,229.965 83.657,230.125 83.615 C 230.285 83.573,230.154 83.539,229.833 83.539 C 229.512 83.539,229.381 83.573,229.542 83.615 M224.125 84.178 C 223.781 84.359,223.500 84.545,223.500 84.591 C 223.500 84.636,223.781 84.532,224.125 84.360 C 224.469 84.187,224.862 84.004,225.000 83.953 C 225.222 83.870,225.222 83.859,225.000 83.854 C 224.862 83.851,224.469 83.997,224.125 84.178 M314.895 85.667 C 314.895 86.629,314.923 87.023,314.956 86.542 C 314.990 86.060,314.990 85.273,314.956 84.792 C 314.923 84.310,314.895 84.704,314.895 85.667 M241.367 85.246 C 241.566 85.657,241.758 85.964,241.793 85.929 C 241.868 85.854,241.195 84.500,241.082 84.500 C 241.039 84.500,241.168 84.836,241.367 85.246 M222.575 85.375 L 221.917 86.083 222.625 85.425 C 223.015 85.062,223.333 84.743,223.333 84.716 C 223.333 84.590,223.188 84.716,222.575 85.375 M106.667 85.417 C 106.978 85.737,107.270 86.000,107.315 86.000 C 107.361 86.000,107.144 85.737,106.833 85.417 C 106.522 85.096,106.230 84.833,106.185 84.833 C 106.139 84.833,106.356 85.096,106.667 85.417 M308.205 87.167 C 308.205 87.487,308.240 87.619,308.282 87.458 C 308.323 87.298,308.323 87.035,308.282 86.875 C 308.240 86.715,308.205 86.846,308.205 87.167 M242.190 87.333 C 242.190 87.471,242.255 87.733,242.333 87.917 C 242.424 88.127,242.477 88.158,242.477 88.000 C 242.477 87.862,242.412 87.600,242.333 87.417 C 242.243 87.207,242.190 87.176,242.190 87.333 M214.209 87.917 C 214.211 88.283,214.245 88.414,214.285 88.206 C 214.324 87.999,214.323 87.699,214.281 87.540 C 214.239 87.380,214.207 87.550,214.209 87.917 M94.050 88.667 C 94.050 89.171,94.081 89.377,94.119 89.125 C 94.158 88.873,94.158 88.460,94.119 88.208 C 94.081 87.956,94.050 88.162,94.050 88.667 M221.212 88.667 C 221.212 89.079,221.245 89.248,221.284 89.042 C 221.324 88.835,221.324 88.498,221.284 88.292 C 221.245 88.085,221.212 88.254,221.212 88.667 M163.792 88.289 C 164.181 88.324,164.819 88.324,165.208 88.289 C 165.598 88.254,165.279 88.225,164.500 88.225 C 163.721 88.225,163.402 88.254,163.792 88.289 M308.000 88.306 C 308.000 88.412,307.794 88.510,307.542 88.523 C 307.121 88.544,307.116 88.552,307.478 88.620 C 307.883 88.697,308.317 88.428,308.114 88.225 C 308.051 88.162,308.000 88.199,308.000 88.306 M258.042 88.448 C 258.202 88.490,258.465 88.490,258.625 88.448 C 258.785 88.406,258.654 88.372,258.333 88.372 C 258.012 88.372,257.881 88.406,258.042 88.448 M304.294 88.785 C 304.501 88.824,304.801 88.823,304.960 88.781 C 305.120 88.739,304.950 88.707,304.583 88.709 C 304.217 88.711,304.086 88.745,304.294 88.785 M317.125 88.784 C 317.331 88.824,317.669 88.824,317.875 88.784 C 318.081 88.745,317.912 88.712,317.500 88.712 C 317.087 88.712,316.919 88.745,317.125 88.784 M121.274 88.961 C 121.230 89.032,121.507 89.065,121.889 89.036 C 123.011 88.949,123.147 88.873,122.218 88.853 C 121.742 88.842,121.317 88.891,121.274 88.961 M127.163 89.633 L 127.243 90.417 127.300 89.770 C 127.331 89.414,127.294 89.061,127.219 88.986 C 127.144 88.910,127.118 89.202,127.163 89.633 M185.659 88.956 C 187.714 88.993,188.611 89.068,188.714 89.212 C 188.819 89.360,188.840 89.348,188.791 89.167 C 188.733 88.957,188.246 88.916,185.736 88.910 L 182.750 88.904 185.659 88.956 M281.908 88.958 C 282.733 88.989,283.515 89.104,283.658 89.215 C 283.885 89.392,283.889 89.381,283.688 89.125 C 283.496 88.880,283.215 88.839,281.938 88.868 L 280.417 88.902 281.908 88.958 M303.511 89.070 C 303.395 89.210,303.340 89.668,303.377 90.195 L 303.438 91.083 303.469 90.158 C 303.486 89.650,303.590 89.143,303.700 89.033 C 303.810 88.923,303.857 88.833,303.804 88.833 C 303.751 88.833,303.619 88.940,303.511 89.070 M319.620 88.942 C 319.971 89.018,319.992 89.117,320.044 90.886 L 320.099 92.750 320.091 90.833 L 320.083 88.917 319.667 88.889 C 319.310 88.866,319.303 88.874,319.620 88.942 M140.347 89.062 C 140.519 89.216,141.500 89.667,141.500 89.592 C 141.500 89.496,140.576 89.000,140.397 89.000 C 140.332 89.000,140.309 89.028,140.347 89.062 M192.292 89.262 C 191.645 89.613,191.719 89.734,192.375 89.400 C 193.003 89.080,193.114 88.997,192.903 89.007 C 192.819 89.010,192.544 89.125,192.292 89.262 M201.347 89.063 C 201.518 89.217,202.833 89.831,202.833 89.757 C 202.833 89.662,201.576 89.000,201.396 89.000 C 201.331 89.000,201.309 89.028,201.347 89.063 M265.667 89.250 C 265.896 89.381,266.158 89.488,266.250 89.488 C 266.342 89.488,266.229 89.381,266.000 89.250 C 265.771 89.119,265.508 89.012,265.417 89.012 C 265.325 89.012,265.438 89.119,265.667 89.250 M214.212 89.833 C 214.212 90.246,214.245 90.415,214.284 90.208 C 214.324 90.002,214.324 89.665,214.284 89.458 C 214.245 89.252,214.212 89.421,214.212 89.833 M157.833 89.667 C 157.512 89.842,157.325 89.986,157.417 89.986 C 157.508 89.986,157.846 89.842,158.167 89.667 C 158.487 89.491,158.675 89.347,158.583 89.347 C 158.492 89.347,158.154 89.491,157.833 89.667 M108.812 89.708 C 108.938 89.869,109.200 89.991,109.395 89.981 C 109.732 89.962,109.733 89.957,109.417 89.879 C 109.233 89.834,108.971 89.712,108.833 89.607 C 108.616 89.441,108.613 89.455,108.812 89.708 M94.169 89.931 C 94.171 90.106,94.248 90.362,94.341 90.500 C 94.464 90.683,94.480 90.615,94.398 90.250 C 94.261 89.637,94.166 89.504,94.169 89.931 M141.667 89.710 C 141.667 89.749,142.060 90.110,142.542 90.511 C 143.023 90.912,143.311 91.109,143.183 90.947 C 142.924 90.623,141.667 89.597,141.667 89.710 M266.833 89.735 C 266.833 89.784,267.054 89.939,267.324 90.079 C 267.594 90.218,268.288 90.713,268.866 91.177 L 269.917 92.022 269.007 91.189 C 268.165 90.418,266.833 89.527,266.833 89.735 M253.455 90.256 C 253.113 90.488,252.833 90.715,252.833 90.758 C 252.833 90.802,253.133 90.640,253.500 90.397 C 254.082 90.012,254.279 89.833,254.122 89.833 C 254.097 89.833,253.797 90.024,253.455 90.256 M301.064 90.042 C 300.490 91.015,300.452 91.098,300.745 90.750 C 301.083 90.347,301.375 89.833,301.266 89.833 C 301.222 89.833,301.131 89.927,301.064 90.042 M156.625 90.262 C 156.002 90.600,156.040 90.741,156.667 90.417 C 156.942 90.274,157.167 90.123,157.167 90.079 C 157.167 89.972,157.149 89.978,156.625 90.262 M171.333 90.044 C 171.333 90.081,171.652 90.364,172.042 90.674 C 172.431 90.983,172.644 91.105,172.515 90.944 C 172.271 90.641,171.333 89.926,171.333 90.044 M190.201 90.572 C 189.426 91.119,189.317 91.275,189.971 90.901 C 190.276 90.726,190.604 90.490,190.700 90.375 C 190.946 90.081,190.831 90.126,190.201 90.572 M204.500 91.250 C 204.998 91.754,205.443 92.167,205.489 92.167 C 205.534 92.167,205.165 91.754,204.667 91.250 C 204.169 90.746,203.724 90.333,203.678 90.333 C 203.632 90.333,204.002 90.746,204.500 91.250 M128.500 91.025 C 128.179 91.306,128.068 91.460,128.252 91.367 C 128.556 91.213,129.311 90.491,129.151 90.507 C 129.114 90.510,128.821 90.744,128.500 91.025 M121.078 100.917 C 121.078 106.600,121.099 108.949,121.125 106.137 C 121.150 103.325,121.151 98.675,121.125 95.804 C 121.099 92.932,121.078 95.233,121.078 100.917 M284.750 91.167 C 284.892 91.442,285.046 91.667,285.092 91.667 C 285.138 91.667,285.059 91.442,284.917 91.167 C 284.774 90.892,284.621 90.667,284.575 90.667 C 284.529 90.667,284.608 90.892,284.750 91.167 M94.782 91.346 C 94.948 91.628,95.190 91.947,95.320 92.054 C 95.450 92.162,95.346 91.931,95.090 91.542 C 94.550 90.724,94.337 90.588,94.782 91.346 M300.038 91.723 C 299.858 92.029,299.579 92.497,299.419 92.764 L 299.127 93.250 299.472 92.833 C 299.866 92.357,300.560 91.167,300.444 91.167 C 300.401 91.167,300.219 91.417,300.038 91.723 M172.833 91.385 C 172.833 91.414,173.077 91.658,173.375 91.927 L 173.917 92.417 173.427 91.875 C 172.971 91.370,172.833 91.257,172.833 91.385 M182.747 110.583 C 182.747 120.850,182.767 125.025,182.792 119.862 C 182.816 114.699,182.816 106.299,182.792 101.196 C 182.767 96.092,182.747 100.317,182.747 110.583 M303.566 92.750 L 303.583 93.583 305.000 93.593 L 306.417 93.603 305.051 93.545 L 303.684 93.487 303.617 92.702 L 303.549 91.917 303.566 92.750 M278.664 92.958 C 278.956 93.440,279.232 93.833,279.278 93.833 C 279.390 93.833,278.674 92.644,278.374 92.333 C 278.242 92.196,278.372 92.477,278.664 92.958 M144.432 93.294 C 144.648 93.820,144.833 94.362,144.843 94.500 C 144.852 94.638,144.894 94.667,144.936 94.565 C 145.023 94.353,144.383 92.550,144.175 92.422 C 144.100 92.376,144.216 92.768,144.432 93.294 M163.461 93.454 C 163.761 93.491,164.211 93.490,164.461 93.452 C 164.712 93.414,164.467 93.384,163.917 93.385 C 163.367 93.386,163.162 93.417,163.461 93.454 M260.127 93.451 C 260.334 93.491,260.634 93.490,260.794 93.448 C 260.953 93.406,260.783 93.374,260.417 93.375 C 260.050 93.377,259.920 93.411,260.127 93.451 M194.627 93.618 C 194.834 93.658,195.134 93.656,195.294 93.615 C 195.453 93.573,195.283 93.540,194.917 93.542 C 194.550 93.544,194.420 93.578,194.627 93.618 M318.460 93.618 C 318.668 93.658,318.968 93.656,319.127 93.615 C 319.286 93.573,319.117 93.540,318.750 93.542 C 318.383 93.544,318.253 93.578,318.460 93.618 M315.000 93.796 C 315.000 93.867,315.319 93.901,315.708 93.871 C 316.876 93.780,316.976 93.707,315.958 93.686 C 315.431 93.675,315.000 93.725,315.000 93.796 M130.458 94.429 C 129.812 94.779,129.885 94.900,130.542 94.566 C 131.170 94.247,131.281 94.164,131.069 94.173 C 130.985 94.177,130.710 94.292,130.458 94.429 M226.833 94.472 C 226.971 94.557,227.271 94.676,227.500 94.738 C 227.790 94.815,227.840 94.802,227.667 94.695 C 227.529 94.610,227.229 94.490,227.000 94.429 C 226.710 94.351,226.660 94.365,226.833 94.472 M256.446 95.193 L 255.583 96.052 256.500 95.246 C 257.004 94.802,257.448 94.416,257.486 94.386 C 257.524 94.357,257.500 94.333,257.432 94.333 C 257.364 94.333,256.920 94.720,256.446 95.193 M89.667 95.583 C 90.257 96.179,90.778 96.667,90.824 96.667 C 90.870 96.667,90.424 96.179,89.833 95.583 C 89.243 94.987,88.722 94.500,88.676 94.500 C 88.630 94.500,89.076 94.987,89.667 95.583 M145.042 95.417 C 145.044 95.783,145.078 95.914,145.118 95.706 C 145.158 95.499,145.156 95.199,145.115 95.040 C 145.073 94.880,145.040 95.050,145.042 95.417 M168.106 95.250 C 168.492 95.908,168.500 95.918,168.500 95.713 C 168.500 95.616,168.346 95.360,168.157 95.143 L 167.814 94.750 168.106 95.250 M199.493 95.583 C 199.895 96.042,200.258 96.454,200.301 96.500 C 200.344 96.546,200.299 96.433,200.203 96.250 C 200.106 96.067,199.743 95.654,199.395 95.333 C 198.793 94.779,198.798 94.791,199.493 95.583 M216.667 95.394 C 216.987 95.743,217.550 96.261,217.917 96.543 C 218.696 97.144,218.469 96.903,217.083 95.657 C 216.429 95.069,216.285 94.978,216.667 95.394 M287.083 95.333 C 287.226 95.608,287.379 95.833,287.425 95.833 C 287.471 95.833,287.392 95.608,287.250 95.333 C 287.108 95.058,286.954 94.833,286.908 94.833 C 286.862 94.833,286.941 95.058,287.083 95.333 M190.242 95.708 L 189.583 96.417 190.292 95.758 C 190.681 95.395,191.000 95.077,191.000 95.050 C 191.000 94.923,190.855 95.050,190.242 95.708 M128.658 95.792 L 128.083 96.417 128.708 95.842 C 129.052 95.526,129.333 95.245,129.333 95.217 C 129.333 95.090,129.192 95.210,128.658 95.792 M137.968 95.583 C 138.053 95.767,138.163 96.029,138.214 96.167 C 138.294 96.383,138.309 96.381,138.320 96.157 C 138.327 96.014,138.217 95.751,138.074 95.574 C 137.819 95.255,137.817 95.255,137.968 95.583 M280.312 95.583 C 280.402 95.767,280.598 96.067,280.747 96.250 L 281.018 96.583 280.855 96.250 C 280.765 96.067,280.569 95.767,280.420 95.583 L 280.148 95.250 280.312 95.583 M175.379 96.333 C 175.379 96.746,175.411 96.915,175.451 96.708 C 175.491 96.502,175.491 96.165,175.451 95.958 C 175.411 95.752,175.379 95.921,175.379 96.333 M272.195 96.833 C 272.203 97.266,272.466 97.978,272.472 97.583 C 272.474 97.400,272.412 97.100,272.333 96.917 C 272.246 96.712,272.192 96.680,272.195 96.833 M145.241 101.833 C 145.241 104.629,145.263 105.773,145.291 104.375 C 145.319 102.977,145.319 100.690,145.291 99.292 C 145.263 97.894,145.241 99.037,145.241 101.833 M308.233 99.250 C 308.234 100.625,308.259 101.165,308.291 100.451 C 308.322 99.736,308.322 98.611,308.290 97.951 C 308.259 97.290,308.233 97.875,308.233 99.250 M156.377 97.120 C 156.631 97.158,157.006 97.157,157.211 97.117 C 157.416 97.078,157.208 97.046,156.750 97.048 C 156.292 97.049,156.124 97.081,156.377 97.120 M296.250 97.833 C 296.108 98.108,296.029 98.333,296.075 98.333 C 296.121 98.333,296.274 98.108,296.417 97.833 C 296.559 97.558,296.638 97.333,296.592 97.333 C 296.546 97.333,296.392 97.558,296.250 97.833 M175.568 100.167 C 175.568 101.679,175.593 102.298,175.624 101.542 C 175.655 100.785,175.655 99.548,175.624 98.792 C 175.593 98.035,175.568 98.654,175.568 100.167 M201.121 98.470 C 201.272 98.942,201.426 99.296,201.464 99.258 C 201.554 99.168,201.168 97.962,200.987 97.765 C 200.910 97.682,200.970 97.999,201.121 98.470 M138.550 98.667 C 138.550 99.171,138.581 99.377,138.619 99.125 C 138.658 98.873,138.658 98.460,138.619 98.208 C 138.581 97.956,138.550 98.162,138.550 98.667 M220.833 98.416 C 220.833 98.528,222.854 99.535,222.928 99.461 C 222.962 99.427,222.504 99.160,221.911 98.868 C 221.318 98.576,220.833 98.372,220.833 98.416 M272.705 99.333 C 272.705 99.654,272.740 99.785,272.782 99.625 C 272.823 99.465,272.823 99.202,272.782 99.042 C 272.740 98.881,272.705 99.013,272.705 99.333 M95.333 99.250 C 95.563 99.381,95.825 99.488,95.917 99.488 C 96.008 99.488,95.896 99.381,95.667 99.250 C 95.438 99.119,95.175 99.012,95.083 99.012 C 94.992 99.012,95.104 99.119,95.333 99.250 M169.023 99.447 C 169.004 99.891,168.925 99.989,168.542 100.047 L 168.083 100.117 168.547 100.142 C 169.056 100.169,169.235 99.908,169.119 99.304 C 169.062 99.003,169.040 99.035,169.023 99.447 M189.407 103.917 C 189.407 106.667,189.430 107.815,189.458 106.469 C 189.486 105.122,189.486 102.872,189.458 101.469 C 189.430 100.065,189.407 101.167,189.407 103.917 M295.397 99.208 C 294.823 100.182,294.786 100.265,295.078 99.917 C 295.416 99.513,295.708 99.000,295.599 99.000 C 295.555 99.000,295.464 99.094,295.397 99.208 M127.561 100.917 C 127.561 101.833,127.589 102.187,127.623 101.703 C 127.657 101.218,127.656 100.468,127.622 100.036 C 127.588 99.604,127.560 100.000,127.561 100.917 M266.379 100.000 C 266.379 100.412,266.411 100.581,266.451 100.375 C 266.491 100.169,266.491 99.831,266.451 99.625 C 266.411 99.419,266.379 99.587,266.379 100.000 M96.500 99.750 C 96.729 99.881,96.992 99.988,97.083 99.988 C 97.175 99.988,97.063 99.881,96.833 99.750 C 96.604 99.619,96.342 99.512,96.250 99.512 C 96.158 99.512,96.271 99.619,96.500 99.750 M223.500 99.750 C 223.729 99.881,223.992 99.988,224.083 99.988 C 224.175 99.988,224.063 99.881,223.833 99.750 C 223.604 99.619,223.342 99.512,223.250 99.512 C 223.158 99.512,223.271 99.619,223.500 99.750 M254.000 99.907 C 254.000 100.131,254.061 100.352,254.137 100.398 C 254.212 100.444,254.241 100.261,254.201 99.991 C 254.114 99.396,254.000 99.348,254.000 99.907 M97.667 100.250 C 97.896 100.381,98.158 100.488,98.250 100.488 C 98.342 100.488,98.229 100.381,98.000 100.250 C 97.771 100.119,97.508 100.012,97.417 100.012 C 97.325 100.012,97.438 100.119,97.667 100.250 M272.879 100.667 C 272.879 101.079,272.911 101.248,272.951 101.042 C 272.991 100.835,272.991 100.498,272.951 100.292 C 272.911 100.085,272.879 100.254,272.879 100.667 M112.667 100.750 C 112.978 101.071,113.270 101.333,113.315 101.333 C 113.361 101.333,113.144 101.071,112.833 100.750 C 112.522 100.429,112.230 100.167,112.185 100.167 C 112.139 100.167,112.356 100.429,112.667 100.750 M165.208 100.286 C 165.460 100.324,165.873 100.324,166.125 100.286 C 166.377 100.248,166.171 100.217,165.667 100.217 C 165.162 100.217,164.956 100.248,165.208 100.286 M162.708 100.448 C 162.869 100.490,163.131 100.490,163.292 100.448 C 163.452 100.406,163.321 100.372,163.000 100.372 C 162.679 100.372,162.548 100.406,162.708 100.448 M294.564 100.542 C 293.990 101.515,293.952 101.598,294.245 101.250 C 294.583 100.847,294.875 100.333,294.766 100.333 C 294.722 100.333,294.631 100.427,294.564 100.542 M254.958 100.618 C 255.165 100.657,255.502 100.657,255.708 100.618 C 255.915 100.578,255.746 100.545,255.333 100.545 C 254.921 100.545,254.752 100.578,254.958 100.618 M138.737 104.583 C 138.737 106.508,138.762 107.273,138.791 106.283 C 138.821 105.292,138.821 103.717,138.791 102.783 C 138.761 101.848,138.737 102.658,138.737 104.583 M201.879 101.833 C 201.879 102.246,201.911 102.415,201.951 102.208 C 201.991 102.002,201.991 101.665,201.951 101.458 C 201.911 101.252,201.879 101.421,201.879 101.833 M208.566 103.417 C 208.566 104.700,208.592 105.203,208.624 104.534 C 208.656 103.866,208.655 102.816,208.623 102.201 C 208.591 101.586,208.565 102.133,208.566 103.417 M247.064 103.500 C 247.064 104.646,247.091 105.115,247.123 104.542 C 247.156 103.969,247.156 103.031,247.123 102.458 C 247.091 101.885,247.064 102.354,247.064 103.500 M273.063 103.500 C 273.063 104.554,273.090 104.985,273.123 104.458 C 273.156 103.931,273.156 103.069,273.123 102.542 C 273.090 102.015,273.063 102.446,273.063 103.500 M241.309 102.824 C 241.549 103.274,241.771 103.618,241.801 103.588 C 241.881 103.508,241.200 102.207,241.022 102.097 C 240.939 102.046,241.068 102.373,241.309 102.824 M104.000 102.583 C 104.229 102.714,104.492 102.822,104.583 102.822 C 104.675 102.822,104.563 102.714,104.333 102.583 C 104.104 102.452,103.842 102.345,103.750 102.345 C 103.658 102.345,103.771 102.452,104.000 102.583 M104.833 102.897 C 104.833 102.936,105.234 103.194,105.724 103.471 C 106.214 103.748,106.937 104.336,107.331 104.779 C 107.724 105.221,107.966 105.429,107.867 105.240 C 107.499 104.532,104.833 102.474,104.833 102.897 M293.167 103.564 C 293.167 103.743,293.663 104.667,293.759 104.667 C 293.804 104.667,293.718 104.423,293.566 104.125 C 293.257 103.517,293.167 103.390,293.167 103.564 M166.042 104.288 C 166.385 104.324,166.948 104.324,167.292 104.288 C 167.635 104.252,167.354 104.223,166.667 104.223 C 165.979 104.223,165.698 104.252,166.042 104.288 M164.460 104.451 C 164.668 104.491,164.968 104.490,165.127 104.448 C 165.286 104.406,165.117 104.374,164.750 104.375 C 164.383 104.377,164.253 104.411,164.460 104.451 M175.736 107.500 C 175.736 109.287,175.761 110.019,175.791 109.125 C 175.821 108.231,175.821 106.769,175.791 105.875 C 175.761 104.981,175.736 105.712,175.736 107.500 M201.879 105.333 C 201.879 105.746,201.911 105.915,201.951 105.708 C 201.991 105.502,201.991 105.165,201.951 104.958 C 201.911 104.752,201.879 104.921,201.879 105.333 M261.633 105.624 C 262.394 105.655,263.594 105.655,264.300 105.624 C 265.006 105.593,264.383 105.567,262.917 105.567 C 261.450 105.568,260.872 105.593,261.633 105.624 M266.631 105.623 C 267.115 105.657,267.865 105.656,268.297 105.622 C 268.730 105.588,268.333 105.560,267.417 105.561 C 266.500 105.561,266.146 105.589,266.631 105.623 M254.875 105.782 C 255.035 105.823,255.298 105.823,255.458 105.782 C 255.619 105.740,255.487 105.705,255.167 105.705 C 254.846 105.705,254.715 105.740,254.875 105.782 M108.281 106.833 C 108.335 107.246,108.407 107.615,108.440 107.653 C 108.565 107.798,108.470 106.735,108.329 106.417 C 108.230 106.194,108.214 106.333,108.281 106.833 M86.033 106.533 C 85.923 106.643,85.842 106.925,85.853 107.158 C 85.871 107.553,85.880 107.547,85.979 107.083 L 86.086 106.583 89.001 106.494 L 91.917 106.405 89.075 106.369 C 87.045 106.344,86.176 106.390,86.033 106.533 M213.200 106.533 C 213.090 106.643,213.011 107.037,213.025 107.408 L 213.050 108.083 213.150 107.333 C 213.243 106.633,213.289 106.577,213.833 106.480 C 214.412 106.378,214.413 106.377,213.908 106.355 C 213.629 106.343,213.310 106.423,213.200 106.533 M115.375 107.083 C 115.377 107.450,115.411 107.580,115.451 107.373 C 115.491 107.166,115.490 106.866,115.448 106.706 C 115.406 106.547,115.374 106.717,115.375 107.083 M201.438 107.688 C 201.299 108.382,201.433 108.517,201.583 107.833 C 201.647 107.545,201.664 107.275,201.621 107.232 C 201.579 107.190,201.496 107.395,201.438 107.688 M168.999 108.784 C 168.954 109.628,168.976 110.258,169.049 110.185 C 169.122 110.112,169.158 109.422,169.131 108.651 L 169.081 107.250 168.999 108.784 M308.396 109.083 C 308.396 110.092,308.424 110.483,308.457 109.952 C 308.490 109.422,308.490 108.597,308.456 108.119 C 308.422 107.641,308.395 108.075,308.396 109.083 M235.709 108.083 C 235.711 108.450,235.745 108.580,235.785 108.373 C 235.824 108.166,235.823 107.866,235.781 107.706 C 235.739 107.547,235.707 107.717,235.709 108.083 M295.645 107.750 C 295.735 107.933,295.931 108.233,296.080 108.417 L 296.352 108.750 296.188 108.417 C 296.098 108.233,295.902 107.933,295.753 107.750 L 295.482 107.417 295.645 107.750 M315.058 109.000 C 315.058 109.779,315.087 110.098,315.122 109.708 C 315.157 109.319,315.157 108.681,315.122 108.292 C 315.087 107.902,315.058 108.221,315.058 109.000 M158.214 108.917 C 158.216 109.375,158.248 109.543,158.286 109.289 C 158.325 109.036,158.324 108.661,158.284 108.456 C 158.244 108.251,158.213 108.458,158.214 108.917 M115.372 109.000 C 115.372 109.321,115.406 109.452,115.448 109.292 C 115.490 109.131,115.490 108.869,115.448 108.708 C 115.406 108.548,115.372 108.679,115.372 109.000 M288.645 108.792 C 288.438 109.056,288.444 109.062,288.708 108.855 C 288.956 108.661,289.044 108.661,289.292 108.855 C 289.556 109.062,289.562 109.056,289.355 108.792 C 289.229 108.631,289.069 108.500,289.000 108.500 C 288.931 108.500,288.771 108.631,288.645 108.792 M108.356 109.000 C 108.341 109.229,108.290 109.604,108.243 109.833 L 108.157 110.250 108.336 109.840 C 108.435 109.614,108.486 109.239,108.449 109.006 L 108.383 108.583 108.356 109.000 M247.679 108.759 C 247.661 109.009,248.357 111.032,248.434 110.955 C 248.469 110.920,248.316 110.372,248.095 109.737 C 247.873 109.103,247.686 108.663,247.679 108.759 M151.387 109.833 C 151.387 110.429,151.417 110.673,151.454 110.375 C 151.491 110.077,151.491 109.590,151.454 109.292 C 151.417 108.994,151.387 109.237,151.387 109.833 M296.616 109.346 C 296.781 109.628,297.023 109.947,297.153 110.054 C 297.284 110.162,297.180 109.931,296.923 109.542 C 296.383 108.724,296.171 108.588,296.616 109.346 M127.539 113.455 L 127.500 117.993 124.292 118.042 L 121.083 118.091 124.297 118.129 C 126.763 118.158,127.529 118.118,127.591 117.956 C 127.636 117.840,127.651 115.758,127.625 113.331 L 127.578 108.917 127.539 113.455 M200.700 109.754 C 200.501 110.164,200.373 110.500,200.415 110.500 C 200.528 110.500,201.202 109.146,201.126 109.071 C 201.091 109.036,200.900 109.343,200.700 109.754 M288.284 109.292 C 288.245 109.360,288.004 109.792,287.746 110.250 C 287.489 110.708,287.356 111.008,287.450 110.917 C 287.692 110.683,288.551 109.167,288.442 109.167 C 288.393 109.167,288.322 109.223,288.284 109.292 M290.036 110.000 C 290.169 110.229,290.485 110.773,290.738 111.208 C 290.991 111.644,291.233 112.000,291.275 112.000 C 291.388 112.000,290.469 110.396,290.105 109.958 L 289.794 109.583 290.036 110.000 M207.595 110.262 C 207.534 110.506,207.516 110.738,207.555 110.777 C 207.594 110.817,207.677 110.649,207.738 110.405 C 207.799 110.161,207.817 109.929,207.778 109.889 C 207.739 109.850,207.657 110.018,207.595 110.262 M267.944 110.939 C 267.086 111.607,266.862 111.918,267.681 111.303 C 267.964 111.091,268.396 110.786,268.640 110.626 C 268.884 110.466,269.002 110.335,268.902 110.334 C 268.803 110.334,268.372 110.606,267.944 110.939 M167.917 111.298 C 167.458 111.732,166.896 112.221,166.667 112.385 C 166.266 112.670,166.270 112.670,166.792 112.388 C 167.264 112.132,169.034 110.494,168.827 110.504 C 168.785 110.506,168.375 110.863,167.917 111.298 M190.333 111.417 C 190.831 111.921,191.276 112.333,191.322 112.333 C 191.368 112.333,190.998 111.921,190.500 111.417 C 190.002 110.912,189.557 110.500,189.511 110.500 C 189.466 110.500,189.835 110.912,190.333 111.417 M242.033 111.117 C 241.787 111.920,241.906 112.040,242.167 111.250 C 242.277 110.917,242.334 110.612,242.295 110.572 C 242.255 110.533,242.137 110.778,242.033 111.117 M255.993 111.208 C 256.684 111.944,256.833 112.077,256.833 111.951 C 256.833 111.925,256.477 111.568,256.042 111.160 L 255.250 110.417 255.993 111.208 M94.667 111.250 C 94.978 111.571,95.270 111.833,95.315 111.833 C 95.361 111.833,95.144 111.571,94.833 111.250 C 94.522 110.929,94.230 110.667,94.185 110.667 C 94.139 110.667,94.356 110.929,94.667 111.250 M138.912 114.320 C 138.916 117.496,138.954 118.066,139.167 118.124 C 139.348 118.173,139.361 118.152,139.212 118.047 C 139.063 117.941,138.993 116.899,138.957 114.242 L 138.907 110.583 138.912 114.320 M271.000 111.750 C 271.498 112.254,271.943 112.667,271.989 112.667 C 272.034 112.667,271.665 112.254,271.167 111.750 C 270.669 111.246,270.224 110.833,270.178 110.833 C 270.132 110.833,270.502 111.246,271.000 111.750 M107.240 111.542 L 106.750 112.083 107.292 111.594 C 107.590 111.325,107.833 111.081,107.833 111.052 C 107.833 110.923,107.696 111.037,107.240 111.542 M199.406 111.708 L 198.917 112.250 199.458 111.760 C 199.963 111.304,200.077 111.167,199.948 111.167 C 199.919 111.167,199.675 111.410,199.406 111.708 M175.892 112.833 C 175.892 113.612,175.920 113.931,175.955 113.542 C 175.990 113.152,175.990 112.515,175.955 112.125 C 175.920 111.735,175.892 112.054,175.892 112.833 M279.730 111.875 C 279.157 112.848,279.119 112.931,279.411 112.583 C 279.750 112.180,280.042 111.667,279.932 111.667 C 279.889 111.667,279.798 111.760,279.730 111.875 M315.344 111.808 C 315.328 112.137,315.859 112.974,316.154 113.087 C 316.316 113.150,316.278 113.046,316.048 112.801 C 315.849 112.589,315.612 112.229,315.521 112.000 C 315.429 111.771,315.350 111.684,315.344 111.808 M151.687 112.000 C 151.684 112.138,151.785 112.475,151.911 112.750 C 152.205 113.394,152.210 113.094,151.917 112.333 C 151.793 112.013,151.690 111.862,151.687 112.000 M308.539 112.667 C 308.539 112.987,308.573 113.119,308.615 112.958 C 308.657 112.798,308.657 112.535,308.615 112.375 C 308.573 112.215,308.539 112.346,308.539 112.667 M241.183 112.927 C 240.990 113.253,240.908 113.473,241.001 113.416 C 241.181 113.304,241.722 112.333,241.604 112.333 C 241.565 112.333,241.375 112.600,241.183 112.927 M192.240 112.907 C 192.418 113.050,192.681 113.161,192.824 113.154 C 193.048 113.142,193.049 113.128,192.833 113.048 C 192.696 112.997,192.433 112.886,192.250 112.802 C 191.922 112.651,191.922 112.652,192.240 112.907 M98.960 113.118 C 99.168 113.158,99.468 113.156,99.627 113.115 C 99.786 113.073,99.617 113.040,99.250 113.042 C 98.883 113.044,98.753 113.078,98.960 113.118 M103.042 113.115 C 103.202 113.157,103.465 113.157,103.625 113.115 C 103.785 113.073,103.654 113.039,103.333 113.039 C 103.013 113.039,102.881 113.073,103.042 113.115 M278.897 113.208 C 278.323 114.182,278.286 114.265,278.578 113.917 C 278.916 113.513,279.208 113.000,279.099 113.000 C 279.055 113.000,278.964 113.094,278.897 113.208 M227.955 113.287 C 228.250 113.324,228.775 113.324,229.121 113.288 C 229.467 113.252,229.225 113.222,228.583 113.221 C 227.942 113.221,227.659 113.250,227.955 113.287 M318.958 113.290 L 320.167 113.348 320.167 115.745 C 320.167 117.744,320.125 118.155,319.913 118.221 C 319.736 118.276,319.749 118.291,319.955 118.273 C 320.221 118.248,320.255 117.995,320.296 115.706 L 320.342 113.167 319.046 113.200 L 317.750 113.233 318.958 113.290 M89.167 114.250 C 89.665 114.754,90.109 115.167,90.155 115.167 C 90.201 115.167,89.831 114.754,89.333 114.250 C 88.835 113.746,88.391 113.333,88.345 113.333 C 88.299 113.333,88.669 113.746,89.167 114.250 M113.177 114.208 C 112.771 114.690,112.647 114.896,112.902 114.667 C 113.332 114.281,114.090 113.333,113.970 113.333 C 113.941 113.333,113.584 113.727,113.177 114.208 M261.125 113.454 C 261.423 113.491,261.910 113.491,262.208 113.454 C 262.506 113.417,262.262 113.387,261.667 113.387 C 261.071 113.387,260.827 113.417,261.125 113.454 M162.458 113.618 C 162.665 113.657,163.002 113.657,163.208 113.618 C 163.415 113.578,163.246 113.545,162.833 113.545 C 162.421 113.545,162.252 113.578,162.458 113.618 M250.750 114.476 C 251.208 114.962,251.883 115.592,252.250 115.875 C 253.022 116.472,252.876 116.320,251.167 114.744 C 250.155 113.811,250.075 113.760,250.750 114.476 M299.812 114.417 C 299.902 114.600,300.098 114.900,300.247 115.083 L 300.518 115.417 300.355 115.083 C 300.265 114.900,300.069 114.600,299.920 114.417 L 299.648 114.083 299.812 114.417 M239.740 114.875 L 239.250 115.417 239.792 114.927 C 240.297 114.471,240.410 114.333,240.281 114.333 C 240.252 114.333,240.009 114.577,239.740 114.875 M176.042 115.083 C 176.044 115.450,176.078 115.580,176.118 115.373 C 176.158 115.166,176.156 114.866,176.115 114.706 C 176.073 114.547,176.040 114.717,176.042 115.083 M216.985 114.889 C 217.229 115.193,218.167 115.907,218.167 115.789 C 218.167 115.753,217.848 115.469,217.458 115.160 C 217.069 114.850,216.856 114.728,216.985 114.889 M309.005 114.949 C 309.002 115.059,309.169 115.325,309.375 115.541 C 309.581 115.756,309.667 115.817,309.565 115.675 C 309.463 115.533,309.297 115.267,309.195 115.083 C 309.093 114.900,309.008 114.840,309.005 114.949 M153.917 115.833 C 154.368 116.292,154.775 116.667,154.821 116.667 C 154.867 116.667,154.535 116.292,154.083 115.833 C 153.632 115.375,153.225 115.000,153.179 115.000 C 153.133 115.000,153.465 115.375,153.917 115.833 M111.471 115.805 C 110.395 116.649,110.271 116.819,111.176 116.208 C 111.815 115.776,112.525 115.134,112.312 115.180 C 112.278 115.188,111.899 115.469,111.471 115.805 M91.250 115.920 C 91.433 116.069,91.733 116.265,91.917 116.355 L 92.250 116.518 91.917 116.247 C 91.733 116.098,91.433 115.902,91.250 115.812 L 90.917 115.648 91.250 115.920 M168.080 116.440 C 167.287 116.966,166.868 117.364,167.583 116.912 C 167.858 116.738,168.343 116.462,168.660 116.298 C 168.978 116.134,169.126 116.000,168.991 116.000 C 168.855 116.000,168.445 116.198,168.080 116.440 M284.230 116.208 C 283.657 117.182,283.619 117.265,283.911 116.917 C 284.250 116.513,284.542 116.000,284.432 116.000 C 284.389 116.000,284.298 116.094,284.230 116.208 M145.218 117.250 C 145.219 117.800,145.250 118.005,145.287 117.705 C 145.325 117.406,145.324 116.956,145.286 116.705 C 145.248 116.455,145.217 116.700,145.218 117.250 M311.000 117.250 C 311.311 117.571,311.603 117.833,311.649 117.833 C 311.695 117.833,311.478 117.571,311.167 117.250 C 310.856 116.929,310.564 116.667,310.518 116.667 C 310.472 116.667,310.689 116.929,311.000 117.250 M166.333 117.500 C 166.012 117.676,165.810 117.823,165.883 117.826 C 166.060 117.836,167.000 117.347,167.000 117.246 C 167.000 117.137,166.990 117.140,166.333 117.500 M301.768 117.738 C 301.854 117.961,301.423 117.999,298.308 118.042 L 294.750 118.090 298.375 118.128 C 301.964 118.166,302.612 118.064,301.835 117.585 C 301.741 117.526,301.713 117.592,301.768 117.738 M171.867 118.124 C 172.664 118.154,174.014 118.155,174.867 118.124 C 175.719 118.094,175.067 118.069,173.417 118.069 C 171.767 118.069,171.069 118.093,171.867 118.124 M276.963 118.122 C 277.355 118.157,277.955 118.157,278.296 118.121 C 278.637 118.085,278.317 118.057,277.583 118.057 C 276.850 118.058,276.571 118.087,276.963 118.122 M280.713 118.123 C 281.152 118.157,281.827 118.157,282.213 118.122 C 282.600 118.087,282.242 118.059,281.417 118.059 C 280.592 118.060,280.275 118.088,280.713 118.123 M189.403 121.667 C 189.403 123.454,189.428 124.185,189.458 123.292 C 189.488 122.398,189.488 120.935,189.458 120.042 C 189.428 119.148,189.403 119.879,189.403 121.667 M225.708 118.615 C 225.869 118.657,226.131 118.657,226.292 118.615 C 226.452 118.573,226.321 118.539,226.000 118.539 C 225.679 118.539,225.548 118.573,225.708 118.615 M314.292 118.621 C 314.590 118.658,315.077 118.658,315.375 118.621 C 315.673 118.584,315.429 118.553,314.833 118.553 C 314.237 118.553,313.994 118.584,314.292 118.621 M316.455 118.620 C 316.750 118.657,317.275 118.658,317.621 118.622 C 317.967 118.586,317.725 118.555,317.083 118.555 C 316.442 118.554,316.159 118.583,316.455 118.620 M99.958 118.787 C 100.256 118.824,100.744 118.824,101.042 118.787 C 101.340 118.750,101.096 118.720,100.500 118.720 C 99.904 118.720,99.660 118.750,99.958 118.787 M102.375 118.786 C 102.627 118.824,103.040 118.824,103.292 118.786 C 103.544 118.748,103.337 118.717,102.833 118.717 C 102.329 118.717,102.123 118.748,102.375 118.786 M160.796 118.789 C 161.188 118.824,161.788 118.824,162.129 118.788 C 162.471 118.752,162.150 118.723,161.417 118.724 C 160.683 118.724,160.404 118.754,160.796 118.789 M197.627 118.785 C 197.834 118.824,198.134 118.823,198.294 118.781 C 198.453 118.739,198.283 118.707,197.917 118.709 C 197.550 118.711,197.420 118.745,197.627 118.785 M227.375 118.786 C 227.627 118.824,228.040 118.824,228.292 118.786 C 228.544 118.748,228.338 118.717,227.833 118.717 C 227.329 118.717,227.123 118.748,227.375 118.786 M229.628 118.787 C 229.928 118.825,230.378 118.824,230.628 118.786 C 230.878 118.748,230.633 118.717,230.083 118.718 C 229.533 118.719,229.328 118.750,229.628 118.787 M260.125 118.787 C 260.423 118.824,260.910 118.824,261.208 118.787 C 261.506 118.750,261.262 118.720,260.667 118.720 C 260.071 118.720,259.827 118.750,260.125 118.787 M189.189 128.778 C 189.177 129.068,189.073 129.343,188.958 129.390 C 188.795 129.455,188.796 129.477,188.964 129.487 C 189.238 129.504,189.380 129.130,189.286 128.637 C 189.228 128.335,189.207 128.365,189.189 128.778 M184.042 129.619 C 184.294 129.658,184.706 129.658,184.958 129.619 C 185.210 129.581,185.004 129.550,184.500 129.550 C 183.996 129.550,183.790 129.581,184.042 129.619 M187.125 129.618 C 187.331 129.657,187.669 129.657,187.875 129.618 C 188.081 129.578,187.912 129.545,187.500 129.545 C 187.088 129.545,186.919 129.578,187.125 129.618 M281.750 143.456 C 288.400 143.507,288.186 143.480,287.598 144.180 C 287.361 144.462,287.164 144.780,287.162 144.888 C 287.133 145.966,286.760 147.706,286.417 148.363 C 286.188 148.802,286.008 149.331,286.017 149.539 C 286.031 149.844,286.058 149.820,286.159 149.417 C 286.227 149.142,286.453 148.634,286.659 148.289 C 286.905 147.879,287.091 147.188,287.197 146.289 C 287.312 145.309,287.475 144.736,287.768 144.286 C 288.401 143.314,288.502 143.330,281.948 143.373 L 275.917 143.412 281.750 143.456 M107.333 147.539 C 107.379 147.586,107.975 147.671,108.658 147.730 C 109.340 147.788,109.940 147.891,109.991 147.959 C 110.283 148.351,110.767 148.527,111.897 148.654 C 112.725 148.747,113.457 148.950,114.013 149.241 C 114.481 149.486,115.026 149.654,115.224 149.616 L 115.583 149.545 115.225 149.523 C 115.028 149.510,114.460 149.286,113.963 149.024 C 113.346 148.700,112.683 148.512,111.874 148.432 C 111.073 148.353,110.550 148.206,110.260 147.978 C 109.879 147.678,107.053 147.254,107.333 147.539 M116.167 149.778 C 117.594 149.921,117.830 150.011,118.087 150.507 C 118.304 150.926,118.440 151.000,118.996 151.000 C 119.686 151.000,120.500 151.287,120.500 151.531 C 120.500 151.610,120.680 151.743,120.899 151.827 C 121.119 151.910,121.408 152.189,121.543 152.448 C 121.678 152.706,121.910 153.142,122.060 153.417 C 122.209 153.692,122.332 154.269,122.332 154.700 C 122.334 155.795,122.640 157.104,122.955 157.364 C 123.180 157.550,122.993 157.596,121.735 157.667 L 120.250 157.750 120.228 158.583 L 120.206 159.417 120.311 158.667 L 120.417 157.917 121.852 157.869 C 123.241 157.823,123.296 157.835,123.574 158.260 C 123.988 158.892,125.302 159.430,128.202 160.158 C 131.431 160.968,136.919 162.417,138.333 162.834 C 138.929 163.010,141.067 163.570,143.083 164.080 C 145.100 164.589,147.650 165.256,148.750 165.562 C 149.850 165.867,151.350 166.284,152.083 166.488 C 152.817 166.691,154.842 167.223,156.583 167.669 C 162.441 169.170,165.578 169.991,166.500 170.265 C 167.004 170.415,169.517 171.081,172.083 171.746 C 178.682 173.453,179.286 173.633,180.500 174.256 C 181.096 174.562,181.865 174.925,182.208 175.064 C 183.408 175.548,182.856 175.940,180.625 176.189 C 179.133 176.355,178.635 176.507,178.220 176.923 C 178.109 177.034,177.303 177.179,176.431 177.245 C 175.097 177.345,174.731 177.437,174.131 177.828 C 173.558 178.199,173.159 178.310,172.119 178.383 C 171.123 178.454,170.644 178.579,170.058 178.923 C 169.535 179.229,168.893 179.419,168.022 179.524 C 167.289 179.613,166.573 179.804,166.333 179.975 C 165.734 180.403,165.494 180.471,163.873 180.671 C 163.072 180.771,162.229 180.975,162.000 181.125 C 161.755 181.285,160.877 181.478,159.870 181.592 C 158.456 181.752,158.082 181.855,157.736 182.180 C 157.387 182.508,157.017 182.608,155.553 182.772 C 154.163 182.927,153.681 183.051,153.270 183.359 C 152.920 183.622,152.423 183.782,151.750 183.849 L 150.750 183.949 151.779 183.975 C 152.670 183.997,152.878 183.941,153.334 183.557 C 153.787 183.176,154.095 183.092,155.555 182.953 C 156.954 182.819,157.348 182.717,157.813 182.370 C 158.276 182.025,158.664 181.924,159.980 181.805 C 161.132 181.701,161.708 181.569,162.026 181.337 C 162.316 181.125,162.976 180.951,163.943 180.833 C 164.875 180.718,165.698 180.506,166.181 180.255 C 166.609 180.033,167.525 179.778,168.261 179.676 C 169.174 179.549,169.759 179.366,170.176 179.077 C 170.652 178.747,171.094 178.632,172.312 178.519 C 173.507 178.409,173.930 178.301,174.216 178.032 C 174.584 177.687,176.140 177.337,177.324 177.335 C 177.651 177.334,178.154 177.162,178.491 176.936 C 178.946 176.631,179.470 176.497,180.750 176.361 C 182.278 176.197,182.451 176.142,182.833 175.699 C 183.125 175.359,183.468 175.181,183.979 175.102 C 184.381 175.040,185.018 174.811,185.396 174.593 C 185.895 174.305,186.531 174.149,187.716 174.024 C 189.080 173.880,189.398 173.791,189.648 173.482 C 189.913 173.154,190.171 173.097,191.905 172.980 C 193.657 172.863,193.905 172.807,194.264 172.448 C 195.087 171.625,200.353 171.680,201.941 172.527 C 202.622 172.890,203.031 172.995,203.705 172.977 L 204.583 172.954 203.564 172.838 C 202.902 172.762,202.350 172.582,201.987 172.324 C 201.506 171.982,201.177 171.915,199.597 171.839 C 197.808 171.752,197.762 171.740,197.671 171.333 C 197.517 170.642,196.454 170.272,189.510 168.496 C 185.894 167.570,182.876 166.776,182.803 166.731 C 182.629 166.624,181.508 166.319,178.333 165.516 C 174.197 164.469,169.397 163.221,167.417 162.676 C 166.408 162.399,163.708 161.681,161.417 161.080 C 159.125 160.479,156.762 159.840,156.167 159.660 C 155.571 159.480,154.333 159.154,153.417 158.935 C 152.500 158.715,151.075 158.351,150.250 158.125 C 149.425 157.899,146.537 157.140,143.833 156.439 C 141.129 155.738,138.242 154.970,137.417 154.732 C 133.730 153.669,123.168 150.963,122.391 150.883 C 121.613 150.803,121.513 150.832,121.327 151.189 C 121.214 151.406,121.103 151.606,121.080 151.633 C 121.058 151.661,120.757 151.492,120.413 151.258 C 120.034 151.001,119.554 150.833,119.197 150.833 C 118.736 150.833,118.491 150.706,118.073 150.250 C 117.570 149.702,117.480 149.668,116.561 149.693 C 115.975 149.709,115.817 149.743,116.167 149.778 M285.224 151.552 C 284.970 151.934,284.846 152.452,284.780 153.396 C 284.703 154.512,284.625 154.776,284.257 155.160 C 283.876 155.557,283.806 155.816,283.676 157.313 C 283.554 158.718,283.458 159.108,283.123 159.549 C 282.807 159.965,282.681 160.420,282.549 161.608 C 282.430 162.689,282.278 163.276,282.030 163.624 C 281.645 164.166,281.344 165.266,281.337 166.158 C 281.335 166.496,281.159 166.983,280.910 167.342 C 280.566 167.839,280.462 168.248,280.354 169.536 C 280.240 170.884,280.153 171.207,279.767 171.712 C 279.390 172.207,279.288 172.569,279.152 173.893 C 279.060 174.798,278.843 175.812,278.648 176.253 C 278.460 176.677,278.276 177.451,278.238 177.971 L 278.169 178.917 278.396 177.742 C 278.521 177.095,278.744 176.333,278.892 176.048 C 279.039 175.763,279.238 174.844,279.333 174.007 C 279.466 172.832,279.605 172.334,279.944 171.822 C 280.304 171.277,280.408 170.868,280.519 169.553 C 280.635 168.183,280.714 167.884,281.063 167.516 C 281.387 167.173,281.505 166.802,281.632 165.731 C 281.741 164.813,281.928 164.143,282.214 163.647 C 282.529 163.102,282.665 162.558,282.755 161.500 C 282.857 160.290,282.941 160.008,283.328 159.565 C 283.741 159.093,283.791 158.892,283.877 157.333 C 283.964 155.744,284.003 155.593,284.404 155.268 C 284.783 154.960,284.849 154.753,284.940 153.583 C 285.008 152.698,285.154 152.065,285.374 151.700 C 285.805 150.983,285.681 150.861,285.224 151.552 M120.365 160.395 C 120.337 161.256,120.390 161.437,120.808 161.914 C 121.250 162.417,121.289 162.578,121.374 164.240 C 121.454 165.794,121.514 166.077,121.843 166.427 C 122.148 166.751,122.245 167.110,122.348 168.289 C 122.419 169.093,122.482 169.796,122.488 169.852 C 122.508 170.024,123.500 171.222,123.500 171.074 C 123.500 170.997,123.307 170.657,123.072 170.317 C 122.729 169.822,122.615 169.393,122.500 168.164 C 122.387 166.960,122.280 166.548,122.003 166.253 C 121.706 165.937,121.635 165.596,121.549 164.083 C 121.453 162.388,121.422 162.266,120.981 161.874 C 120.584 161.520,120.506 161.306,120.456 160.437 L 120.398 159.417 120.365 160.395 M123.561 172.593 C 123.589 173.691,123.627 173.803,124.129 174.260 C 124.654 174.737,124.671 174.795,124.771 176.500 C 124.859 177.993,124.925 178.290,125.217 178.523 C 125.501 178.750,125.579 179.064,125.672 180.357 C 125.763 181.607,125.872 182.069,126.226 182.683 C 126.514 183.184,126.703 183.817,126.772 184.516 C 126.830 185.103,127.051 185.958,127.263 186.417 C 127.475 186.875,127.725 187.729,127.819 188.314 C 128.028 189.625,127.826 189.487,129.711 189.610 C 131.281 189.713,131.321 189.707,132.360 189.166 C 133.179 188.740,133.733 188.585,134.833 188.476 C 136.043 188.356,136.299 188.276,136.583 187.927 C 136.880 187.562,137.090 187.506,138.500 187.408 C 139.722 187.323,140.312 187.192,141.083 186.834 C 141.753 186.523,142.494 186.335,143.326 186.264 C 144.224 186.187,144.773 186.038,145.304 185.727 C 145.793 185.441,146.465 185.243,147.306 185.139 C 148.454 184.996,151.180 184.018,150.463 184.005 C 150.306 184.002,149.892 184.149,149.543 184.330 C 148.876 184.678,147.469 185.000,146.617 185.000 C 146.339 185.000,145.767 185.222,145.344 185.493 C 144.716 185.896,144.323 186.007,143.181 186.102 C 142.166 186.187,141.576 186.333,141.018 186.637 C 140.410 186.968,139.912 187.077,138.627 187.161 C 137.170 187.256,136.957 187.312,136.539 187.712 C 136.152 188.084,135.869 188.175,134.829 188.265 C 133.680 188.365,133.038 188.577,131.772 189.274 C 131.384 189.488,131.003 189.515,129.730 189.419 C 128.001 189.290,128.151 189.414,127.913 187.917 C 127.855 187.550,127.660 186.915,127.480 186.505 C 127.300 186.096,127.076 185.196,126.981 184.505 C 126.871 183.706,126.651 182.978,126.374 182.500 C 126.033 181.911,125.917 181.438,125.837 180.297 C 125.754 179.116,125.666 178.771,125.368 178.453 C 125.077 178.144,124.998 177.854,124.990 177.073 C 124.972 175.315,124.762 174.478,124.230 174.054 C 123.814 173.723,123.735 173.521,123.641 172.544 L 123.531 171.417 123.561 172.593 M205.201 173.165 C 205.450 173.240,205.872 173.457,206.139 173.647 C 206.466 173.880,207.062 174.042,207.955 174.142 C 208.893 174.247,209.505 174.420,210.032 174.729 C 210.692 175.116,210.943 175.164,212.181 175.142 L 213.583 175.116 212.083 174.997 C 210.941 174.906,210.404 174.777,209.833 174.456 C 209.342 174.180,208.681 173.994,207.917 173.917 C 207.158 173.840,206.512 173.659,206.069 173.399 C 205.694 173.180,205.244 173.006,205.069 173.014 C 204.845 173.024,204.885 173.069,205.201 173.165 M214.258 175.725 C 214.812 176.263,214.894 176.287,216.536 176.395 C 218.039 176.493,218.289 176.555,218.670 176.920 C 218.972 177.209,219.274 177.328,219.676 177.314 L 220.250 177.295 219.632 177.175 C 219.292 177.109,218.877 176.885,218.708 176.677 C 218.439 176.344,218.186 176.283,216.616 176.169 C 214.961 176.049,214.804 176.008,214.486 175.603 C 214.297 175.363,214.039 175.167,213.913 175.167 C 213.786 175.167,213.942 175.418,214.258 175.725 M221.450 177.499 C 222.072 177.587,222.685 177.793,222.989 178.018 C 223.371 178.300,223.813 178.416,224.789 178.488 C 225.779 178.561,226.213 178.676,226.635 178.977 C 226.938 179.193,227.214 179.341,227.249 179.306 C 227.520 179.035,225.986 178.413,224.795 178.311 C 223.741 178.220,223.387 178.119,223.063 177.814 C 222.734 177.505,222.441 177.424,221.536 177.393 L 220.417 177.354 221.450 177.499 M277.609 179.574 C 277.366 179.799,277.170 180.156,277.173 180.367 C 277.179 180.701,277.209 180.683,277.408 180.225 C 277.534 179.936,277.774 179.623,277.942 179.529 C 278.110 179.435,278.203 179.314,278.150 179.261 C 278.096 179.207,277.853 179.348,277.609 179.574 M227.522 179.410 C 227.576 179.465,228.248 179.581,229.015 179.668 C 229.974 179.778,230.556 179.935,230.876 180.172 C 231.159 180.381,231.685 180.544,232.213 180.586 L 233.083 180.655 232.262 180.504 C 231.811 180.421,231.235 180.200,230.983 180.014 C 230.730 179.827,230.237 179.638,229.887 179.593 C 228.212 179.381,227.431 179.320,227.522 179.410 M233.904 180.829 C 234.356 180.913,234.956 181.152,235.238 181.361 C 235.672 181.684,236.025 181.756,237.562 181.835 C 239.195 181.920,239.404 181.967,239.686 182.315 C 240.014 182.721,240.855 182.988,241.833 182.998 C 242.154 183.001,242.818 183.190,243.308 183.418 C 243.799 183.647,244.361 183.829,244.558 183.824 C 245.231 183.806,242.420 182.880,241.333 182.762 C 240.483 182.669,240.149 182.547,239.781 182.197 C 239.350 181.786,239.173 181.743,237.584 181.665 C 236.126 181.593,235.775 181.520,235.340 181.198 C 235.008 180.952,234.514 180.792,233.954 180.747 L 233.083 180.678 233.904 180.829 M277.050 181.667 C 277.050 182.171,277.081 182.377,277.119 182.125 C 277.158 181.873,277.158 181.460,277.119 181.208 C 277.081 180.956,277.050 181.162,277.050 181.667 M276.833 183.126 C 276.833 183.297,276.617 183.645,276.352 183.899 C 275.895 184.337,275.867 184.447,275.799 186.055 C 275.742 187.396,275.654 187.872,275.377 188.333 C 275.184 188.654,274.973 189.279,274.909 189.722 L 274.791 190.527 272.021 190.472 C 269.447 190.421,269.212 190.389,268.715 190.035 C 268.324 189.756,267.786 189.608,266.719 189.487 C 265.658 189.367,265.055 189.202,264.513 188.884 C 263.955 188.557,263.418 188.416,262.377 188.321 C 261.158 188.210,260.944 188.141,260.648 187.764 C 260.425 187.481,260.156 187.338,259.863 187.348 C 259.432 187.363,259.435 187.369,259.948 187.517 C 260.242 187.602,260.526 187.819,260.584 188.002 C 260.703 188.378,260.929 188.440,262.645 188.576 C 263.471 188.641,264.023 188.779,264.329 188.997 C 264.853 189.370,265.961 189.657,266.903 189.663 C 267.284 189.665,267.989 189.877,268.592 190.171 L 269.627 190.675 272.265 190.629 L 274.903 190.583 275.100 189.667 C 275.208 189.162,275.445 188.471,275.628 188.129 C 275.854 187.706,275.998 187.002,276.079 185.913 C 276.180 184.567,276.258 184.259,276.576 183.950 C 277.026 183.511,277.212 183.048,276.993 182.912 C 276.905 182.858,276.833 182.954,276.833 183.126 M245.377 183.953 C 245.631 183.991,246.006 183.990,246.211 183.951 C 246.416 183.911,246.208 183.880,245.750 183.881 C 245.292 183.882,245.124 183.915,245.377 183.953 M247.000 184.117 C 247.137 184.167,247.442 184.387,247.677 184.605 C 248.033 184.936,248.373 185.028,249.708 185.154 C 250.951 185.272,251.477 185.404,252.051 185.740 C 252.615 186.071,253.146 186.206,254.285 186.312 C 255.450 186.419,255.895 186.536,256.309 186.842 C 256.725 187.149,257.084 187.243,257.962 187.272 L 259.083 187.310 258.079 187.184 C 257.481 187.109,256.766 186.877,256.314 186.612 C 255.748 186.280,255.324 186.166,254.652 186.163 C 253.443 186.157,252.551 185.934,251.943 185.484 C 251.491 185.150,250.178 184.908,248.471 184.844 C 248.318 184.838,247.969 184.646,247.697 184.417 C 247.425 184.188,247.100 184.006,246.976 184.013 C 246.810 184.023,246.816 184.050,247.000 184.117 " stroke="none" fill="#f3abab" fill-rule="evenodd"></path></g></svg>