<svg width="16" height="15" viewBox="0 0 16 15" fill="none" xmlns="http://www.w3.org/2000/svg">
    <path fill="#F7891C" d="M16 5.81285C16 5.5293 15.6923 5.41588 15.4615 5.37807L10.6346 4.68809L8.47115 0.387522C8.38462 0.207939 8.22115 0 8 0C7.77885 0 7.61538 0.207939 7.52885 0.387522L5.36538 4.68809L0.538461 5.37807C0.298077 5.41588 0 5.5293 0 5.81285C0 5.98299 0.125 6.14367 0.240384 6.26654L3.74039 9.61248L2.91346 14.3384C2.90385 14.4045 2.89423 14.4612 2.89423 14.5274C2.89423 14.7732 3.01923 15 3.29808 15C3.43269 15 3.55769 14.9527 3.68269 14.8866L8 12.656L12.3173 14.8866C12.4327 14.9527 12.5673 15 12.7019 15C12.9808 15 13.0962 14.7732 13.0962 14.5274C13.0962 14.4612 13.0962 14.4045 13.0865 14.3384L12.2596 9.61248L15.75 6.26654C15.875 6.14367 16 5.98299 16 5.81285Z"/>
</svg>
